<?xml version="1.0" encoding="UTF-8" standalone="no"?>
<!-- Created with Inkscape (http://www.inkscape.org/) -->

<svg
   version="1.1"
   id="svg2"
   width="666.66669"
   height="666.66669"
   viewBox="0 0 666.66669 666.66669"
   sodipodi:docname="28771001_7495701.eps"
   xmlns:inkscape="http://www.inkscape.org/namespaces/inkscape"
   xmlns:sodipodi="http://sodipodi.sourceforge.net/DTD/sodipodi-0.dtd"
   xmlns="http://www.w3.org/2000/svg"
   xmlns:svg="http://www.w3.org/2000/svg">
  <defs
     id="defs6">
    <clipPath
       clipPathUnits="userSpaceOnUse"
       id="clipPath20">
      <path
         d="m 110.422,287.938 h 4600.28 v 4425.68 H 110.422 Z"
         id="path18" />
    </clipPath>
    <clipPath
       clipPathUnits="userSpaceOnUse"
       id="clipPath26">
      <path
         d="M 110.422,287.936 H 4710.7 V 4713.62 H 110.422 Z"
         id="path24" />
    </clipPath>
    <clipPath
       clipPathUnits="userSpaceOnUse"
       id="clipPath30">
      <path
         d="m 110.422,287.938 h 4600.28 v 4425.68 H 110.422 Z"
         id="path28" />
    </clipPath>
    <clipPath
       clipPathUnits="userSpaceOnUse"
       id="clipPath168">
      <path
         d="m 3454.8,3473.27 h 808.121 v 228.25 H 3454.8 Z"
         id="path166" />
    </clipPath>
    <clipPath
       clipPathUnits="userSpaceOnUse"
       id="clipPath174">
      <path
         d="m 3454.8,3473.27 h 808.12 v 228.25 H 3454.8 Z"
         id="path172" />
    </clipPath>
    <clipPath
       clipPathUnits="userSpaceOnUse"
       id="clipPath178">
      <path
         d="m 3454.8,3473.27 h 808.121 v 228.25 H 3454.8 Z"
         id="path176" />
    </clipPath>
    <clipPath
       clipPathUnits="userSpaceOnUse"
       id="clipPath196">
      <path
         d="M 3404.99,2408.89 H 4563.22 V 3706.06 H 3404.99 Z"
         id="path194" />
    </clipPath>
    <clipPath
       clipPathUnits="userSpaceOnUse"
       id="clipPath202">
      <path
         d="M 3404.99,2408.89 H 4563.22 V 3706.06 H 3404.99 Z"
         id="path200" />
    </clipPath>
    <clipPath
       clipPathUnits="userSpaceOnUse"
       id="clipPath206">
      <path
         d="M 3404.99,2408.89 H 4563.22 V 3706.06 H 3404.99 Z"
         id="path204" />
    </clipPath>
    <clipPath
       clipPathUnits="userSpaceOnUse"
       id="clipPath224">
      <path
         d="m 3425.19,2485.13 h 282.789 V 3835.17 H 3425.19 Z"
         id="path222" />
    </clipPath>
    <clipPath
       clipPathUnits="userSpaceOnUse"
       id="clipPath230">
      <path
         d="m 3425.19,2485.13 h 282.79 v 1350.04 h -282.79 z"
         id="path228" />
    </clipPath>
    <clipPath
       clipPathUnits="userSpaceOnUse"
       id="clipPath234">
      <path
         d="m 3425.19,2485.13 h 282.789 V 3835.17 H 3425.19 Z"
         id="path232" />
    </clipPath>
    <clipPath
       clipPathUnits="userSpaceOnUse"
       id="clipPath258">
      <path
         d="m 2739.26,2047.12 h 779.668 V 3900.49 H 2739.26 Z"
         id="path256" />
    </clipPath>
    <clipPath
       clipPathUnits="userSpaceOnUse"
       id="clipPath264">
      <path
         d="m 2739.26,2047.12 h 779.67 v 1853.37 h -779.67 z"
         id="path262" />
    </clipPath>
    <clipPath
       clipPathUnits="userSpaceOnUse"
       id="clipPath268">
      <path
         d="m 2739.26,2047.12 h 779.668 V 3900.49 H 2739.26 Z"
         id="path266" />
    </clipPath>
  </defs>
  <sodipodi:namedview
     id="namedview4"
     pagecolor="#ffffff"
     bordercolor="#000000"
     borderopacity="0.25"
     inkscape:showpageshadow="2"
     inkscape:pageopacity="0.0"
     inkscape:pagecheckerboard="0"
     inkscape:deskcolor="#d1d1d1" />
  <g
     id="g8"
     inkscape:groupmode="layer"
     inkscape:label="ink_ext_XXXXXX"
     transform="matrix(1.3333333,0,0,-1.3333333,0,666.66667)">
    <g
       id="g10"
       transform="scale(0.1)">
      <path
         d="M 4604.88,2084.86 C 4474.43,1663.86 4192.45,1202.77 3776.34,1053.4 3147.6,827.652 3092.56,281.684 1950.57,287.992 c -178.05,0.961 -343.37,21.071 -495.93,57.461 -82.01,19.559 -160.35,43.942 -234.93,72.641 C 542.672,677.863 170.965,1292.83 116.715,1949.22 45.2227,2812.5 599.363,3246.71 960.523,3502.38 1321.7,3758.04 1732.09,4710.47 2854.74,4713.61 c 171.17,0.4 342.66,-17.73 509.75,-58.76 381.41,-93.47 774.12,-317.67 1010.46,-658.46 17.73,-25.61 34.73,-51.85 51.07,-78.63 318.91,-523.97 356.74,-1258.94 178.86,-1832.9"
         style="fill:#75e6a4;fill-opacity:1;fill-rule:nonzero;stroke:none"
         id="path12" />
      <g
         id="g14">
        <g
           id="g16"
           clip-path="url(#clipPath20)">
          <g
             id="g22" />
          <g
             id="g40">
            <g
               clip-path="url(#clipPath26)"
               opacity="0.699997"
               id="g38">
              <g
                 id="g36">
                <g
                   clip-path="url(#clipPath30)"
                   id="g34">
                  <path
                     d="M 4604.88,2084.86 C 4474.43,1663.86 4192.45,1202.77 3776.34,1053.4 3147.6,827.652 3092.56,281.684 1950.57,287.992 c -178.05,0.961 -343.37,21.071 -495.93,57.461 -82.01,19.559 -160.35,43.942 -234.93,72.641 C 542.672,677.863 170.965,1292.83 116.715,1949.22 45.2227,2812.5 599.363,3246.71 960.523,3502.38 1321.7,3758.04 1732.09,4710.47 2854.74,4713.61 c 171.17,0.4 342.66,-17.73 509.75,-58.76 381.41,-93.47 774.12,-317.67 1010.46,-658.46 17.73,-25.61 34.73,-51.85 51.07,-78.63 318.91,-523.97 356.74,-1258.94 178.86,-1832.9"
                     style="fill:#ffffff;fill-opacity:1;fill-rule:nonzero;stroke:none"
                     id="path32" />
                </g>
              </g>
            </g>
          </g>
        </g>
      </g>
      <path
         d="m 2787.49,3236.64 c 0,0 161.44,17.29 222.57,3.68 61.13,-13.59 243.75,-99.87 414.19,-95.29 170.44,4.58 447.01,105.51 523.99,166.01 76.99,60.5 125.83,106.5 125.83,106.5 0,0 290.29,187.8 401.58,335.38 111.3,147.58 225.62,359.18 239.55,421.88 13.95,62.7 35.64,202.25 59.83,249.43 24.19,47.16 70.89,105.94 46.57,114.23 -24.32,8.27 -132.96,4.33 -132.96,4.33 0,0 -201.75,59.08 -349.68,66.1 -147.93,7.02 -363.15,-44.94 -612.91,-246.54 -249.74,-201.6 -478.77,-458.44 -513.31,-521.37 -34.54,-62.91 -136.7,-278.64 -153.45,-342.79 -16.76,-64.16 -22.54,-138.5 -81.12,-177.14 -24.09,-15.88 -120.69,31.47 -184.51,-11.84 -63.82,-43.3 -28.01,-69.95 -6.17,-72.57"
         style="fill:#75e6a4;fill-opacity:1;fill-rule:nonzero;stroke:none"
         id="path42" />
      <path
         d="m 2787.49,3236.64 c 0,0 161.44,17.29 222.57,3.68 61.13,-13.59 243.75,-99.87 414.19,-95.29 170.44,4.58 447.01,105.51 523.99,166.01 76.99,60.5 125.83,106.5 125.83,106.5 0,0 290.29,187.8 401.58,335.38 111.3,147.58 225.62,359.18 239.55,421.88 13.95,62.7 35.64,202.25 59.83,249.43 24.19,47.16 70.89,105.94 46.57,114.23 -24.32,8.27 -132.96,4.33 -132.96,4.33 0,0 -201.75,59.08 -349.68,66.1 -147.93,7.02 -363.15,-44.94 -612.91,-246.54 -249.74,-201.6 -478.77,-458.44 -513.31,-521.37 -34.54,-62.91 -136.7,-278.64 -153.45,-342.79 -16.76,-64.16 -22.54,-138.5 -81.12,-177.14 -24.09,-15.88 -120.69,31.47 -184.51,-11.84 -63.82,-43.3 -28.01,-69.95 -6.17,-72.57 z"
         style="fill:none;stroke:#233239;stroke-width:10;stroke-linecap:butt;stroke-linejoin:miter;stroke-miterlimit:10;stroke-dasharray:none;stroke-opacity:1"
         id="path44" />
      <path
         d="m 4764.54,4463.93 c 0,0 -369.64,-211.35 -641.33,-441.62 -271.7,-230.26 -520.77,-417.64 -709.41,-546.1 -188.64,-128.47 -376.17,-204.32 -417.72,-211.85"
         style="fill:none;stroke:#233239;stroke-width:10;stroke-linecap:butt;stroke-linejoin:miter;stroke-miterlimit:10;stroke-dasharray:none;stroke-opacity:1"
         id="path46" />
      <path
         d="m 3010.6,3310 c 0,0 161.53,48.57 346.69,161.36 185.16,112.8 499.3,340.64 603.85,432.71"
         style="fill:none;stroke:#233239;stroke-width:10;stroke-linecap:butt;stroke-linejoin:miter;stroke-miterlimit:10;stroke-dasharray:none;stroke-opacity:1"
         id="path48" />
      <path
         d="m 3719,3394.14 c -130.11,26.06 -305.21,82.07 -305.21,82.07"
         style="fill:none;stroke:#233239;stroke-width:10;stroke-linecap:butt;stroke-linejoin:miter;stroke-miterlimit:10;stroke-dasharray:none;stroke-opacity:1"
         id="path50" />
      <path
         d="m 3983.46,3388.17 c 0,0 -80.6,-20.72 -208.83,-3.55 -8.96,1.2 -18.45,2.69 -28.32,4.4"
         style="fill:none;stroke:#233239;stroke-width:10;stroke-linecap:butt;stroke-linejoin:miter;stroke-miterlimit:10;stroke-dasharray:none;stroke-opacity:1"
         id="path52" />
      <path
         d="m 3384.76,3281.75 c -88.22,31.31 -177.9,57.07 -195.85,54.25"
         style="fill:none;stroke:#233239;stroke-width:10;stroke-linecap:butt;stroke-linejoin:miter;stroke-miterlimit:10;stroke-dasharray:none;stroke-opacity:1"
         id="path54" />
      <path
         d="m 3683.26,3223.02 c 0,0 -183.16,16.62 -277.63,51.2"
         style="fill:none;stroke:#233239;stroke-width:10;stroke-linecap:butt;stroke-linejoin:miter;stroke-miterlimit:10;stroke-dasharray:none;stroke-opacity:1"
         id="path56" />
      <path
         d="m 4154.41,3549.16 c 0,0 -127.41,-24.05 -266.8,18.61 -139.39,42.65 -220.79,63.15 -220.79,63.15"
         style="fill:none;stroke:#233239;stroke-width:10;stroke-linecap:butt;stroke-linejoin:miter;stroke-miterlimit:10;stroke-dasharray:none;stroke-opacity:1"
         id="path58" />
      <path
         d="m 3930.61,3785.23 c -23.27,9 -39.25,14.79 -44.41,14.29"
         style="fill:none;stroke:#233239;stroke-width:10;stroke-linecap:butt;stroke-linejoin:miter;stroke-miterlimit:10;stroke-dasharray:none;stroke-opacity:1"
         id="path60" />
      <path
         d="m 4363.32,3670.72 c 0,0 -88.59,13.32 -210.86,40.51 -70.03,15.57 -141.76,42.79 -193.38,62.9"
         style="fill:none;stroke:#233239;stroke-width:10;stroke-linecap:butt;stroke-linejoin:miter;stroke-miterlimit:10;stroke-dasharray:none;stroke-opacity:1"
         id="path62" />
      <path
         d="m 4287.04,4033.25 c -51.31,3.28 -91.67,5.44 -91.67,5.44"
         style="fill:none;stroke:#233239;stroke-width:10;stroke-linecap:butt;stroke-linejoin:miter;stroke-miterlimit:10;stroke-dasharray:none;stroke-opacity:1"
         id="path64" />
      <path
         d="m 4554.63,3942.82 c 0,0 -149.86,82.36 -221.02,87.32 -4.76,0.34 -9.52,0.66 -14.22,0.98"
         style="fill:none;stroke:#233239;stroke-width:10;stroke-linecap:butt;stroke-linejoin:miter;stroke-miterlimit:10;stroke-dasharray:none;stroke-opacity:1"
         id="path66" />
      <path
         d="m 4462.7,3798.28 c 0,0 -209.86,61.84 -293.74,88 -83.89,26.16 -116.98,22.98 -116.98,22.98"
         style="fill:none;stroke:#233239;stroke-width:10;stroke-linecap:butt;stroke-linejoin:miter;stroke-miterlimit:10;stroke-dasharray:none;stroke-opacity:1"
         id="path68" />
      <path
         d="m 4607.27,4098.34 c 0,0 -169.22,79.32 -241.94,80"
         style="fill:none;stroke:#233239;stroke-width:10;stroke-linecap:butt;stroke-linejoin:miter;stroke-miterlimit:10;stroke-dasharray:none;stroke-opacity:1"
         id="path70" />
      <path
         d="m 4703.59,4248.61 c 0,0 -130.61,54.12 -177.77,43.69"
         style="fill:none;stroke:#233239;stroke-width:10;stroke-linecap:butt;stroke-linejoin:miter;stroke-miterlimit:10;stroke-dasharray:none;stroke-opacity:1"
         id="path72" />
      <path
         d="m 3333.87,3469.7 c 0,0 25.41,131.07 21.2,274.63 -4.21,143.56 31.01,220.7 49.24,257.86"
         style="fill:none;stroke:#233239;stroke-width:10;stroke-linecap:butt;stroke-linejoin:miter;stroke-miterlimit:10;stroke-dasharray:none;stroke-opacity:1"
         id="path74" />
      <path
         d="m 3589.11,3991.06 c 2.78,21.44 5.56,41.26 8.25,58.59 21.68,139.56 87.18,218.44 87.18,218.44"
         style="fill:none;stroke:#233239;stroke-width:10;stroke-linecap:butt;stroke-linejoin:miter;stroke-miterlimit:10;stroke-dasharray:none;stroke-opacity:1"
         id="path76" />
      <path
         d="m 3549.08,3608.39 c 0,0 16.94,192.24 34.8,340.79"
         style="fill:none;stroke:#233239;stroke-width:10;stroke-linecap:butt;stroke-linejoin:miter;stroke-miterlimit:10;stroke-dasharray:none;stroke-opacity:1"
         id="path78" />
      <path
         d="m 3929.63,4397.96 c 13.48,31.58 26.26,53.95 37.42,67.79"
         style="fill:none;stroke:#233239;stroke-width:10;stroke-linecap:butt;stroke-linejoin:miter;stroke-miterlimit:10;stroke-dasharray:none;stroke-opacity:1"
         id="path80" />
      <path
         d="m 3796.24,3784.38 c 0,0 14.05,93.98 51.59,307.64 18.53,105.44 39.64,187.71 60.29,249"
         style="fill:none;stroke:#233239;stroke-width:10;stroke-linecap:butt;stroke-linejoin:miter;stroke-miterlimit:10;stroke-dasharray:none;stroke-opacity:1"
         id="path82" />
      <path
         d="m 4070.02,4090.04 c 6.21,38.82 14.74,87.46 26.11,143.85 30.47,151.02 97.64,265.45 122.74,302.68"
         style="fill:none;stroke:#233239;stroke-width:10;stroke-linecap:butt;stroke-linejoin:miter;stroke-miterlimit:10;stroke-dasharray:none;stroke-opacity:1"
         id="path84" />
      <path
         d="m 4055.68,3987.5 c 0,0 2.55,24.41 9.02,68.1"
         style="fill:none;stroke:#233239;stroke-width:10;stroke-linecap:butt;stroke-linejoin:miter;stroke-miterlimit:10;stroke-dasharray:none;stroke-opacity:1"
         id="path86" />
      <path
         d="m 4285.82,4221.67 c 10.37,49.04 26.39,124.02 42.84,198.01 27.88,125.4 53.88,152.68 53.88,152.68"
         style="fill:none;stroke:#233239;stroke-width:10;stroke-linecap:butt;stroke-linejoin:miter;stroke-miterlimit:10;stroke-dasharray:none;stroke-opacity:1"
         id="path88" />
      <path
         d="m 4274.14,4166.04 c 0,0 2.21,10.66 6.03,28.82"
         style="fill:none;stroke:#233239;stroke-width:10;stroke-linecap:butt;stroke-linejoin:miter;stroke-miterlimit:10;stroke-dasharray:none;stroke-opacity:1"
         id="path90" />
      <path
         d="m 4510.95,4326.27 c 0,0 9.22,49.86 28.79,115.46 19.57,65.61 35.89,91.38 35.89,91.38"
         style="fill:none;stroke:#233239;stroke-width:10;stroke-linecap:butt;stroke-linejoin:miter;stroke-miterlimit:10;stroke-dasharray:none;stroke-opacity:1"
         id="path92" />
      <path
         d="m 4367.67,4228.13 c 0,0 36.56,105.59 67.49,208.28 30.93,102.68 52.54,124.23 52.54,124.23"
         style="fill:none;stroke:#233239;stroke-width:10;stroke-linecap:butt;stroke-linejoin:miter;stroke-miterlimit:10;stroke-dasharray:none;stroke-opacity:1"
         id="path94" />
      <path
         d="m 3208.1,3567.95 c -5.34,177.68 23.91,244.8 23.91,244.8"
         style="fill:none;stroke:#233239;stroke-width:10;stroke-linecap:butt;stroke-linejoin:miter;stroke-miterlimit:10;stroke-dasharray:none;stroke-opacity:1"
         id="path96" />
      <path
         d="m 3172.8,3372.8 c 0,0 34.02,14.63 35.71,153.23"
         style="fill:none;stroke:#233239;stroke-width:10;stroke-linecap:butt;stroke-linejoin:miter;stroke-miterlimit:10;stroke-dasharray:none;stroke-opacity:1"
         id="path98" />
      <path
         d="m 2588.33,2456.79 c 0,0 13.71,161.77 38.67,219.21 24.96,57.44 144.4,220.33 172.29,388.53 27.89,168.21 -18.65,458.92 -63.41,546 -44.77,87.08 -80.65,143.77 -80.65,143.77 0,0 -129.2,320.68 -252.95,458 -123.74,137.31 -309.76,289.76 -368.67,315.36 -58.91,25.6 -191.81,73.42 -233.52,106.13 -41.71,32.72 -90.53,89.74 -103.29,67.43 -12.75,-22.3 -29.52,-129.7 -29.52,-129.7 0,0 -96.35,-186.85 -131.35,-330.75 -35.01,-143.9 -24.9,-365.08 125.57,-648.59 150.47,-283.51 359.11,-557.17 414.31,-603.04 55.2,-45.87 247.59,-187.16 307.39,-215.8 59.8,-28.64 131.69,-48.45 158.49,-113.3 11.02,-26.67 -53.83,-112.51 -23.44,-183.4 30.38,-70.89 63.35,-40.8 70.08,-19.85"
         style="fill:#75e6a4;fill-opacity:1;fill-rule:nonzero;stroke:none"
         id="path100" />
      <path
         d="m 2588.33,2456.79 c 0,0 13.71,161.77 38.67,219.21 24.96,57.44 144.4,220.33 172.29,388.53 27.89,168.21 -18.65,458.92 -63.41,546 -44.77,87.08 -80.65,143.77 -80.65,143.77 0,0 -129.2,320.68 -252.95,458 -123.74,137.31 -309.76,289.76 -368.67,315.36 -58.91,25.6 -191.81,73.42 -233.52,106.13 -41.71,32.72 -90.53,89.74 -103.29,67.43 -12.75,-22.3 -29.52,-129.7 -29.52,-129.7 0,0 -96.35,-186.85 -131.35,-330.75 -35.01,-143.9 -24.9,-365.08 125.57,-648.59 150.47,-283.51 359.11,-557.17 414.31,-603.04 55.2,-45.87 247.59,-187.16 307.39,-215.8 59.8,-28.64 131.69,-48.45 158.49,-113.3 11.02,-26.67 -53.83,-112.51 -23.44,-183.4 30.38,-70.89 63.35,-40.8 70.08,-19.85 z"
         style="fill:none;stroke:#233239;stroke-width:10;stroke-linecap:butt;stroke-linejoin:miter;stroke-miterlimit:10;stroke-dasharray:none;stroke-opacity:1"
         id="path102" />
      <path
         d="m 1759.12,4631.05 c 0,0 137.26,-403.07 311.68,-713.57 174.45,-310.5 311.08,-590.66 401.36,-800.28 90.28,-209.61 129.1,-408.13 128.61,-450.34"
         style="fill:none;stroke:#233239;stroke-width:10;stroke-linecap:butt;stroke-linejoin:miter;stroke-miterlimit:10;stroke-dasharray:none;stroke-opacity:1"
         id="path104" />
      <path
         d="m 2558.7,2689.77 c 0,0 -16.98,167.82 -92.53,371.04 -75.56,203.21 -239.55,554.92 -310.07,675.07"
         style="fill:none;stroke:#233239;stroke-width:10;stroke-linecap:butt;stroke-linejoin:miter;stroke-miterlimit:10;stroke-dasharray:none;stroke-opacity:1"
         id="path106" />
      <path
         d="m 2610.71,3401.25 c -50.29,-122.78 -138.56,-284.04 -138.56,-284.04"
         style="fill:none;stroke:#233239;stroke-width:10;stroke-linecap:butt;stroke-linejoin:miter;stroke-miterlimit:10;stroke-dasharray:none;stroke-opacity:1"
         id="path108" />
      <path
         d="m 2666.84,3659.76 c 0,0 5.04,-83.07 -36.2,-205.69 -2.88,-8.59 -6.13,-17.61 -9.7,-26.98"
         style="fill:none;stroke:#233239;stroke-width:10;stroke-linecap:butt;stroke-linejoin:miter;stroke-miterlimit:10;stroke-dasharray:none;stroke-opacity:1"
         id="path110" />
      <path
         d="m 2657.54,3051.74 c -47.5,-80.66 -89.82,-163.81 -90.47,-181.96"
         style="fill:none;stroke:#233239;stroke-width:10;stroke-linecap:butt;stroke-linejoin:miter;stroke-miterlimit:10;stroke-dasharray:none;stroke-opacity:1"
         id="path112" />
      <path
         d="m 2771.93,3333.65 c 0,0 -51.12,-176.67 -103.03,-262.84"
         style="fill:none;stroke:#233239;stroke-width:10;stroke-linecap:butt;stroke-linejoin:miter;stroke-miterlimit:10;stroke-dasharray:none;stroke-opacity:1"
         id="path114" />
      <path
         d="m 2541.27,3858.19 c 0,0 -0.61,-129.68 -68.97,-258.4 -68.37,-128.75 -103.96,-204.77 -103.96,-204.77"
         style="fill:none;stroke:#233239;stroke-width:10;stroke-linecap:butt;stroke-linejoin:miter;stroke-miterlimit:10;stroke-dasharray:none;stroke-opacity:1"
         id="path116" />
      <path
         d="m 2266.97,3683.33 c -13.26,-21.13 -21.96,-35.73 -22.46,-40.9"
         style="fill:none;stroke:#233239;stroke-width:10;stroke-linecap:butt;stroke-linejoin:miter;stroke-miterlimit:10;stroke-dasharray:none;stroke-opacity:1"
         id="path118" />
      <path
         d="m 2461.63,4086.39 c 0,0 -29.92,-84.45 -79.84,-199.32 -28.6,-65.79 -68.95,-131.04 -98.51,-177.9"
         style="fill:none;stroke:#233239;stroke-width:10;stroke-linecap:butt;stroke-linejoin:miter;stroke-miterlimit:10;stroke-dasharray:none;stroke-opacity:1"
         id="path120" />
      <path
         d="m 2091.21,4080.39 c -12.98,-49.75 -22.76,-88.95 -22.76,-88.95"
         style="fill:none;stroke:#233239;stroke-width:10;stroke-linecap:butt;stroke-linejoin:miter;stroke-miterlimit:10;stroke-dasharray:none;stroke-opacity:1"
         id="path122" />
      <path
         d="m 2230.84,4325.92 c 0,0 -109.34,-131.48 -127.73,-200.39 -1.23,-4.62 -2.46,-9.22 -3.67,-13.79"
         style="fill:none;stroke:#233239;stroke-width:10;stroke-linecap:butt;stroke-linejoin:miter;stroke-miterlimit:10;stroke-dasharray:none;stroke-opacity:1"
         id="path124" />
      <path
         d="m 2355.28,4208.19 c 0,0 -100.6,-194.28 -142.22,-271.66 -41.63,-77.37 -44.79,-110.47 -44.79,-110.47"
         style="fill:none;stroke:#233239;stroke-width:10;stroke-linecap:butt;stroke-linejoin:miter;stroke-miterlimit:10;stroke-dasharray:none;stroke-opacity:1"
         id="path126" />
      <path
         d="m 2088.16,4407.16 c 0,0 -110.03,-151.07 -124.52,-222.34"
         style="fill:none;stroke:#233239;stroke-width:10;stroke-linecap:butt;stroke-linejoin:miter;stroke-miterlimit:10;stroke-dasharray:none;stroke-opacity:1"
         id="path128" />
      <path
         d="m 1958.93,4530.28 c 0,0 -77.95,-117.94 -76.67,-166.23"
         style="fill:none;stroke:#233239;stroke-width:10;stroke-linecap:butt;stroke-linejoin:miter;stroke-miterlimit:10;stroke-dasharray:none;stroke-opacity:1"
         id="path130" />
      <path
         d="m 2463.34,3037.5 c 0,0 -123.84,49.85 -265.59,73 -141.75,23.16 -210.79,72.39 -243.8,97.34"
         style="fill:none;stroke:#233239;stroke-width:10;stroke-linecap:butt;stroke-linejoin:miter;stroke-miterlimit:10;stroke-dasharray:none;stroke-opacity:1"
         id="path132" />
      <path
         d="m 2000,3387.17 c -20.52,6.81 -39.46,13.29 -55.96,19.23 -132.9,47.81 -197.88,127.1 -197.88,127.1"
         style="fill:none;stroke:#233239;stroke-width:10;stroke-linecap:butt;stroke-linejoin:miter;stroke-miterlimit:10;stroke-dasharray:none;stroke-opacity:1"
         id="path134" />
      <path
         d="m 2368.08,3275.14 c 0,0 -185.51,53.17 -327.96,98.94"
         style="fill:none;stroke:#233239;stroke-width:10;stroke-linecap:butt;stroke-linejoin:miter;stroke-miterlimit:10;stroke-dasharray:none;stroke-opacity:1"
         id="path136" />
      <path
         d="m 1665.21,3798.8 c -28.44,19.24 -47.96,36.04 -59.44,49.63"
         style="fill:none;stroke:#233239;stroke-width:10;stroke-linecap:butt;stroke-linejoin:miter;stroke-miterlimit:10;stroke-dasharray:none;stroke-opacity:1"
         id="path138" />
      <path
         d="m 2242.27,3551.25 c 0,0 -89.59,31.65 -292.22,109.11 -100,38.22 -176.76,74.58 -233,106.51"
         style="fill:none;stroke:#233239;stroke-width:10;stroke-linecap:butt;stroke-linejoin:miter;stroke-miterlimit:10;stroke-dasharray:none;stroke-opacity:1"
         id="path140" />
      <path
         d="m 1994.2,3878.13 c -36.91,13.48 -83.05,31.08 -136.25,52.96 -142.5,58.62 -242.07,146.32 -273.84,178.03"
         style="fill:none;stroke:#233239;stroke-width:10;stroke-linecap:butt;stroke-linejoin:miter;stroke-miterlimit:10;stroke-dasharray:none;stroke-opacity:1"
         id="path142" />
      <path
         d="m 2092.15,3844.55 c 0,0 -23.48,7.16 -65.14,21.82"
         style="fill:none;stroke:#233239;stroke-width:10;stroke-linecap:butt;stroke-linejoin:miter;stroke-miterlimit:10;stroke-dasharray:none;stroke-opacity:1"
         id="path144" />
      <path
         d="m 1905.99,4115 c -46.18,19.5 -116.74,49.48 -186.26,79.7 -117.82,51.21 -139.66,81.91 -139.66,81.91"
         style="fill:none;stroke:#233239;stroke-width:10;stroke-linecap:butt;stroke-linejoin:miter;stroke-miterlimit:10;stroke-dasharray:none;stroke-opacity:1"
         id="path146" />
      <path
         d="m 1958.39,4092.96 c 0,0 -10.04,4.2 -27.16,11.41"
         style="fill:none;stroke:#233239;stroke-width:10;stroke-linecap:butt;stroke-linejoin:miter;stroke-miterlimit:10;stroke-dasharray:none;stroke-opacity:1"
         id="path148" />
      <path
         d="m 1846.07,4355.91 c 0,0 -47.19,18.52 -107.89,50.22 -60.68,31.66 -82.88,52.58 -82.88,52.58"
         style="fill:none;stroke:#233239;stroke-width:10;stroke-linecap:butt;stroke-linejoin:miter;stroke-miterlimit:10;stroke-dasharray:none;stroke-opacity:1"
         id="path150" />
      <path
         d="m 1915.2,4196.59 c 0,0 -96.72,55.96 -191.65,105.83 -94.94,49.88 -111.98,75.2 -111.98,75.2"
         style="fill:none;stroke:#233239;stroke-width:10;stroke-linecap:butt;stroke-linejoin:miter;stroke-miterlimit:10;stroke-dasharray:none;stroke-opacity:1"
         id="path152" />
      <path
         d="m 2342.99,2932.69 c -175.45,28.52 -235.8,69.99 -235.8,69.99"
         style="fill:none;stroke:#233239;stroke-width:10;stroke-linecap:butt;stroke-linejoin:miter;stroke-miterlimit:10;stroke-dasharray:none;stroke-opacity:1"
         id="path154" />
      <path
         d="m 2527.87,2860.95 c 0,0 -7.89,36.18 -143.64,64.18"
         style="fill:none;stroke:#233239;stroke-width:10;stroke-linecap:butt;stroke-linejoin:miter;stroke-miterlimit:10;stroke-dasharray:none;stroke-opacity:1"
         id="path156" />
      <path
         d="m 3540.75,3769.95 c 0,0 818.66,394.83 993.24,-123.9 174.59,-518.72 -178.42,-1117.45 -458,-1233.92 -279.6,-116.48 -650.8,148.26 -650.8,148.26 l 82.03,238.5 c 0,0 356.2,-131.21 567.82,-10.77 211.6,120.42 339.27,754.3 47.23,815.46 C 3830.24,3664.72 3475,3419.93 3475,3419.93"
         style="fill:#ffffff;fill-opacity:1;fill-rule:nonzero;stroke:none"
         id="path158" />
      <path
         d="m 3540.75,3769.95 c 0,0 818.66,394.83 993.24,-123.9 174.59,-518.72 -178.42,-1117.45 -458,-1233.92 -279.6,-116.48 -650.8,148.26 -650.8,148.26 l 82.03,238.5 c 0,0 356.2,-131.21 567.82,-10.77 211.6,120.42 339.27,754.3 47.23,815.46 C 3830.24,3664.72 3475,3419.93 3475,3419.93 Z"
         style="fill:none;stroke:#233239;stroke-width:10;stroke-linecap:round;stroke-linejoin:round;stroke-miterlimit:10;stroke-dasharray:none;stroke-opacity:1"
         id="path160" />
      <g
         id="g162">
        <g
           id="g164"
           clip-path="url(#clipPath168)">
          <g
             id="g170" />
          <g
             id="g188">
            <g
               clip-path="url(#clipPath174)"
               opacity="0.240005"
               id="g186">
              <g
                 id="g184">
                <g
                   clip-path="url(#clipPath178)"
                   id="g182">
                  <path
                     d="m 4098.61,3627.96 c 59.86,-9.13 136.81,-58.26 164.31,-108.77 -24.97,74.89 -64.97,160.87 -159.68,175.88 -233.74,37.03 -541.05,-94.95 -635.62,-152.97 l -12.83,-68.29 c 11.21,-12.43 369.17,196.01 643.82,154.15"
                     style="fill:#000000;fill-opacity:1;fill-rule:nonzero;stroke:none"
                     id="path180" />
                </g>
              </g>
            </g>
          </g>
        </g>
      </g>
      <g
         id="g190">
        <g
           id="g192"
           clip-path="url(#clipPath196)">
          <g
             id="g198" />
          <g
             id="g216">
            <g
               clip-path="url(#clipPath202)"
               opacity="0.240005"
               id="g214">
              <g
                 id="g212">
                <g
                   clip-path="url(#clipPath206)"
                   id="g210">
                  <path
                     d="m 4516.86,3647.93 c -7.02,20.88 -15.2,40.12 -24.22,58.12 1.34,-3.66 2.75,-7.22 4.02,-10.98 174.57,-518.73 -181.48,-1065.46 -461.07,-1181.93 -232.29,-96.76 -527.79,69.58 -621.13,128.64 l -9.48,-27.51 c 0,0 372.38,-294.6 651.98,-178.13 279.59,116.47 634.49,693.06 459.9,1211.79"
                     style="fill:#000000;fill-opacity:1;fill-rule:nonzero;stroke:none"
                     id="path208" />
                </g>
              </g>
            </g>
          </g>
        </g>
      </g>
      <g
         id="g218">
        <g
           id="g220"
           clip-path="url(#clipPath224)">
          <g
             id="g226" />
          <g
             id="g246">
            <g
               clip-path="url(#clipPath230)"
               opacity="0.240005"
               id="g244">
              <g
                 id="g242">
                <g
                   clip-path="url(#clipPath234)"
                   id="g240">
                  <path
                     d="m 3475,3419.93 c 0,0 97.5,67.11 232.26,122.29 1.9,119.06 -0.24,220.64 -2.91,292.95 -97.99,-33.59 -163.6,-65.22 -163.6,-65.22"
                     style="fill:#000000;fill-opacity:1;fill-rule:nonzero;stroke:none"
                     id="path236" />
                  <path
                     d="m 3629.41,2764.12 c -72.82,16.61 -122.19,34.77 -122.19,34.77 l -82.02,-238.5 c 0,0 50.21,-35.79 127.57,-75.25 31.23,88.23 56.41,182.45 76.64,278.98"
                     style="fill:#000000;fill-opacity:1;fill-rule:nonzero;stroke:none"
                     id="path238" />
                </g>
              </g>
            </g>
          </g>
        </g>
      </g>
      <path
         d="m 647.82,3900.49 c 9.141,-850.1 -36.59,-1983.06 1464.1,-1983.06 1572.16,0 1454.98,1132.96 1464.11,1983.06"
         style="fill:#ffffff;fill-opacity:1;fill-rule:nonzero;stroke:none"
         id="path248" />
      <path
         d="m 647.82,3900.49 c 9.141,-850.1 -36.59,-1983.06 1464.1,-1983.06 1572.16,0 1454.98,1132.96 1464.11,1983.06 z"
         style="fill:none;stroke:#233239;stroke-width:10;stroke-linecap:round;stroke-linejoin:round;stroke-miterlimit:10;stroke-dasharray:none;stroke-opacity:1"
         id="path250" />
      <g
         id="g252">
        <g
           id="g254"
           clip-path="url(#clipPath258)">
          <g
             id="g260" />
          <g
             id="g278">
            <g
               clip-path="url(#clipPath264)"
               opacity="0.240005"
               id="g276">
              <g
                 id="g274">
                <g
                   clip-path="url(#clipPath268)"
                   id="g272">
                  <path
                     d="m 3419.21,3900.49 c -5.38,-687.5 55.74,-1551.22 -679.95,-1853.36 849.83,281.83 772.24,1162.78 779.67,1853.36"
                     style="fill:#000000;fill-opacity:1;fill-rule:nonzero;stroke:none"
                     id="path270" />
                </g>
              </g>
            </g>
          </g>
        </g>
      </g>
      <path
         d="m 649.434,3723.38 c 0.07,-6.72 0.14,-13.45 0.218,-20.2 H 3575.34 c 0.02,6.75 0.02,13.48 0.02,20.2"
         style="fill:#233239;fill-opacity:1;fill-rule:nonzero;stroke:none"
         id="path280" />
      <path
         d="m 649.434,3723.38 c 0.07,-6.72 0.14,-13.45 0.218,-20.2 H 3575.34 c 0.02,6.75 0.02,13.48 0.02,20.2 z"
         style="fill:none;stroke:#233239;stroke-width:10;stroke-linecap:butt;stroke-linejoin:miter;stroke-miterlimit:10;stroke-dasharray:none;stroke-opacity:1"
         id="path282" />
      <path
         d="m 3574.62,3528.09 c 0.46,42.89 0.62,85.59 0.68,127.95 H 650.25 c 0.621,-42.36 1.438,-85.06 2.648,-127.95"
         style="fill:#233239;fill-opacity:1;fill-rule:nonzero;stroke:none"
         id="path284" />
      <path
         d="m 3574.62,3528.09 c 0.46,42.89 0.62,85.59 0.68,127.95 H 650.25 c 0.621,-42.36 1.438,-85.06 2.648,-127.95 z"
         style="fill:none;stroke:#233239;stroke-width:10;stroke-linecap:butt;stroke-linejoin:miter;stroke-miterlimit:10;stroke-dasharray:none;stroke-opacity:1"
         id="path286" />
      <path
         d="m 3180.79,1914.79 c 0,0 -197.76,71.64 -262.34,120.67 -64.57,49.04 -234.1,245.13 -435.9,335.65 -201.8,90.52 -577.16,135.77 -698.24,113.14 C 1663.23,2461.63 1582.5,2439 1582.5,2439 c 0,0 -435.89,-41.5 -641.73,-139.54 -205.84,-98.05 -448.008,-264 -496.438,-324.33 -48.43,-60.34 -145.301,-199.88 -197.769,-237.61 -52.473,-37.7 -137.231,-75.41 -113.012,-98.04 24.219,-22.64 153.371,-79.19 153.371,-79.19 0,0 205.84,-177.27 375.359,-267.77 169.512,-90.52 447.999,-154.63 843.539,-75.43 395.54,79.2 795.11,230.05 867.76,279.09 72.64,49.02 302.71,226.27 355.17,286.61 52.47,60.34 97.32,137.91 185.66,147.07 36.33,3.78 125.12,-101.81 221.99,-90.5 96.86,11.32 68.61,60.34 44.39,75.43"
         style="fill:#75e6a4;fill-opacity:1;fill-rule:nonzero;stroke:none"
         id="path288" />
      <path
         d="m 3180.79,1914.79 c 0,0 -197.76,71.64 -262.34,120.67 -64.57,49.04 -234.1,245.13 -435.9,335.65 -201.8,90.52 -577.16,135.77 -698.24,113.14 C 1663.23,2461.63 1582.5,2439 1582.5,2439 c 0,0 -435.89,-41.5 -641.73,-139.54 -205.84,-98.05 -448.008,-264 -496.438,-324.33 -48.43,-60.34 -145.301,-199.88 -197.769,-237.61 -52.473,-37.7 -137.231,-75.41 -113.012,-98.04 24.219,-22.64 153.371,-79.19 153.371,-79.19 0,0 205.84,-177.27 375.359,-267.77 169.512,-90.52 447.999,-154.63 843.539,-75.43 395.54,79.2 795.11,230.05 867.76,279.09 72.64,49.02 302.71,226.27 355.17,286.61 52.47,60.34 97.32,137.91 185.66,147.07 36.33,3.78 125.12,-101.81 221.99,-90.5 96.86,11.32 68.61,60.34 44.39,75.43 z"
         style="fill:none;stroke:#233239;stroke-width:10;stroke-linecap:butt;stroke-linejoin:miter;stroke-miterlimit:10;stroke-dasharray:none;stroke-opacity:1"
         id="path290" />
      <path
         d="m 3041.25,1916.75 c -3.31,13.89 -6.11,33.73 -9.07,57.95 -45.04,20.06 -89.08,42.06 -113.73,60.77 -64.58,49.02 -234.09,245.13 -435.9,335.65 -201.8,90.5 -577.16,135.76 -698.24,113.13 C 1663.23,2461.62 1582.5,2439 1582.5,2439 c 0,0 -345.15,-32.86 -566.22,-109.18 93.91,-82.28 216.16,-163.29 373.71,-235.91 362.78,-167.2 776.31,-280.55 865.84,-284.22 89.54,-3.66 387.66,1.96 468.87,18.87 17.02,3.54 34.28,7.87 51.63,12.09 36.47,43.59 76.81,82.86 138.08,89.22 27.43,2.85 84.75,-56.61 152.88,-81.07 -12.05,25.69 -21.67,49.6 -26.04,67.95"
         style="fill:#233239;fill-opacity:1;fill-rule:nonzero;stroke:none"
         id="path292" />
      <path
         d="m 3041.25,1916.75 c -3.31,13.89 -6.11,33.73 -9.07,57.95 -45.04,20.06 -89.08,42.06 -113.73,60.77 -64.58,49.02 -234.09,245.13 -435.9,335.65 -201.8,90.5 -577.16,135.76 -698.24,113.13 C 1663.23,2461.62 1582.5,2439 1582.5,2439 c 0,0 -345.15,-32.86 -566.22,-109.18 93.91,-82.28 216.16,-163.29 373.71,-235.91 362.78,-167.2 776.31,-280.55 865.84,-284.22 89.54,-3.66 387.66,1.96 468.87,18.87 17.02,3.54 34.28,7.87 51.63,12.09 36.47,43.59 76.81,82.86 138.08,89.22 27.43,2.85 84.75,-56.61 152.88,-81.07 -12.05,25.69 -21.67,49.6 -26.04,67.95 z"
         style="fill:none;stroke:#233239;stroke-width:10;stroke-linecap:butt;stroke-linejoin:miter;stroke-miterlimit:10;stroke-dasharray:none;stroke-opacity:1"
         id="path294" />
      <path
         d="m 238.492,1688.51 c 0,0 540.828,22.63 976.728,120.68 435.9,98.04 823.36,162.17 1109.93,196.11 286.56,33.93 544.87,11.32 597.34,-3.77"
         style="fill:none;stroke:#233239;stroke-width:10;stroke-linecap:butt;stroke-linejoin:miter;stroke-miterlimit:10;stroke-dasharray:none;stroke-opacity:1"
         id="path296" />
      <path
         d="m 2882.13,1960.04 c 0,0 -213.92,37.71 -488.37,18.86 -274.45,-18.86 -758.78,-90.51 -928.3,-132"
         style="fill:none;stroke:#233239;stroke-width:10;stroke-linecap:butt;stroke-linejoin:miter;stroke-miterlimit:10;stroke-dasharray:none;stroke-opacity:1"
         id="path298" />
      <path
         d="m 2010.02,2265.48 c 138.91,-101.21 315.12,-260.19 315.12,-260.19"
         style="fill:none;stroke:#233239;stroke-width:10;stroke-linecap:butt;stroke-linejoin:miter;stroke-miterlimit:10;stroke-dasharray:none;stroke-opacity:1"
         id="path300" />
      <path
         d="m 1703.59,2420.14 c 0,0 104.94,-22.63 246.2,-113.13 9.88,-6.33 20.22,-13.26 30.89,-20.66"
         style="fill:none;stroke:#233239;stroke-width:10;stroke-linecap:butt;stroke-linejoin:miter;stroke-miterlimit:10;stroke-dasharray:none;stroke-opacity:1"
         id="path302" />
      <path
         d="m 2458.74,2200.37 c 87.21,-83.46 178.96,-161.69 201.4,-168.68"
         style="fill:none;stroke:#233239;stroke-width:10;stroke-linecap:butt;stroke-linejoin:miter;stroke-miterlimit:10;stroke-dasharray:none;stroke-opacity:1"
         id="path304" />
      <path
         d="m 2139.49,2431.45 c 0,0 205.84,-120.68 298.67,-211.18"
         style="fill:none;stroke:#233239;stroke-width:10;stroke-linecap:butt;stroke-linejoin:miter;stroke-miterlimit:10;stroke-dasharray:none;stroke-opacity:1"
         id="path306" />
      <path
         d="m 1421.06,2340.94 c 0,0 161.44,-45.25 302.71,-169.71 141.27,-124.45 226.02,-192.33 226.02,-192.33"
         style="fill:none;stroke:#233239;stroke-width:10;stroke-linecap:butt;stroke-linejoin:miter;stroke-miterlimit:10;stroke-dasharray:none;stroke-opacity:1"
         id="path308" />
      <path
         d="m 1562.05,1958.96 c 22.62,-22.82 38.37,-38.05 44.67,-40.41"
         style="fill:none;stroke:#233239;stroke-width:10;stroke-linecap:butt;stroke-linejoin:miter;stroke-miterlimit:10;stroke-dasharray:none;stroke-opacity:1"
         id="path310" />
      <path
         d="m 1114.32,2325.86 c 0,0 96.87,-64.11 226.02,-162.17 73.98,-56.16 143.98,-125.94 194.08,-176.72"
         style="fill:none;stroke:#233239;stroke-width:10;stroke-linecap:butt;stroke-linejoin:miter;stroke-miterlimit:10;stroke-dasharray:none;stroke-opacity:1"
         id="path312" />
      <path
         d="m 1017.9,1889.08 c 58.36,-32.31 104.49,-57.27 104.49,-57.27"
         style="fill:none;stroke:#233239;stroke-width:10;stroke-linecap:butt;stroke-linejoin:miter;stroke-miterlimit:10;stroke-dasharray:none;stroke-opacity:1"
         id="path314" />
      <path
         d="m 751.074,2137.29 c 0,0 133.192,-173.49 213.91,-218.74 5.411,-3.03 10.801,-6.05 16.149,-9.03"
         style="fill:none;stroke:#233239;stroke-width:10;stroke-linecap:butt;stroke-linejoin:miter;stroke-miterlimit:10;stroke-dasharray:none;stroke-opacity:1"
         id="path316" />
      <path
         d="m 932.695,2242.89 c 0,0 213.915,-184.79 298.665,-260.22 84.77,-75.43 125.12,-90.51 125.12,-90.51"
         style="fill:none;stroke:#233239;stroke-width:10;stroke-linecap:butt;stroke-linejoin:miter;stroke-miterlimit:10;stroke-dasharray:none;stroke-opacity:1"
         id="path318" />
      <path
         d="m 609.809,1997.75 c 0,0 157.41,-181.03 242.16,-222.51"
         style="fill:none;stroke:#233239;stroke-width:10;stroke-linecap:butt;stroke-linejoin:miter;stroke-miterlimit:10;stroke-dasharray:none;stroke-opacity:1"
         id="path320" />
      <path
         d="m 420.113,1888.39 c 0,0 125.117,-132 185.66,-147.09"
         style="fill:none;stroke:#233239;stroke-width:10;stroke-linecap:butt;stroke-linejoin:miter;stroke-miterlimit:10;stroke-dasharray:none;stroke-opacity:1"
         id="path322" />
      <path
         d="m 2422.01,1967.58 c 0,0 -96.87,-128.22 -165.48,-286.61 -68.61,-158.4 -149.33,-222.51 -189.7,-252.69"
         style="fill:none;stroke:#233239;stroke-width:10;stroke-linecap:butt;stroke-linejoin:miter;stroke-miterlimit:10;stroke-dasharray:none;stroke-opacity:1"
         id="path324" />
      <path
         d="m 1856.26,1543.93 c -14.24,-21.75 -27.63,-41.75 -39.66,-59.07 -96.87,-139.54 -213.91,-188.57 -213.91,-188.57"
         style="fill:none;stroke:#233239;stroke-width:10;stroke-linecap:butt;stroke-linejoin:miter;stroke-miterlimit:10;stroke-dasharray:none;stroke-opacity:1"
         id="path326" />
      <path
         d="m 2099.13,1937.41 c 0,0 -118.31,-199.44 -215.31,-350.9"
         style="fill:none;stroke:#233239;stroke-width:10;stroke-linecap:butt;stroke-linejoin:miter;stroke-miterlimit:10;stroke-dasharray:none;stroke-opacity:1"
         id="path328" />
      <path
         d="m 1249.35,1292.43 c -31.94,-26.77 -58.36,-43.93 -78.53,-52.71"
         style="fill:none;stroke:#233239;stroke-width:10;stroke-linecap:butt;stroke-linejoin:miter;stroke-miterlimit:10;stroke-dasharray:none;stroke-opacity:1"
         id="path330" />
      <path
         d="m 1719.73,1884.61 c 0,0 -64.58,-94.28 -217.95,-305.47 -75.69,-104.23 -142.53,-181.82 -198.1,-236.84"
         style="fill:none;stroke:#233239;stroke-width:10;stroke-linecap:butt;stroke-linejoin:miter;stroke-miterlimit:10;stroke-dasharray:none;stroke-opacity:1"
         id="path332" />
      <path
         d="m 1242.77,1705.77 c -27.15,-38.7 -62.03,-86.8 -104.24,-141.72 -113.01,-147.08 -250.225,-233.82 -298.667,-260.22"
         style="fill:none;stroke:#233239;stroke-width:10;stroke-linecap:butt;stroke-linejoin:miter;stroke-miterlimit:10;stroke-dasharray:none;stroke-opacity:1"
         id="path334" />
      <path
         d="m 1312.09,1809.19 c 0,0 -15.5,-25.11 -45.45,-68.96"
         style="fill:none;stroke:#233239;stroke-width:10;stroke-linecap:butt;stroke-linejoin:miter;stroke-miterlimit:10;stroke-dasharray:none;stroke-opacity:1"
         id="path336" />
      <path
         d="m 922.816,1683.61 c -37.257,-47.5 -94.41,-120.01 -151.558,-191.22 -96.871,-120.67 -141.27,-135.76 -141.27,-135.76"
         style="fill:none;stroke:#233239;stroke-width:10;stroke-linecap:butt;stroke-linejoin:miter;stroke-miterlimit:10;stroke-dasharray:none;stroke-opacity:1"
         id="path338" />
      <path
         d="m 964.984,1737.53 c 0,0 -8.05,-10.34 -21.828,-27.96"
         style="fill:none;stroke:#233239;stroke-width:10;stroke-linecap:butt;stroke-linejoin:miter;stroke-miterlimit:10;stroke-dasharray:none;stroke-opacity:1"
         id="path340" />
      <path
         d="m 605.777,1696.05 c 0,0 -36.332,-49.03 -92.832,-109.37 -56.507,-60.34 -88.8,-79.2 -88.8,-79.2"
         style="fill:none;stroke:#233239;stroke-width:10;stroke-linecap:butt;stroke-linejoin:miter;stroke-miterlimit:10;stroke-dasharray:none;stroke-opacity:1"
         id="path342" />
      <path
         d="m 823.723,1722.44 c 0,0 -96.871,-94.28 -185.66,-188.56 -88.793,-94.28 -125.122,-105.6 -125.122,-105.6"
         style="fill:none;stroke:#233239;stroke-width:10;stroke-linecap:butt;stroke-linejoin:miter;stroke-miterlimit:10;stroke-dasharray:none;stroke-opacity:1"
         id="path344" />
      <path
         d="m 2518.88,1790.33 c -84.76,-196.11 -153.37,-252.68 -153.37,-252.68"
         style="fill:none;stroke:#233239;stroke-width:10;stroke-linecap:butt;stroke-linejoin:miter;stroke-miterlimit:10;stroke-dasharray:none;stroke-opacity:1"
         id="path346" />
      <path
         d="m 2660.14,1982.67 c 0,0 -47.3,3.15 -120.27,-146.53"
         style="fill:none;stroke:#233239;stroke-width:10;stroke-linecap:butt;stroke-linejoin:miter;stroke-miterlimit:10;stroke-dasharray:none;stroke-opacity:1"
         id="path348" />
      <path
         d="m 3221.6,1797.08 c 0,0 -119.35,163.85 -142.75,238.46 -23.41,74.61 -43.93,325.96 -155.15,507.48 -111.22,181.52 -392.83,417.78 -506.28,463.33 -113.45,45.56 -193.66,69.72 -193.66,69.72 0,0 -384.14,196.93 -613.18,225.31 -229.04,28.38 -529.21,20.11 -605.73,-3.9 -76.518,-24.01 -241.018,-87.56 -307.12,-90.81 -66.109,-3.23 -158.796,10.64 -152.597,-20.83 6.199,-31.47 78.211,-146.52 78.211,-146.52 0,0 61.867,-255.09 146.508,-419.49 84.628,-164.4 275.028,-364.83 648.828,-509.3 373.8,-144.48 794.43,-232.08 884.02,-230.23 89.6,1.86 386.67,25.85 466.52,47.73 79.84,21.87 163.87,61.97 242.18,22.69 32.21,-16.15 41.21,-150.18 127.85,-192.21 86.63,-42.05 93.13,13.31 82.35,38.57"
         style="fill:#75e6a4;fill-opacity:1;fill-rule:nonzero;stroke:none"
         id="path350" />
      <path
         d="m 3221.6,1797.08 c 0,0 -119.35,163.85 -142.75,238.46 -23.41,74.61 -43.93,325.96 -155.15,507.48 -111.22,181.52 -392.83,417.78 -506.28,463.33 -113.45,45.56 -193.66,69.72 -193.66,69.72 0,0 -384.14,196.93 -613.18,225.31 -229.04,28.38 -529.21,20.11 -605.73,-3.9 -76.518,-24.01 -241.018,-87.56 -307.12,-90.81 -66.109,-3.23 -158.796,10.64 -152.597,-20.83 6.199,-31.47 78.211,-146.52 78.211,-146.52 0,0 61.867,-255.09 146.508,-419.49 84.628,-164.4 275.028,-364.83 648.828,-509.3 373.8,-144.48 794.43,-232.08 884.02,-230.23 89.6,1.86 386.67,25.85 466.52,47.73 79.84,21.87 163.87,61.97 242.18,22.69 32.21,-16.15 41.21,-150.18 127.85,-192.21 86.63,-42.05 93.13,13.31 82.35,38.57 z"
         style="fill:none;stroke:#233239;stroke-width:10;stroke-linecap:butt;stroke-linejoin:miter;stroke-miterlimit:10;stroke-dasharray:none;stroke-opacity:1"
         id="path352" />
      <path
         d="m 661.313,3170.58 c 0,0 459.097,-268.09 877.587,-418.43 418.48,-150.34 776.48,-302.95 1033.06,-426.93 256.58,-123.96 455.56,-279.54 489.6,-319.77"
         style="fill:none;stroke:#233239;stroke-width:10;stroke-linecap:butt;stroke-linejoin:miter;stroke-miterlimit:10;stroke-dasharray:none;stroke-opacity:1"
         id="path354" />
      <path
         d="m 3003.14,1992.69 c 0,0 -153.25,144.45 -390.71,274.42 -237.45,129.98 -679.79,327.74 -844.57,383.44"
         style="fill:none;stroke:#233239;stroke-width:10;stroke-linecap:butt;stroke-linejoin:miter;stroke-miterlimit:10;stroke-dasharray:none;stroke-opacity:1"
         id="path356" />
      <path
         d="m 2470.45,2706.54 c 52.93,-156.98 101.51,-381.32 101.51,-381.32"
         style="fill:none;stroke:#233239;stroke-width:10;stroke-linecap:butt;stroke-linejoin:miter;stroke-miterlimit:10;stroke-dasharray:none;stroke-opacity:1"
         id="path358" />
      <path
         d="m 2312.02,2996.35 c 0,0 72.67,-74.27 134.04,-223.69 4.29,-10.45 8.6,-21.63 12.9,-33.38"
         style="fill:none;stroke:#233239;stroke-width:10;stroke-linecap:butt;stroke-linejoin:miter;stroke-miterlimit:10;stroke-dasharray:none;stroke-opacity:1"
         id="path360" />
      <path
         d="m 2800.43,2415.05 c 21.13,-114.96 49.19,-228.03 63.42,-245.67"
         style="fill:none;stroke:#233239;stroke-width:10;stroke-linecap:butt;stroke-linejoin:miter;stroke-miterlimit:10;stroke-dasharray:none;stroke-opacity:1"
         id="path362" />
      <path
         d="m 2677.84,2774.58 c 0,0 96.22,-208.5 117.71,-332.25"
         style="fill:none;stroke:#233239;stroke-width:10;stroke-linecap:butt;stroke-linejoin:miter;stroke-miterlimit:10;stroke-dasharray:none;stroke-opacity:1"
         id="path364" />
      <path
         d="m 2031.28,3080.91 c 0,0 105.46,-122.86 146.23,-300.23 40.75,-177.37 69.33,-278.2 69.33,-278.2"
         style="fill:none;stroke:#233239;stroke-width:10;stroke-linecap:butt;stroke-linejoin:miter;stroke-miterlimit:10;stroke-dasharray:none;stroke-opacity:1"
         id="path366" />
      <path
         d="m 1915.45,2691.62 c 4.76,-30.78 8.48,-51.67 12.25,-56.96"
         style="fill:none;stroke:#233239;stroke-width:10;stroke-linecap:butt;stroke-linejoin:miter;stroke-miterlimit:10;stroke-dasharray:none;stroke-opacity:1"
         id="path368" />
      <path
         d="m 1769.53,3231.11 c 0,0 40.84,-104.15 87.66,-253.36 26.81,-85.46 42.09,-180.03 52.52,-248.41"
         style="fill:none;stroke:#233239;stroke-width:10;stroke-linecap:butt;stroke-linejoin:miter;stroke-miterlimit:10;stroke-dasharray:none;stroke-opacity:1"
         id="path370" />
      <path
         d="M 1424.92,2922.55 C 1453.36,2865 1476.19,2820 1476.19,2820"
         style="fill:none;stroke:#233239;stroke-width:10;stroke-linecap:butt;stroke-linejoin:miter;stroke-miterlimit:10;stroke-dasharray:none;stroke-opacity:1"
         id="path372" />
      <path
         d="m 1355.91,3268.4 c 0,0 4.34,-213.47 43.33,-293.52 2.62,-5.37 5.23,-10.71 7.82,-16"
         style="fill:none;stroke:#233239;stroke-width:10;stroke-linecap:butt;stroke-linejoin:miter;stroke-miterlimit:10;stroke-dasharray:none;stroke-opacity:1"
         id="path374" />
      <path
         d="m 1569.59,3259.07 c 0,0 63.95,-265.58 87.94,-372.62 24,-107.04 48.07,-140.87 48.07,-140.87"
         style="fill:none;stroke:#233239;stroke-width:10;stroke-linecap:butt;stroke-linejoin:miter;stroke-miterlimit:10;stroke-dasharray:none;stroke-opacity:1"
         id="path376" />
      <path
         d="m 1154.86,3228.39 c 0,0 19.7,-232.51 64.31,-311.61"
         style="fill:none;stroke:#233239;stroke-width:10;stroke-linecap:butt;stroke-linejoin:miter;stroke-miterlimit:10;stroke-dasharray:none;stroke-opacity:1"
         id="path378" />
      <path
         d="m 932.242,3238.89 c 0,0 22.879,-175.02 63.578,-219.55"
         style="fill:none;stroke:#233239;stroke-width:10;stroke-linecap:butt;stroke-linejoin:miter;stroke-miterlimit:10;stroke-dasharray:none;stroke-opacity:1"
         id="path380" />
      <path
         d="m 2628.83,2242.82 c 0,0 -157.62,-54.24 -310.3,-148.3 -152.68,-94.05 -258.08,-104.05 -309.63,-107.5"
         style="fill:none;stroke:#233239;stroke-width:10;stroke-linecap:butt;stroke-linejoin:miter;stroke-miterlimit:10;stroke-dasharray:none;stroke-opacity:1"
         id="path382" />
      <path
         d="m 1905.71,2193.88 c -24.93,-10.35 -48.11,-19.73 -68.53,-27.62 -164.49,-63.55 -290.64,-41.87 -290.64,-41.87"
         style="fill:none;stroke:#233239;stroke-width:10;stroke-linecap:butt;stroke-linejoin:miter;stroke-miterlimit:10;stroke-dasharray:none;stroke-opacity:1"
         id="path384" />
      <path
         d="m 2344.63,2389.15 c 0,0 -218.52,-101.52 -390.36,-174.81"
         style="fill:none;stroke:#233239;stroke-width:10;stroke-linecap:butt;stroke-linejoin:miter;stroke-miterlimit:10;stroke-dasharray:none;stroke-opacity:1"
         id="path386" />
      <path
         d="m 1253.23,2308.52 c -42.56,-5.11 -74.73,-5.22 -96.67,-1.77"
         style="fill:none;stroke:#233239;stroke-width:10;stroke-linecap:butt;stroke-linejoin:miter;stroke-miterlimit:10;stroke-dasharray:none;stroke-opacity:1"
         id="path388" />
      <path
         d="m 2000.14,2546.8 c 0,0 -110.41,-43.4 -364.95,-136 -125.62,-45.7 -227.76,-74.16 -306.94,-90.02"
         style="fill:none;stroke:#233239;stroke-width:10;stroke-linecap:butt;stroke-linejoin:miter;stroke-miterlimit:10;stroke-dasharray:none;stroke-opacity:1"
         id="path390" />
      <path
         d="m 1498.79,2652.38 c -45.85,-17.47 -103.78,-38.58 -171.88,-61.44 -182.37,-61.2 -348.043,-59.88 -403.949,-55.94"
         style="fill:none;stroke:#233239;stroke-width:10;stroke-linecap:butt;stroke-linejoin:miter;stroke-miterlimit:10;stroke-dasharray:none;stroke-opacity:1"
         id="path392" />
      <path
         d="m 1618.67,2700.8 c 0,0 -28.01,-12.46 -79.3,-32.69"
         style="fill:none;stroke:#233239;stroke-width:10;stroke-linecap:butt;stroke-linejoin:miter;stroke-miterlimit:10;stroke-dasharray:none;stroke-opacity:1"
         id="path394" />
      <path
         d="M 1221.86,2803.77 C 1162.34,2784.41 1071.25,2755 980.949,2726.66 827.898,2678.63 782.191,2689.75 782.191,2689.75"
         style="fill:none;stroke:#233239;stroke-width:10;stroke-linecap:butt;stroke-linejoin:miter;stroke-miterlimit:10;stroke-dasharray:none;stroke-opacity:1"
         id="path396" />
      <path
         d="m 1289.32,2825.81 c 0,0 -12.9,-4.25 -34.94,-11.45"
         style="fill:none;stroke:#233239;stroke-width:10;stroke-linecap:butt;stroke-linejoin:miter;stroke-miterlimit:10;stroke-dasharray:none;stroke-opacity:1"
         id="path398" />
      <path
         d="m 968.34,2982.08 c 0,0 -59.68,-21.11 -142.852,-40.84 -83.168,-19.74 -121.207,-18.15 -121.207,-18.15"
         style="fill:none;stroke:#233239;stroke-width:10;stroke-linecap:butt;stroke-linejoin:miter;stroke-miterlimit:10;stroke-dasharray:none;stroke-opacity:1"
         id="path400" />
      <path
         d="m 1163.84,2888.28 c 0,0 -137.01,-26.28 -267.375,-56.85 -130.371,-30.57 -167.152,-20.63 -167.152,-20.63"
         style="fill:none;stroke:#233239;stroke-width:10;stroke-linecap:butt;stroke-linejoin:miter;stroke-miterlimit:10;stroke-dasharray:none;stroke-opacity:1"
         id="path402" />
      <path
         d="M 2600.97,2045.51 C 2412.1,1928.95 2321.25,1918.74 2321.25,1918.74"
         style="fill:none;stroke:#233239;stroke-width:10;stroke-linecap:butt;stroke-linejoin:miter;stroke-miterlimit:10;stroke-dasharray:none;stroke-opacity:1"
         id="path404" />
      <path
         d="m 2834.08,2128.99 c 0,0 -37.04,27.69 -188.03,-56.88"
         style="fill:none;stroke:#233239;stroke-width:10;stroke-linecap:butt;stroke-linejoin:miter;stroke-miterlimit:10;stroke-dasharray:none;stroke-opacity:1"
         id="path406" />
      <path
         d="m 2135.38,1725.09 c 0,0 -122.31,-56.97 -170.78,-153.9 -48.47,-96.93 -38.64,-270.45 72.67,-364.18 111.3,-93.72 318.16,-188.8 594.05,-180.42 275.89,8.39 455.38,199.04 483.75,323.55 28.39,124.52 -31.75,263.93 -194.19,361.8 -162.44,97.87 -279.31,87.91 -444.5,87.52 -165.2,-0.4 -341,-74.37 -341,-74.37"
         style="fill:#737373;fill-opacity:1;fill-rule:nonzero;stroke:none"
         id="path408" />
      <path
         d="m 2135.38,1725.09 c 0,0 -122.31,-56.97 -170.78,-153.9 -48.47,-96.93 -38.64,-270.45 72.67,-364.18 111.3,-93.72 318.16,-188.8 594.05,-180.42 275.89,8.39 455.38,199.04 483.75,323.55 28.39,124.52 -31.75,263.93 -194.19,361.8 -162.44,97.87 -279.31,87.91 -444.5,87.52 -165.2,-0.4 -341,-74.37 -341,-74.37 z"
         style="fill:none;stroke:#233239;stroke-width:10;stroke-linecap:butt;stroke-linejoin:miter;stroke-miterlimit:10;stroke-dasharray:none;stroke-opacity:1"
         id="path410" />
      <path
         d="m 712.086,1586.65 c 0,0 -113.039,-73.66 -147.34,-176.46 -34.312,-102.81 -0.082,-273.2 123.34,-350.28 123.418,-77.07 341.624,-142 613.574,-94.75 271.95,47.24 422.73,261.31 433.25,388.59 10.52,127.27 -68.7,256.82 -243.34,330.76 -174.62,73.96 -288.91,47.61 -452.41,23.9 C 875.676,1684.7 712.086,1586.65 712.086,1586.65"
         style="fill:#737373;fill-opacity:1;fill-rule:nonzero;stroke:none"
         id="path412" />
      <path
         d="m 712.086,1586.65 c 0,0 -113.039,-73.66 -147.34,-176.46 -34.312,-102.81 -0.082,-273.2 123.34,-350.28 123.418,-77.07 341.624,-142 613.574,-94.75 271.95,47.24 422.73,261.31 433.25,388.59 10.52,127.27 -68.7,256.82 -243.34,330.76 -174.62,73.96 -288.91,47.61 -452.41,23.9 C 875.676,1684.7 712.086,1586.65 712.086,1586.65 Z"
         style="fill:none;stroke:#233239;stroke-width:10;stroke-linecap:butt;stroke-linejoin:miter;stroke-miterlimit:10;stroke-dasharray:none;stroke-opacity:1"
         id="path414" />
      <path
         d="m 4226.26,1611.88 c 0,0 72.46,-21.15 128.45,-101.93 55.98,-80.79 65.57,-185.34 35.98,-269.82 -29.58,-84.49 -177.91,-236.72 -314.83,-306.544 -136.93,-69.832 -304.3,-78.039 -439.1,-6.34 -134.81,71.707 -171.05,237.074 -181.79,261.024 -10.74,23.94 -44.4,182.86 40.23,322.82 84.61,139.98 167.57,225.09 302.33,265.8 134.76,40.7 262.08,17.9 326.21,-42.91 64.13,-60.8 74.19,-116.16 74.19,-116.16"
         style="fill:#8c8c8c;fill-opacity:1;fill-rule:nonzero;stroke:none"
         id="path416" />
      <path
         d="m 3451.5,1404.14 24.79,71.22 c 3.55,7.71 7.37,15.39 11.59,23.04 -8.73,-39.95 -20.89,-108.86 -17.17,-169.49 5.67,-92 25.42,-121.27 134.63,-233.36 109.21,-112.089 144.79,-107.339 197.55,-124.96 52.75,-17.641 183.74,-10.16 318.61,44.96 134.86,55.11 203.95,158.2 203.95,158.2 l 77.35,113.9 c -2.75,-16.32 -6.76,-32.26 -12.1,-47.52 -29.59,-84.5 -177.91,-236.72 -314.84,-306.548 -136.93,-69.82 -304.3,-78.031 -439.11,-6.332 -134.79,71.699 -171.04,237.07 -181.78,261.02 -8.04,17.91 -28.88,111.34 -3.47,215.87"
         style="fill:#616161;fill-opacity:1;fill-rule:nonzero;stroke:none"
         id="path418" />
      <path
         d="m 4155,1601.21 c 0,0 -21.87,8.54 -87.03,-76.37 -65.17,-84.9 -172.78,-137.22 -226.83,-206.72 -54.04,-69.49 -102.01,-138.29 -119.69,-166.12 -17.68,-27.84 -49.28,-46.83 -64.28,-71.29 -14.99,-24.45 -24.83,-61.83 -33.87,-57.96 -9.04,3.88 35.95,77.24 34.65,99.2 -1.3,21.97 -22.79,69.87 -12.75,89.46 10.02,19.58 53.04,46.03 47.08,55.17 -5.97,9.14 -102.49,47.17 -59.05,38.04 43.43,-9.12 87.87,-32.27 99.39,-14.96 11.52,17.29 19.86,56.95 19.86,56.95 0,0 -14.32,6.95 7.74,18.1 22.07,11.14 50.86,54.38 50.86,54.38 0,0 73.03,75.36 121.81,110.47 48.79,35.11 71.64,50.02 96.69,56.59 25.04,6.57 21.96,1.3 45.21,18.11 23.25,16.8 14.69,32.4 34.28,22.37 19.58,-10.03 78.42,7.19 45.93,-25.42"
         style="fill:#233239;fill-opacity:1;fill-rule:nonzero;stroke:none"
         id="path420" />
      <path
         d="m 4155,1601.21 c 0,0 -21.87,8.54 -87.03,-76.37 -65.17,-84.9 -172.78,-137.22 -226.83,-206.72 -54.04,-69.49 -102.01,-138.29 -119.69,-166.12 -17.68,-27.84 -49.28,-46.83 -64.28,-71.29 -14.99,-24.45 -24.83,-61.83 -33.87,-57.96 -9.04,3.88 35.95,77.24 34.65,99.2 -1.3,21.97 -22.79,69.87 -12.75,89.46 10.02,19.58 53.04,46.03 47.08,55.17 -5.97,9.14 -102.49,47.17 -59.05,38.04 43.43,-9.12 87.87,-32.27 99.39,-14.96 11.52,17.29 19.86,56.95 19.86,56.95 0,0 -14.32,6.95 7.74,18.1 22.07,11.14 50.86,54.38 50.86,54.38 0,0 73.03,75.36 121.81,110.47 48.79,35.11 71.64,50.02 96.69,56.59 25.04,6.57 21.96,1.3 45.21,18.11 23.25,16.8 14.69,32.4 34.28,22.37 19.58,-10.03 78.42,7.19 45.93,-25.42 z"
         style="fill:none;stroke:#233239;stroke-width:10;stroke-linecap:butt;stroke-linejoin:miter;stroke-miterlimit:10;stroke-dasharray:none;stroke-opacity:1"
         id="path422" />
      <path
         d="m 4185.94,1044.55 c 0,0 -93.12,-39.6 -167.95,-67.257 -74.82,-27.66 -216.16,-5.852 -267.85,10.918"
         style="fill:none;stroke:#233239;stroke-width:10;stroke-linecap:butt;stroke-linejoin:miter;stroke-miterlimit:10;stroke-dasharray:none;stroke-opacity:1"
         id="path424" />
      <path
         d="m 3704.51,1005.69 c 0,0 -42.55,22.74 -53.39,36.85"
         style="fill:none;stroke:#233239;stroke-width:10;stroke-linecap:butt;stroke-linejoin:miter;stroke-miterlimit:10;stroke-dasharray:none;stroke-opacity:1"
         id="path426" />
      <path
         d="m 3617.41,1079.2 c 0,0 -59.26,55.84 -86.1,96.97 -26.86,41.14 -51.71,54.25 -60.6,152.74 -8.88,98.49 18.44,144.02 18.44,144.02"
         style="fill:none;stroke:#233239;stroke-width:10;stroke-linecap:butt;stroke-linejoin:miter;stroke-miterlimit:10;stroke-dasharray:none;stroke-opacity:1"
         id="path428" />
      <path
         d="m 4226.26,1611.88 c 0,0 72.46,-21.15 128.45,-101.93 55.98,-80.79 65.57,-185.34 35.98,-269.82 -29.58,-84.49 -177.91,-236.72 -314.83,-306.544 -136.93,-69.832 -304.3,-78.039 -439.1,-6.34 -134.81,71.707 -171.05,237.074 -181.79,261.024 -10.74,23.94 -44.4,182.86 40.23,322.82 84.61,139.98 167.57,225.09 302.33,265.8 134.76,40.7 262.08,17.9 326.21,-42.91 64.13,-60.8 74.19,-116.16 74.19,-116.16 z"
         style="fill:none;stroke:#233239;stroke-width:10;stroke-linecap:butt;stroke-linejoin:miter;stroke-miterlimit:10;stroke-dasharray:none;stroke-opacity:1"
         id="path430" />
      <path
         d="m 3918.25,1031.22 c -1.02,-4.85 6.68,-10.58 17.2,-12.79 10.51,-2.21 19.86,-0.06 20.89,4.79 1.01,4.85 -6.68,10.58 -17.2,12.79 -10.52,2.2 -19.86,0.06 -20.89,-4.79 z"
         style="fill:none;stroke:#233239;stroke-width:10;stroke-linecap:butt;stroke-linejoin:miter;stroke-miterlimit:10;stroke-dasharray:none;stroke-opacity:1"
         id="path432" />
      <path
         d="m 4022.49,1731.14 c -1.02,-4.85 6.68,-10.59 17.2,-12.79 10.51,-2.21 19.86,-0.07 20.89,4.78 1.01,4.86 -6.68,10.59 -17.2,12.8 -10.52,2.2 -19.86,0.06 -20.89,-4.79 z"
         style="fill:none;stroke:#233239;stroke-width:10;stroke-linecap:butt;stroke-linejoin:miter;stroke-miterlimit:10;stroke-dasharray:none;stroke-opacity:1"
         id="path434" />
      <path
         d="m 3918,1758.1 c -2.17,-10.3 9.21,-21.41 25.4,-24.8 16.19,-3.41 31.06,2.18 33.23,12.48 2.16,10.29 -9.21,21.4 -25.4,24.79 -16.19,3.41 -31.06,-2.18 -33.23,-12.47 z"
         style="fill:none;stroke:#233239;stroke-width:10;stroke-linecap:butt;stroke-linejoin:miter;stroke-miterlimit:10;stroke-dasharray:none;stroke-opacity:1"
         id="path436" />
      <path
         d="m 2714.36,2010.87 c 0,0 -133.82,-17.27 -209.36,-94.96 -75.54,-77.71 -118.71,-246.06 -41.02,-369.09 77.7,-123.03 246.07,-276.27 511.54,-351.82 265.48,-75.54 494.28,51.81 559.03,161.89 64.75,110.07 49.63,261.16 -75.55,403.61 -125.18,142.46 -239.57,168.36 -397.14,218 -157.56,49.65 -347.5,32.37 -347.5,32.37"
         style="fill:#8c8c8c;fill-opacity:1;fill-rule:nonzero;stroke:none"
         id="path438" />
      <path
         d="m 3534.55,1356.89 c 32.75,55.68 45.03,121.86 33.01,192.09 -48.36,-45.68 -187.33,-135.3 -531.27,-131.46 -262.78,2.93 -479.17,177.84 -610.98,318.41 -7.63,-63.64 2.21,-131.36 38.68,-189.11 77.7,-123.03 246.06,-276.27 511.54,-351.82 265.48,-75.54 494.26,51.8 559.02,161.89"
         style="fill:#616161;fill-opacity:1;fill-rule:nonzero;stroke:none"
         id="path440" />
      <path
         d="m 2714.36,2010.87 c 0,0 -133.82,-17.27 -209.36,-94.96 -75.54,-77.71 -118.71,-246.06 -41.02,-369.09 77.7,-123.03 246.07,-276.27 511.54,-351.82 265.48,-75.54 494.28,51.81 559.03,161.89 64.75,110.07 49.63,261.16 -75.55,403.61 -125.18,142.46 -239.57,168.36 -397.14,218 -157.56,49.65 -347.5,32.37 -347.5,32.37 z"
         style="fill:none;stroke:#233239;stroke-width:10;stroke-linecap:butt;stroke-linejoin:miter;stroke-miterlimit:10;stroke-dasharray:none;stroke-opacity:1"
         id="path442" />
      <path
         d="m 2728.85,1948.82 c 0,-6.62 -8.04,-11.97 -17.96,-11.97 -9.92,0 -17.96,5.35 -17.96,11.97 0,6.61 8.04,11.96 17.96,11.96 9.92,0 17.96,-5.35 17.96,-11.96 z"
         style="fill:none;stroke:#233239;stroke-width:10;stroke-linecap:butt;stroke-linejoin:miter;stroke-miterlimit:10;stroke-dasharray:none;stroke-opacity:1"
         id="path444" />
      <path
         d="m 2872.52,1907.54 c 0,-8.61 -11.62,-15.6 -25.96,-15.6 -14.33,0 -25.95,6.99 -25.95,15.6 0,8.62 11.62,15.61 25.95,15.61 14.34,0 25.96,-6.99 25.96,-15.61 z"
         style="fill:none;stroke:#233239;stroke-width:10;stroke-linecap:butt;stroke-linejoin:miter;stroke-miterlimit:10;stroke-dasharray:none;stroke-opacity:1"
         id="path446" />
      <path
         d="m 2767.75,1876.97 c 0,-6.61 -8.04,-11.97 -17.96,-11.97 -9.91,0 -17.95,5.36 -17.95,11.97 0,6.62 8.04,11.97 17.95,11.97 9.92,0 17.96,-5.35 17.96,-11.97 z"
         style="fill:none;stroke:#233239;stroke-width:10;stroke-linecap:butt;stroke-linejoin:miter;stroke-miterlimit:10;stroke-dasharray:none;stroke-opacity:1"
         id="path448" />
      <path
         d="m 3801.28,1078.68 c 0,0 -34.74,38.59 -194.91,98.42 -160.17,59.82 -349.29,84.91 -401.39,79.12 -52.11,-5.79 -84.91,5.79 -142.8,-11.57 -57.9,-17.38 -82.99,-21.23 -90.7,-30.88 -7.72,-9.65 -28.95,-28.95 -30.88,-34.74 -1.93,-5.79 -90.7,-25.09 -92.63,-187.186 -1.93,-162.102 92.63,-275.953 272.1,-360.871 179.47,-84.91 268.24,-129.289 463.14,-123.5 194.92,5.789 287.54,106.129 347.37,187.187 59.82,81.043 44.38,218.063 0,281.742 -44.39,63.688 -117.72,88.768 -117.72,88.768"
         style="fill:#8c8c8c;fill-opacity:1;fill-rule:nonzero;stroke:none"
         id="path450" />
      <path
         d="m 3950.41,843.184 c -5.57,-74.25 -55.68,-131.789 -98.38,-161.481 -42.68,-29.699 -154.06,-51.98 -181.9,-53.828 -27.84,-1.859 -220.88,7.418 -306.27,22.27 -85.38,14.847 -174.32,61.878 -246.87,90.949 -72.55,29.07 -165.2,98.379 -220.89,180.051 -37.64,55.218 -37.11,127.375 -32.81,168.335 -8.78,-24.82 -14.83,-56.64 -15.32,-97.636 -1.94,-162.102 92.63,-275.949 272.1,-360.871 179.46,-84.91 268.24,-129.289 463.14,-123.5 194.91,5.793 287.54,106.132 347.37,187.179 45.76,62.012 47.4,156.653 25.81,226.282 -1.56,-19.731 -3.6,-45.989 -5.98,-77.75"
         style="fill:#616161;fill-opacity:1;fill-rule:nonzero;stroke:none"
         id="path452" />
      <path
         d="m 2986.91,1142.36 c 0,0 82.98,-59.82 96.48,-69.47 13.52,-9.65 65.63,-30.87 110,-52.1 44.4,-21.227 148.61,-59.825 260.52,-94.556 111.95,-34.742 245.09,-86.839 268.24,-94.562 23.16,-7.719 52.1,-27.02 55.98,-54.039 3.85,-27.008 -61.77,-104.211 -34.75,-110 27.02,-5.781 61.75,42.461 67.55,61.762 5.78,19.296 -5.8,38.589 11.59,44.386 17.36,5.793 55.94,-13.508 55.94,0 0,13.5 -50.16,42.453 -50.16,42.453 0,0 -61.76,40.52 -117.73,65.61 -55.94,25.09 -81.03,19.301 -148.59,55.969 -67.53,36.66 -125.43,77.187 -183.32,102.267 -57.89,25.09 -125.44,34.74 -133.16,36.67 -7.71,1.93 28.95,-30.87 -30.87,17.38 -59.83,48.23 -133.16,48.23 -152.45,52.09 -19.3,3.86 -125.45,46.32 -75.27,-3.86"
         style="fill:#233239;fill-opacity:1;fill-rule:nonzero;stroke:none"
         id="path454" />
      <path
         d="m 2986.91,1142.36 c 0,0 82.98,-59.82 96.48,-69.47 13.52,-9.65 65.63,-30.87 110,-52.1 44.4,-21.227 148.61,-59.825 260.52,-94.556 111.95,-34.742 245.09,-86.839 268.24,-94.562 23.16,-7.719 52.1,-27.02 55.98,-54.039 3.85,-27.008 -61.77,-104.211 -34.75,-110 27.02,-5.781 61.75,42.461 67.55,61.762 5.78,19.296 -5.8,38.589 11.59,44.386 17.36,5.793 55.94,-13.508 55.94,0 0,13.5 -50.16,42.453 -50.16,42.453 0,0 -61.76,40.52 -117.73,65.61 -55.94,25.09 -81.03,19.301 -148.59,55.969 -67.53,36.66 -125.43,77.187 -183.32,102.267 -57.89,25.09 -125.44,34.74 -133.16,36.67 -7.71,1.93 28.95,-30.87 -30.87,17.38 -59.83,48.23 -133.16,48.23 -152.45,52.09 -19.3,3.86 -125.45,46.32 -75.27,-3.86 z"
         style="fill:none;stroke:#233239;stroke-width:10;stroke-linecap:butt;stroke-linejoin:miter;stroke-miterlimit:10;stroke-dasharray:none;stroke-opacity:1"
         id="path456" />
      <path
         d="m 2867.27,1005.35 c 0,0 -19.31,-81.049 92.62,-160.178 C 3071.82,766.051 3122,731.32 3189.55,712.023"
         style="fill:none;stroke:#233239;stroke-width:10;stroke-linecap:butt;stroke-linejoin:miter;stroke-miterlimit:10;stroke-dasharray:none;stroke-opacity:1"
         id="path458" />
      <path
         d="m 3226.2,698.516 c 0,0 113.86,-48.239 239.3,-63.68 125.44,-15.441 279.81,1.93 279.81,1.93"
         style="fill:none;stroke:#233239;stroke-width:10;stroke-linecap:butt;stroke-linejoin:miter;stroke-miterlimit:10;stroke-dasharray:none;stroke-opacity:1"
         id="path460" />
      <path
         d="m 3812.86,663.777 c 0,0 32.8,11.582 63.68,36.672 30.87,25.09 57.89,65.61 65.61,100.34"
         style="fill:none;stroke:#233239;stroke-width:10;stroke-linecap:butt;stroke-linejoin:miter;stroke-miterlimit:10;stroke-dasharray:none;stroke-opacity:1"
         id="path462" />
      <path
         d="m 3801.28,1078.68 c 0,0 -34.74,38.59 -194.91,98.42 -160.17,59.82 -349.29,84.91 -401.39,79.12 -52.11,-5.79 -84.91,5.79 -142.8,-11.57 -57.9,-17.38 -82.99,-21.23 -90.7,-30.88 -7.72,-9.65 -28.95,-28.95 -30.88,-34.74 -1.93,-5.79 -90.7,-25.09 -92.63,-187.186 -1.93,-162.102 92.63,-275.953 272.1,-360.871 179.47,-84.91 268.24,-129.289 463.14,-123.5 194.92,5.789 287.54,106.129 347.37,187.187 59.82,81.043 44.38,218.063 0,281.742 -44.39,63.688 -117.72,88.768 -117.72,88.768 z"
         style="fill:none;stroke:#233239;stroke-width:10;stroke-linecap:butt;stroke-linejoin:miter;stroke-miterlimit:10;stroke-dasharray:none;stroke-opacity:1"
         id="path464" />
      <path
         d="m 3144.12,831.27 c 0,-8.258 -10.06,-14.969 -22.45,-14.969 -12.4,0 -22.45,6.711 -22.45,14.969 0,8.261 10.05,14.96 22.45,14.96 12.39,0 22.45,-6.699 22.45,-14.96 z"
         style="fill:none;stroke:#233239;stroke-width:10;stroke-linecap:butt;stroke-linejoin:miter;stroke-miterlimit:10;stroke-dasharray:none;stroke-opacity:1"
         id="path466" />
      <path
         d="m 3227.93,768.406 c 0,-4.957 -6.7,-8.968 -14.97,-8.968 -8.26,0 -14.96,4.011 -14.96,8.968 0,4.961 6.7,8.981 14.96,8.981 8.27,0 14.97,-4.02 14.97,-8.981 z"
         style="fill:none;stroke:#233239;stroke-width:10;stroke-linecap:butt;stroke-linejoin:miter;stroke-miterlimit:10;stroke-dasharray:none;stroke-opacity:1"
         id="path468" />
      <path
         d="m 3446.44,798.34 c 0,-3.301 -4.71,-5.988 -10.48,-5.988 -5.8,0 -10.48,2.687 -10.48,5.988 0,3.308 4.68,5.988 10.48,5.988 5.77,0 10.48,-2.68 10.48,-5.988 z"
         style="fill:none;stroke:#233239;stroke-width:10;stroke-linecap:butt;stroke-linejoin:miter;stroke-miterlimit:10;stroke-dasharray:none;stroke-opacity:1"
         id="path470" />
      <path
         d="m 3862.49,995.898 c 0,-4.96 -8.71,-8.98 -19.46,-8.98 -10.75,0 -19.46,4.02 -19.46,8.98 0,4.952 8.71,8.972 19.46,8.972 10.75,0 19.46,-4.02 19.46,-8.972 z"
         style="fill:none;stroke:#233239;stroke-width:10;stroke-linecap:butt;stroke-linejoin:miter;stroke-miterlimit:10;stroke-dasharray:none;stroke-opacity:1"
         id="path472" />
      <path
         d="m 1971.41,1367.52 c -4.43,5.57 -9.48,10.47 -14.95,15.03 -37.76,31.57 -191.73,147.3 -402.86,132.9 -215.83,-14.73 -446.17,-89.23 -507.96,-233.38 -61.765,-144.15 12,-345.59 142.14,-412.48 244.45,-125.649 400.14,-57.711 571.74,7.5 300.96,114.371 312,364.32 211.89,490.43"
         style="fill:#8c8c8c;fill-opacity:1;fill-rule:nonzero;stroke:none"
         id="path474" />
      <path
         d="m 1036.7,1193.11 c 0,0 37.11,-89.11 57.53,-113.23 20.42,-24.13 107.66,-77.97 128.08,-89.095 20.42,-11.148 133.16,-52.012 156.6,-53.851 23.45,-1.84 194.22,29.711 194.22,29.711 0,0 111.37,12.992 137.35,24.14 25.99,11.125 103.95,42.695 103.95,42.695 0,0 49.66,25.84 75.87,48.18 26.22,22.34 84.92,81.07 84.92,81.07 0,0 -12.29,-108.84 -42,-168.234 -29.7,-59.402 -204.18,-129.93 -217.17,-135.5 -12.99,-5.57 -141.07,-57.543 -246.87,-55.68 -105.8,1.848 -223.13,26.75 -281.41,66.27 -58.27,39.527 -126.95,126.758 -141.8,169.464 -14.84,42.68 -9.27,154.06 -9.27,154.06"
         style="fill:#616161;fill-opacity:1;fill-rule:nonzero;stroke:none"
         id="path476" />
      <path
         d="m 1128.38,1166.58 c 0,0 89.1,0 116.51,18.27 27.42,18.28 70.82,130.23 162.21,155.35 91.38,25.13 178.19,20.56 260.44,41.13 82.24,20.55 139.35,52.54 137.07,25.12 -2.28,-27.41 22.84,11.43 -2.28,-27.41 -25.14,-38.84 -41.13,-34.27 -201.04,-77.67 -159.93,-43.41 -198.76,-66.25 -278.72,-116.52 -79.96,-50.25 -77.68,-79.96 -132.51,-82.24 -54.82,-2.29 -134.79,57.11 -127.93,86.81 6.86,29.7 45.69,-2.28 66.25,-22.84"
         style="fill:#233239;fill-opacity:1;fill-rule:nonzero;stroke:none"
         id="path478" />
      <path
         d="m 1128.38,1166.58 c 0,0 89.1,0 116.51,18.27 27.42,18.28 70.82,130.23 162.21,155.35 91.38,25.13 178.19,20.56 260.44,41.13 82.24,20.55 139.35,52.54 137.07,25.12 -2.28,-27.41 22.84,11.43 -2.28,-27.41 -25.14,-38.84 -41.13,-34.27 -201.04,-77.67 -159.93,-43.41 -198.76,-66.25 -278.72,-116.52 -79.96,-50.25 -77.68,-79.96 -132.51,-82.24 -54.82,-2.29 -134.79,57.11 -127.93,86.81 6.86,29.7 45.69,-2.28 66.25,-22.84 z"
         style="fill:none;stroke:#233239;stroke-width:10;stroke-linecap:butt;stroke-linejoin:miter;stroke-miterlimit:10;stroke-dasharray:none;stroke-opacity:1"
         id="path480" />
      <path
         d="m 1064.36,1131.85 c 0,0 36.68,-82.98 94.57,-108.07 57.89,-25.085 113.84,-81.053 219.98,-86.842 106.14,-5.793 200.7,36.667 252.8,44.378 52.11,7.731 69.49,3.86 94.56,17.379 25.09,13.505 44.39,28.945 57.89,36.665"
         style="fill:none;stroke:#233239;stroke-width:10;stroke-linecap:butt;stroke-linejoin:miter;stroke-miterlimit:10;stroke-dasharray:none;stroke-opacity:1"
         id="path482" />
      <path
         d="m 1826.63,1062.37 c 0,0 38.58,-1.93 63.67,19.3 25.09,21.23 44.4,48.24 44.4,48.24 l 40.51,32.81 30.89,36.66"
         style="fill:none;stroke:#233239;stroke-width:10;stroke-linecap:butt;stroke-linejoin:miter;stroke-miterlimit:10;stroke-dasharray:none;stroke-opacity:1"
         id="path484" />
      <path
         d="m 1971.41,1367.52 c -4.43,5.57 -9.48,10.47 -14.95,15.03 -37.76,31.57 -191.73,147.3 -402.86,132.9 -215.83,-14.73 -446.17,-89.23 -507.96,-233.38 -61.765,-144.15 12,-345.59 142.14,-412.48 244.45,-125.649 400.14,-57.711 571.74,7.5 300.96,114.371 312,364.32 211.89,490.43 z"
         style="fill:none;stroke:#233239;stroke-width:10;stroke-linecap:butt;stroke-linejoin:miter;stroke-miterlimit:10;stroke-dasharray:none;stroke-opacity:1"
         id="path486" />
      <path
         d="m 1656.54,1032.14 c 0,-8.26 -10.05,-14.96 -22.45,-14.96 -12.4,0 -22.45,6.7 -22.45,14.96 0,8.27 10.05,14.97 22.45,14.97 12.4,0 22.45,-6.7 22.45,-14.97 z"
         style="fill:none;stroke:#233239;stroke-width:10;stroke-linecap:butt;stroke-linejoin:miter;stroke-miterlimit:10;stroke-dasharray:none;stroke-opacity:1"
         id="path488" />
      <path
         d="m 1358.71,1018.67 c 0,-4.13 -5.02,-7.48 -11.23,-7.48 -6.19,0 -11.22,3.35 -11.22,7.48 0,4.13 5.03,7.48 11.22,7.48 6.21,0 11.23,-3.35 11.23,-7.48 z"
         style="fill:none;stroke:#233239;stroke-width:10;stroke-linecap:butt;stroke-linejoin:miter;stroke-miterlimit:10;stroke-dasharray:none;stroke-opacity:1"
         id="path490" />
      <path
         d="m 1821.16,1196.77 c 0,-4.13 -5.02,-7.48 -11.23,-7.48 -6.19,0 -11.22,3.35 -11.22,7.48 0,4.13 5.03,7.48 11.22,7.48 6.21,0 11.23,-3.35 11.23,-7.48 z"
         style="fill:none;stroke:#233239;stroke-width:10;stroke-linecap:butt;stroke-linejoin:miter;stroke-miterlimit:10;stroke-dasharray:none;stroke-opacity:1"
         id="path492" />
      <path
         d="m 1133.47,1273.1 c 0,-4.14 -5.02,-7.48 -11.23,-7.48 -6.19,0 -11.22,3.34 -11.22,7.48 0,4.13 5.03,7.47 11.22,7.47 6.21,0 11.23,-3.34 11.23,-7.47 z"
         style="fill:none;stroke:#233239;stroke-width:10;stroke-linecap:butt;stroke-linejoin:miter;stroke-miterlimit:10;stroke-dasharray:none;stroke-opacity:1"
         id="path494" />
      <path
         d="m 2188.99,1218.37 c 0,0 -75.26,-5.79 -146.66,-73.34 -71.4,-67.54 -102.28,-167.889 -90.7,-256.663 11.58,-88.769 125.44,-268.226 245.08,-364.726 119.65,-96.481 281.75,-138.942 428.42,-96.481 146.66,42.449 216.14,196.828 231.57,218.07 15.43,21.219 81.04,169.809 27.02,324.188 -54.04,154.392 -117.73,254.732 -241.23,322.282 -123.51,67.54 -252.79,71.4 -328.06,25.09 -75.25,-46.32 -96.48,-98.42 -96.48,-98.42"
         style="fill:#8c8c8c;fill-opacity:1;fill-rule:nonzero;stroke:none"
         id="path496" />
      <path
         d="m 2904.47,855.77 -9.6,74.793 c -1.9,8.269 -4.06,16.589 -6.61,24.937 0.33,-40.898 -1.94,-110.84 -18.06,-169.41 -24.45,-88.86 -49.79,-113.449 -179.72,-200.688 -129.94,-87.242 -163.77,-75.261 -219.03,-81.672 -55.26,-6.41 -181.91,27.84 -302.56,109.512 C 2048.24,694.91 2001.84,810 2001.84,810 l -52.29,127.371 c -0.67,-16.531 -0.01,-32.961 2.08,-49 11.58,-88.769 125.44,-268.23 245.08,-364.73 119.65,-96.481 281.75,-138.942 428.41,-96.481 146.66,42.449 216.14,196.832 231.58,218.063 11.54,15.879 51.15,103.027 47.77,210.547"
         style="fill:#616161;fill-opacity:1;fill-rule:nonzero;stroke:none"
         id="path498" />
      <path
         d="m 2256.54,1193.28 c 0,0 23.16,3.86 69.47,-92.64 46.32,-96.48 140.88,-169.808 179.47,-248.929 38.59,-79.121 71.41,-156.32 82.98,-187.191 11.58,-30.879 38.59,-55.969 48.24,-82.989 9.66,-27.011 11.58,-65.601 21.23,-63.679 9.65,1.929 -19.3,82.988 -13.5,104.211 5.79,21.23 36.67,63.679 30.87,84.91 -5.79,21.226 -42.46,55.968 -34.73,63.679 7.71,7.731 109.99,25.09 65.6,25.09 -44.38,0 -92.62,-13.5 -100.34,5.789 -7.72,19.301 -7.72,59.828 -7.72,59.828 0,0 15.44,3.852 -3.86,19.293 -19.3,15.438 -38.59,63.68 -38.59,63.68 0,0 -55.97,88.768 -96.49,133.158 -40.53,44.38 -59.83,63.68 -82.99,75.26 -23.15,11.57 -21.22,5.79 -40.52,27.01 -19.3,21.23 -7.72,34.74 -28.94,28.96 -21.23,-5.79 -75.27,23.15 -50.18,-15.44"
         style="fill:#233239;fill-opacity:1;fill-rule:nonzero;stroke:none"
         id="path500" />
      <path
         d="m 2256.54,1193.28 c 0,0 23.16,3.86 69.47,-92.64 46.32,-96.48 140.88,-169.808 179.47,-248.929 38.59,-79.121 71.41,-156.32 82.98,-187.191 11.58,-30.879 38.59,-55.969 48.24,-82.989 9.66,-27.011 11.58,-65.601 21.23,-63.679 9.65,1.929 -19.3,82.988 -13.5,104.211 5.79,21.23 36.67,63.679 30.87,84.91 -5.79,21.226 -42.46,55.968 -34.73,63.679 7.71,7.731 109.99,25.09 65.6,25.09 -44.38,0 -92.62,-13.5 -100.34,5.789 -7.72,19.301 -7.72,59.828 -7.72,59.828 0,0 15.44,3.852 -3.86,19.293 -19.3,15.438 -38.59,63.68 -38.59,63.68 0,0 -55.97,88.768 -96.49,133.158 -40.53,44.38 -59.83,63.68 -82.99,75.26 -23.15,11.57 -21.22,5.79 -40.52,27.01 -19.3,21.23 -7.72,34.74 -28.94,28.96 -21.23,-5.79 -75.27,23.15 -50.18,-15.44 z"
         style="fill:none;stroke:#233239;stroke-width:10;stroke-linecap:butt;stroke-linejoin:miter;stroke-miterlimit:10;stroke-dasharray:none;stroke-opacity:1"
         id="path502" />
      <path
         d="m 2111.8,654.871 c 0,0 82.98,-57.898 150.53,-100.348 67.54,-42.449 210.34,-50.179 264.38,-44.39"
         style="fill:none;stroke:#233239;stroke-width:10;stroke-linecap:butt;stroke-linejoin:miter;stroke-miterlimit:10;stroke-dasharray:none;stroke-opacity:1"
         id="path504" />
      <path
         d="m 2574.95,517.852 c 0,0 46.32,13.519 59.82,25.089"
         style="fill:none;stroke:#233239;stroke-width:10;stroke-linecap:butt;stroke-linejoin:miter;stroke-miterlimit:10;stroke-dasharray:none;stroke-opacity:1"
         id="path506" />
      <path
         d="m 2675.3,571.887 c 0,0 69.47,42.457 104.21,77.199 34.74,34.73 61.75,42.449 90.69,137.008 28.95,94.562 11.58,144.742 11.58,144.742"
         style="fill:none;stroke:#233239;stroke-width:10;stroke-linecap:butt;stroke-linejoin:miter;stroke-miterlimit:10;stroke-dasharray:none;stroke-opacity:1"
         id="path508" />
      <path
         d="m 2188.99,1218.37 c 0,0 -75.26,-5.79 -146.66,-73.34 -71.4,-67.54 -102.28,-167.889 -90.7,-256.663 11.58,-88.769 125.44,-268.226 245.08,-364.726 119.65,-96.481 281.75,-138.942 428.42,-96.481 146.66,42.449 216.14,196.828 231.57,218.07 15.43,21.219 81.04,169.809 27.02,324.188 -54.04,154.392 -117.73,254.732 -241.23,322.282 -123.51,67.54 -252.79,71.4 -328.06,25.09 -75.25,-46.32 -96.48,-98.42 -96.48,-98.42 z"
         style="fill:none;stroke:#233239;stroke-width:10;stroke-linecap:butt;stroke-linejoin:miter;stroke-miterlimit:10;stroke-dasharray:none;stroke-opacity:1"
         id="path510" />
      <path
         d="m 2371.02,586.785 c 0,-4.957 -8.71,-8.969 -19.45,-8.969 -10.75,0 -19.46,4.012 -19.46,8.969 0,4.961 8.71,8.981 19.46,8.981 10.74,0 19.45,-4.02 19.45,-8.981 z"
         style="fill:none;stroke:#233239;stroke-width:10;stroke-linecap:butt;stroke-linejoin:miter;stroke-miterlimit:10;stroke-dasharray:none;stroke-opacity:1"
         id="path512" />
      <path
         d="m 2412.93,1293.18 c 0,-4.96 -8.71,-8.97 -19.46,-8.97 -10.75,0 -19.46,4.01 -19.46,8.97 0,4.96 8.71,8.98 19.46,8.98 10.75,0 19.46,-4.02 19.46,-8.98 z"
         style="fill:none;stroke:#233239;stroke-width:10;stroke-linecap:butt;stroke-linejoin:miter;stroke-miterlimit:10;stroke-dasharray:none;stroke-opacity:1"
         id="path514" />
      <path
         d="m 2520.73,1298.07 c 0,-10.52 -13.41,-19.04 -29.96,-19.04 -16.54,0 -29.95,8.52 -29.95,19.04 0,10.54 13.41,19.06 29.95,19.06 16.55,0 29.96,-8.52 29.96,-19.06 z"
         style="fill:none;stroke:#233239;stroke-width:10;stroke-linecap:butt;stroke-linejoin:miter;stroke-miterlimit:10;stroke-dasharray:none;stroke-opacity:1"
         id="path516" />
      <path
         d="m 1059.09,931.926 c 0,0 34.74,38.59 194.91,98.414 160.17,59.82 349.29,84.91 401.39,79.12 52.11,-5.78 84.91,5.79 142.81,-11.58 57.89,-17.36 82.97,-21.22 90.69,-30.86 7.72,-9.66 28.95,-28.97 30.88,-34.75 1.93,-5.79 90.7,-25.09 92.63,-187.196 1.93,-162.101 -92.63,-275.949 -272.1,-360.859 -179.47,-84.91 -268.24,-129.289 -463.14,-123.512 -194.91,5.789 -287.543,106.141 -347.375,187.199 -59.816,81.043 -44.379,218.063 0,281.743 44.391,63.687 117.725,88.769 117.725,88.769"
         style="fill:#8c8c8c;fill-opacity:1;fill-rule:nonzero;stroke:none"
         id="path518" />
      <path
         d="m 909.957,696.426 c 5.57,-74.25 55.68,-131.789 98.363,-161.481 42.71,-29.711 154.07,-51.98 181.91,-53.84 27.84,-1.859 220.9,7.43 306.28,22.27 85.38,14.859 174.31,61.891 246.87,90.961 72.55,29.059 165.19,98.379 220.88,180.051 37.66,55.218 37.12,127.371 32.81,168.34 8.79,-24.832 14.84,-56.653 15.32,-97.653 1.93,-162.097 -92.62,-275.949 -272.09,-360.859 -179.48,-84.91 -268.25,-129.289 -463.14,-123.508 -194.91,5.789 -287.543,106.141 -347.375,187.188 -45.758,62.011 -47.39,156.652 -25.808,226.273 1.558,-19.723 3.597,-45.992 5.98,-77.742"
         style="fill:#616161;fill-opacity:1;fill-rule:nonzero;stroke:none"
         id="path520" />
      <path
         d="m 1873.45,995.605 c 0,0 -82.98,-59.82 -96.49,-69.468 -13.51,-9.653 -65.61,-30.883 -109.99,-52.102 -44.39,-21.23 -148.6,-59.832 -260.53,-94.558 -111.92,-34.743 -245.07,-86.852 -268.23,-94.563 -23.16,-7.73 -52.11,-27.019 -55.97,-54.039 -3.86,-27.02 61.76,-104.211 34.74,-110 -27.02,-5.789 -61.76,42.461 -67.54,61.762 -5.79,19.297 5.78,38.59 -11.58,44.386 -17.37,5.782 -55.969,-13.519 -55.969,0 0,13.5 50.179,42.454 50.179,42.454 0,0 61.75,40.519 117.71,65.609 55.97,25.09 81.05,19.301 148.6,55.961 67.54,36.668 125.43,77.199 183.33,102.277 57.89,25.09 125.43,34.742 133.15,36.66 7.72,1.942 -28.94,-30.859 30.88,17.379 59.82,48.242 133.15,48.242 152.45,52.102 19.3,3.855 125.44,46.325 75.26,-3.86"
         style="fill:#233239;fill-opacity:1;fill-rule:nonzero;stroke:none"
         id="path522" />
      <path
         d="m 1873.45,995.605 c 0,0 -82.98,-59.82 -96.49,-69.468 -13.51,-9.653 -65.61,-30.883 -109.99,-52.102 -44.39,-21.23 -148.6,-59.832 -260.53,-94.558 -111.92,-34.743 -245.07,-86.852 -268.23,-94.563 -23.16,-7.73 -52.11,-27.019 -55.97,-54.039 -3.86,-27.02 61.76,-104.211 34.74,-110 -27.02,-5.789 -61.76,42.461 -67.54,61.762 -5.79,19.297 5.78,38.59 -11.58,44.386 -17.37,5.782 -55.969,-13.519 -55.969,0 0,13.5 50.179,42.454 50.179,42.454 0,0 61.75,40.519 117.71,65.609 55.97,25.09 81.05,19.301 148.6,55.961 67.54,36.668 125.43,77.199 183.33,102.277 57.89,25.09 125.43,34.742 133.15,36.66 7.72,1.942 -28.94,-30.859 30.88,17.379 59.82,48.242 133.15,48.242 152.45,52.102 19.3,3.855 125.44,46.325 75.26,-3.86 z"
         style="fill:none;stroke:#233239;stroke-width:10;stroke-linecap:butt;stroke-linejoin:miter;stroke-miterlimit:10;stroke-dasharray:none;stroke-opacity:1"
         id="path524" />
      <path
         d="m 1993.1,858.594 c 0,0 19.3,-81.051 -92.63,-160.18 -111.93,-79.121 -162.1,-113.851 -229.65,-133.148"
         style="fill:none;stroke:#233239;stroke-width:10;stroke-linecap:butt;stroke-linejoin:miter;stroke-miterlimit:10;stroke-dasharray:none;stroke-opacity:1"
         id="path526" />
      <path
         d="m 1634.16,551.758 c 0,0 -113.86,-48.238 -239.29,-63.68 -125.44,-15.441 -279.82,1.918 -279.82,1.918"
         style="fill:none;stroke:#233239;stroke-width:10;stroke-linecap:butt;stroke-linejoin:miter;stroke-miterlimit:10;stroke-dasharray:none;stroke-opacity:1"
         id="path528" />
      <path
         d="m 1047.51,517.02 c 0,0 -32.81,11.582 -63.682,36.66 -30.879,25.09 -57.898,65.621 -65.617,100.351"
         style="fill:none;stroke:#233239;stroke-width:10;stroke-linecap:butt;stroke-linejoin:miter;stroke-miterlimit:10;stroke-dasharray:none;stroke-opacity:1"
         id="path530" />
      <path
         d="m 1059.09,931.926 c 0,0 34.74,38.59 194.91,98.414 160.17,59.82 349.29,84.91 401.39,79.12 52.11,-5.78 84.91,5.79 142.81,-11.58 57.89,-17.36 82.97,-21.22 90.69,-30.86 7.72,-9.66 28.95,-28.97 30.88,-34.75 1.93,-5.79 90.7,-25.09 92.63,-187.196 1.93,-162.101 -92.63,-275.949 -272.1,-360.859 -179.47,-84.91 -268.24,-129.289 -463.14,-123.512 -194.91,5.789 -287.543,106.141 -347.375,187.199 -59.816,81.043 -44.379,218.063 0,281.743 44.391,63.687 117.725,88.769 117.725,88.769 z"
         style="fill:none;stroke:#233239;stroke-width:10;stroke-linecap:butt;stroke-linejoin:miter;stroke-miterlimit:10;stroke-dasharray:none;stroke-opacity:1"
         id="path532" />
      <path
         d="m 1716.25,684.512 c 0,-8.27 10.05,-14.969 22.45,-14.969 12.4,0 22.45,6.699 22.45,14.969 0,8.261 -10.05,14.961 -22.45,14.961 -12.4,0 -22.45,-6.7 -22.45,-14.961 z"
         style="fill:none;stroke:#233239;stroke-width:10;stroke-linecap:butt;stroke-linejoin:miter;stroke-miterlimit:10;stroke-dasharray:none;stroke-opacity:1"
         id="path534" />
      <path
         d="m 1632.44,621.648 c 0,-4.957 6.7,-8.968 14.97,-8.968 8.26,0 14.97,4.011 14.97,8.968 0,4.961 -6.71,8.981 -14.97,8.981 -8.27,0 -14.97,-4.02 -14.97,-8.981 z"
         style="fill:none;stroke:#233239;stroke-width:10;stroke-linecap:butt;stroke-linejoin:miter;stroke-miterlimit:10;stroke-dasharray:none;stroke-opacity:1"
         id="path536" />
      <path
         d="m 1413.94,651.582 c 0,-3.301 4.69,-5.988 10.47,-5.988 5.79,0 10.48,2.687 10.48,5.988 0,3.309 -4.69,5.988 -10.48,5.988 -5.78,0 -10.47,-2.679 -10.47,-5.988 z"
         style="fill:none;stroke:#233239;stroke-width:10;stroke-linecap:butt;stroke-linejoin:miter;stroke-miterlimit:10;stroke-dasharray:none;stroke-opacity:1"
         id="path538" />
      <path
         d="m 997.883,849.133 c 0,-4.953 8.707,-8.973 19.447,-8.973 10.75,0 19.46,4.02 19.46,8.973 0,4.957 -8.71,8.976 -19.46,8.976 -10.74,0 -19.447,-4.019 -19.447,-8.976 z"
         style="fill:none;stroke:#233239;stroke-width:10;stroke-linecap:butt;stroke-linejoin:miter;stroke-miterlimit:10;stroke-dasharray:none;stroke-opacity:1"
         id="path540" />
    </g>
  </g>
</svg>
