<?xml version="1.0" encoding="UTF-8" standalone="no"?>
<!-- Created with Inkscape (http://www.inkscape.org/) -->

<svg
   version="1.1"
   id="svg2"
   width="633.58667"
   height="587.71997"
   viewBox="0 0 633.58667 587.71997"
   sodipodi:docname="13416087_5242993.eps"
   xmlns:inkscape="http://www.inkscape.org/namespaces/inkscape"
   xmlns:sodipodi="http://sodipodi.sourceforge.net/DTD/sodipodi-0.dtd"
   xmlns="http://www.w3.org/2000/svg"
   xmlns:svg="http://www.w3.org/2000/svg">
  <defs
     id="defs6" />
  <sodipodi:namedview
     id="namedview4"
     pagecolor="#ffffff"
     bordercolor="#000000"
     borderopacity="0.25"
     inkscape:showpageshadow="2"
     inkscape:pageopacity="0.0"
     inkscape:pagecheckerboard="0"
     inkscape:deskcolor="#d1d1d1" />
  <g
     id="g8"
     inkscape:groupmode="layer"
     inkscape:label="ink_ext_XXXXXX"
     transform="matrix(1.3333333,0,0,-1.3333333,0,587.72)">
    <g
       id="g10"
       transform="scale(0.1)">
      <path
         d="M 4612.73,1792.47 C 4462.17,1389.2 4154.52,952.73 3721.61,823.512 3067.5,628.191 2989.36,100.941 1817.77,149.84 c -182.66,7.609 -351.5,33.301 -506.61,74.289 -83.38,22.031 -162.8,48.613 -238.19,79.242 C 388.539,580.582 31.5,1190.72 1.85938,1829.12 -37.2617,2668.76 548.586,3068.97 929.332,3303.31 c 380.748,234.33 839.638,1142.35 1991.758,1103.32 175.66,-6.02 350.91,-30.03 520.74,-76.07 387.66,-104.92 781.75,-336.98 1010.75,-676.24 17.2,-25.49 33.59,-51.57 49.3,-78.14 306.45,-519.95 316.14,-1233.92 110.85,-1783.71"
         style="fill:#7fd29f;fill-opacity:1;fill-rule:nonzero;stroke:none"
         id="path12" />
      <path
         d="m 1966.1,146.66 c -47.47,0 -96.77,1.031 -148.33,3.18 -182.66,7.609 -351.5,33.301 -506.61,74.289 -83.38,22.031 -162.8,48.613 -238.19,79.242 C 388.539,580.582 31.5,1190.72 1.85938,1829.12 0.621094,1855.77 0.0078125,1881.98 0,1907.75 -0.277344,2694 560.672,3076.41 929.332,3303.31 c 372.748,229.42 820.458,1104.54 1920.158,1104.54 23.58,0 47.41,-0.4 71.6,-1.22 175.66,-6.02 350.91,-30.03 520.74,-76.07 387.66,-104.92 781.75,-336.98 1010.75,-676.24 17.2,-25.49 33.59,-51.57 49.3,-78.14 171.48,-290.95 250.04,-642.65 250,-992.34 -0.02,-275.24 -48.74,-549.23 -139.15,-791.37 C 4462.17,1389.2 4154.52,952.73 3721.61,823.512 3096.29,636.789 2997.21,146.66 1966.1,146.66"
         style="fill:#d8f1e0;fill-opacity:1;fill-rule:nonzero;stroke:none"
         id="path14" />
      <path
         d="m 4377.75,426.32 c -15.4,-5.648 -52.03,-2.609 -52.06,-2.609 -0.38,0.027 9.33,23.539 10.12,24.949 9.06,16.36 36.19,42.629 56.74,38.578 14.79,-2.906 22.2,-18.347 17.98,-32.199 -4.31,-14.141 -19.67,-23.91 -32.78,-28.719"
         style="fill:#7fd29f;fill-opacity:1;fill-rule:nonzero;stroke:none"
         id="path16" />
      <path
         d="m 3904.7,580.172 c 20.92,0.976 43.89,-28.992 50.46,-46.5 0.56,-1.512 6.72,-26.192 6.34,-26.16 l -0.44,0.027 c 3.66,-4.707 7.52,-9.789 11.66,-15.43 7.52,-10.48 15.92,-22.379 24.2,-35.961 8.32,-13.539 16.96,-28.488 24.64,-45.058 7.73,-16.598 15,-34.449 20.12,-53.809 l 0.15,-0.679 c 0.26,6.128 1.57,23.238 1.81,24.539 3.52,18.371 21.11,51.789 41.89,54.351 14.97,1.84 26.81,-10.512 27.13,-24.98 0.31,-14.782 -11.23,-28.852 -22.2,-37.512 -12.35,-9.77 -45.51,-17.949 -48.15,-18.602 4.71,-18.476 8.03,-37.839 10.33,-57.597 1.32,-11.301 2.29,-22.731 3.13,-34.199 0.4,5.289 0.79,10.027 0.92,10.679 3.52,18.367 21.1,51.778 41.89,54.34 14.97,1.84 26.81,-10.512 27.11,-24.98 0.33,-14.782 -11.23,-28.852 -22.17,-37.512 -11.13,-8.789 -39.25,-16.328 -46.72,-18.238 0.27,-4.391 0.59,-8.782 0.85,-13.192 1.25,-21.129 2.39,-42.219 4.15,-62.859 0.61,-7.289 1.49,-14.418 2.34,-21.57 0.36,4.691 0.7,8.652 0.81,9.25 3.52,18.359 21.11,51.781 41.88,54.339 14.98,1.84 26.82,-10.519 27.14,-24.988 0.31,-14.762 -11.24,-28.851 -22.2,-37.512 -10.61,-8.39 -36.51,-15.578 -45.37,-17.871 1.08,-7.297 2.17,-14.609 3.55,-21.629 1.06,-4.777 1.74,-9.437 3.07,-14.1793 1.21,-4.7188 2.41,-9.3906 3.6,-14 2.62,-8.8281 5.27,-17.9375 8.04,-26.4805 1.88,-5.957 3.79,-11.5976 5.69,-17.2773 -0.7,7.2265 -1.77,21.4297 -1.73,22.6172 0.47,12.4218 6.09,32.3125 15.71,45.9489 0.06,1.844 0.27,3.653 0.66,5.453 3.16,14.129 17.2,23.918 31.51,19.161 19.88,-6.59 30.55,-42.8207 30.39,-61.5122 -0.01,-1.1093 -1.46,-13.0585 -2.49,-20.5898 1.28,4.3398 2.47,8.5508 3.84,13 2.66,8.8008 5.58,17.5117 8.67,26.8906 1.66,4.4805 3.33,9.0117 5.01,13.5784 1.58,4.562 3.82,9.183 5.74,13.82 4.65,10.68 9.88,21.281 15.4,31.84 -7.72,2.34 -34.95,11.062 -45.55,20.262 -10.55,9.148 -21.43,23.75 -20.45,38.488 0.98,14.441 13.37,26.25 28.24,23.723 20.65,-3.512 36.68,-37.7 39.36,-56.211 0.17,-1.149 0.59,-14.649 0.67,-22.059 3.36,6.316 6.69,12.648 10.3,18.93 10.42,18.148 21.52,36.187 32.53,54.23 3.36,5.528 6.66,11.078 9.98,16.617 -2.76,0.813 -35.36,10.461 -47.23,20.77 -10.55,9.152 -21.44,23.742 -20.44,38.48 0.98,14.45 13.37,26.25 28.23,23.711 20.65,-3.5 36.68,-37.691 39.36,-56.199 0.19,-1.391 0.78,-20.812 0.68,-25.75 7.31,12.199 14.47,24.418 21.05,36.777 9.09,17.012 17.08,34.211 23.57,51.442 -1.28,0.379 -35.35,10.32 -47.51,20.859 -10.55,9.153 -21.44,23.742 -20.44,38.492 0.97,14.438 13.36,26.239 28.24,23.707 20.64,-3.507 36.68,-37.699 39.35,-56.199 0.2,-1.457 0.82,-22.34 0.65,-26.129 0.39,1.012 0.9,2.039 1.27,3.059 6.71,18.5 10.89,37.25 13.94,54.992 1.79,10.32 2.92,20.27 3.81,29.969 -6.54,1.199 -36.34,7.019 -48.33,15.308 -11.5,7.942 -23.93,21.243 -24.55,36 -0.62,14.461 10.41,27.563 25.46,26.684 20.9,-1.223 40.6,-33.453 45.29,-51.543 0.25,-0.988 1.74,-11.277 2.7,-18.789 0.34,4.379 0.76,8.91 1,13.109 0.93,15.821 0.8,30.352 0.59,43.223 -0.19,7.309 -0.5,13.918 -0.85,20.109 -5.81,4.528 -28.95,23.039 -35.65,35.688 -6.54,12.34 -11.43,29.871 -5.19,43.269 6.11,13.122 21.93,19.661 34.89,11.942 17.99,-10.719 20.62,-48.391 16.44,-66.621 -0.37,-1.571 -8.85,-25.547 -9.16,-25.321 l -0.35,0.274 c 0.47,-5.934 0.89,-12.32 1.21,-19.293 0.51,-12.891 0.95,-27.457 0.36,-43.348 -0.54,-15.883 -1.57,-33.133 -4.3,-51.179 -2.72,-18.102 -6.5,-37.012 -12.91,-55.981 l -0.25,-0.652 c 3.6,4.972 14.13,18.519 15.06,19.48 13.06,13.383 46.16,31.539 64.91,22.211 13.5,-6.719 16.57,-23.558 8.84,-35.801 -7.89,-12.5 -25.28,-17.867 -39.2,-19.05 -15.69,-1.329 -47.86,10.14 -50.42,11.062 -6.28,-18.012 -14.17,-35.992 -23.17,-53.75 -5.13,-10.152 -10.62,-20.223 -16.24,-30.242 3.25,4.191 6.19,7.922 6.65,8.402 13.07,13.379 46.17,31.539 64.91,22.219 13.51,-6.719 16.56,-23.559 8.85,-35.809 -7.88,-12.5 -25.29,-17.871 -39.21,-19.05 -14.12,-1.192 -41.74,8.039 -49.01,10.578 -2.2,-3.828 -4.36,-7.668 -6.58,-11.489 -10.61,-18.3 -21.29,-36.519 -31.21,-54.71 -3.5,-6.418 -6.72,-12.848 -9.95,-19.29 2.89,3.719 5.35,6.84 5.78,7.282 13.06,13.359 46.17,31.539 64.92,22.207 13.5,-6.727 16.56,-23.559 8.83,-35.797 -7.89,-12.5 -25.28,-17.871 -39.2,-19.051 -13.47,-1.141 -39.04,7.149 -47.7,10.129 -3.12,-6.691 -6.25,-13.391 -8.98,-20.008 -1.74,-4.562 -3.76,-8.832 -5.25,-13.5232 -1.59,-4.5977 -3.16,-9.1602 -4.73,-13.668 -2.67,-8.8008 -5.49,-17.8594 -7.9,-26.5195 -1.71,-6 -3.23,-11.75 -4.78,-17.5391 3.41,6.4062 10.35,18.8398 11.04,19.8164 10.88,15.2109 40.85,38.1714 60.8,31.8008 14.37,-4.5977 19.95,-20.7774 14.16,-34.0586 -5.9,-13.5391 -22.28,-21.4922 -35.86,-24.7617 -14.95,-3.5977 -47.19,2.4609 -51.22,3.2422 -2.54,-9.5899 -4.91,-18.9415 -7.01,-27.8125 -0.45,-1.89849 -0.82,-3.60942 -1.26,-5.4688 h -12.95 c 0.71,2.78906 1.42,5.6016 2.18,8.4922 2.53,9.7383 5.43,20.1094 8.52,30.7266 -2.39,1.121 -15.91,7.5625 -27.78,15.1601 -11.39,-10.9297 -39.63,-22.8398 -43.28,-24.3476 3.19,-9.4102 6.37,-18.5196 9.5,-27.06255 0.38,-1.02734 0.75,-1.95703 1.12,-2.96875 h -13.21 c -3.13,9.2109 -6.3,19.0313 -9.46,29.1719 -3.98,-0.5899 -36.55,-5.1797 -51.34,-0.8906 -13.41,3.8984 -29.41,12.5781 -34.69,26.3906 -5.17,13.5078 1.15,29.4179 15.72,33.3594 20.2,5.4687 49.09,-18.8594 59.27,-34.5508 0.6,-0.9219 5.99,-11.6914 9.27,-18.5391 -1.31,4.3203 -2.64,8.5 -3.95,12.957 -2.65,8.8125 -5.02,17.6836 -7.61,27.2227 -1.09,4.6484 -2.2,9.3281 -3.31,14.0781 -1.2,4.6797 -1.87,9.7618 -2.84,14.7028 -2.02,11.477 -3.5,23.2 -4.73,35.039 -7.71,-2.293 -35.25,-10.039 -49.16,-8.222 -13.85,1.82 -30.98,7.98 -38.29,20.832 -7.15,12.578 -3.32,29.258 10.48,35.347 19.15,8.473 51.39,-11.207 63.83,-25.156 0.77,-0.871 8.56,-11.902 12.73,-18.031 -0.68,7.121 -1.4,14.23 -1.85,21.469 -1.33,20.871 -2.02,42.05 -2.81,63.172 -0.22,6.468 -0.54,12.91 -0.83,19.359 -2.74,-0.852 -35.26,-10.77 -50.85,-8.731 -13.83,1.821 -30.97,7.981 -38.28,20.829 -7.16,12.582 -3.33,29.261 10.47,35.363 19.16,8.457 51.4,-11.223 63.83,-25.172 0.94,-1.059 12.13,-16.93 14.78,-21.109 -0.64,14.218 -1.41,28.371 -2.74,42.281 -1.8,19.219 -4.63,37.969 -8.72,55.93 -1.27,-0.403 -35.17,-10.911 -51.12,-8.821 -13.85,1.821 -30.99,7.981 -38.29,20.828 -7.16,12.582 -3.33,29.262 10.46,35.352 19.16,8.469 51.4,-11.211 63.83,-25.16 0.98,-1.11 13.02,-18.192 14.97,-21.442 -0.24,1.071 -0.38,2.2 -0.63,3.262 -4.61,19.109 -11.48,37.059 -18.72,53.551 -4.19,9.59 -8.74,18.508 -13.35,27.109 -6.11,-2.609 -34.18,-14.211 -48.75,-13.91 -13.97,0.277 -31.67,4.52 -40.34,16.488 -8.5,11.723 -6.53,28.723 6.52,36.289 18.11,10.524 52.3,-5.488 66.2,-18 0.75,-0.687 7.67,-8.449 12.63,-14.179 -2.14,3.84 -4.28,7.851 -6.41,11.492 -7.95,13.699 -16.07,25.738 -23.36,36.359 -4.18,6 -8.08,11.352 -11.79,16.309 -7.34,0.57 -36.86,3.25 -49.42,10.101 -12.26,6.68 -26.02,18.61 -28.21,33.231 -2.13,14.309 7.45,28.488 22.52,29.211"
         style="fill:#7fd29f;fill-opacity:1;fill-rule:nonzero;stroke:none"
         id="path18" />
      <path
         d="m 4006.18,440.609 c -0.33,-0.168 -5.19,24.789 -5.32,26.403 -1.46,18.636 6.68,55.519 26.05,63.48 13.95,5.727 28.63,-3.062 32.75,-16.941 4.21,-14.172 -3.21,-30.801 -11.5,-42.039 -9.71,-13.203 -41.95,-30.883 -41.98,-30.903"
         style="fill:#7fd29f;fill-opacity:1;fill-rule:nonzero;stroke:none"
         id="path20" />
      <path
         d="m 583.867,2792.75 h 5 v 127.94 h 220.082 v -132.02 l 3.996,-0.82 c 98.668,-20.28 172.711,-68.06 222.485,-140.76 49.75,-72.72 75.18,-170.74 75.18,-291.49 v -51.25 H 854.73 v 69.14 c -0.007,64.52 -12.847,109.88 -37.941,139.37 -25.125,29.53 -62.105,42.08 -107.656,42.02 -45.559,0.06 -82.539,-12.49 -107.66,-42.02 -25.094,-29.49 -37.926,-74.85 -37.938,-139.37 -0.043,-93.32 35.008,-164.85 87.051,-226.83 78.082,-92.99 194.066,-165.5 290.121,-262.47 96.053,-97.01 172.373,-217.68 172.463,-408.02 0,-120.73 -26.07,-219.38 -76.46,-292.75 -50.417,-73.36 -125.116,-121.78 -223.765,-142.06 l -3.996,-0.82 V 911.09 H 588.867 v 129.46 l -4.008,0.82 c -99.937,20.27 -174.617,68.69 -224.711,142.03 -50.074,73.36 -75.511,172.03 -75.507,292.77 v 117.71 H 540.52 v -135.6 c 0,-64.58 14.183,-109.42 40.621,-138.24 26.461,-28.82 64.582,-40.64 110.101,-40.61 45.512,-0.03 83.629,11.79 110.086,40.61 26.438,28.82 40.621,73.66 40.621,138.24 0.043,93.32 -35.008,164.85 -87.051,226.82 -78.082,92.99 -194.066,165.5 -290.125,262.47 -96.054,97.01 -172.375,217.69 -172.457,408.03 -0.003,119.48 24.797,216.88 73.606,289.61 48.836,72.71 121.625,121.12 219.023,142.66 l 3.922,0.86 v 4.02 h -5 l -1.078,4.88 c -99.453,-21.91 -174.941,-71.93 -225.172,-146.85 -50.25,-74.91 -75.301,-174.36 -75.301,-295.18 -0.027,-128.72 34.676,-226.84 86.688,-306.87 78.027,-120.05 194.488,-199.56 290.758,-283.35 48.156,-41.87 91.258,-84.77 122.23,-134.07 30.973,-49.31 49.938,-104.94 49.957,-173.03 0,-63.24 -13.933,-105.32 -37.984,-131.47 -24.031,-26.15 -58.766,-37.34 -102.723,-37.38 -43.965,0.04 -78.707,11.23 -102.734,37.38 -24.055,26.15 -37.988,68.23 -37.988,131.47 v 145.6 H 274.641 v -127.71 c 0,-122.1 25.695,-222.85 77.246,-298.4 51.527,-75.57 128.965,-125.59 230.988,-146.21 l 0.992,4.9 h -5 V 901.09 h 240.082 v 135.37 h -5 l 1.008,-4.89 c 100.746,20.62 178.152,70.63 229.993,146.19 51.87,75.54 78.21,176.29 78.21,298.41 0.03,128.72 -34.67,226.84 -86.68,306.87 -78.031,120.05 -194.492,199.55 -290.757,283.34 -48.157,41.88 -91.254,84.77 -122.231,134.07 -30.972,49.32 -49.937,104.95 -49.957,173.04 -0.012,63.3 12.715,106.15 35.551,132.89 22.805,26.71 56.121,38.45 100.047,38.5 43.918,-0.05 77.234,-11.79 100.043,-38.5 22.84,-26.74 35.566,-69.59 35.554,-132.89 v -79.13 h 275.88 v 61.24 c 0,122.11 -25.7,222.21 -76.93,297.13 -51.207,74.93 -127.996,124.29 -228.723,144.92 l -1.008,-4.9 h 5 v 137.94 H 578.867 v -137.94 h 5 l -1.078,4.88 1.078,-4.88"
         style="fill:#373d43;fill-opacity:1;fill-rule:nonzero;stroke:none"
         id="path22" />
      <path
         d="m 4073.81,3275.21 h 5 v 49.27 h 83.92 v -53.34 l 3.99,-0.82 c 39.66,-8.18 69.06,-27.21 88.95,-56.23 19.87,-29.03 30.17,-68.41 30.17,-117.3 v -17.95 h -98.51 v 25.25 c -0.02,26.7 -5.29,45.95 -16.2,58.81 -10.94,12.88 -27.11,18.24 -46.19,18.19 -19.08,0.05 -35.25,-5.31 -46.2,-18.19 -10.91,-12.85 -16.18,-32.11 -16.19,-58.81 -0.04,-38.85 14.68,-68.86 36.22,-94.48 32.34,-38.45 79.71,-68.02 118.58,-107.31 38.88,-39.33 69.45,-87.59 69.54,-164.45 0,-48.86 -10.56,-88.51 -30.69,-117.81 -20.15,-29.29 -49.84,-48.59 -89.48,-56.76 l -3.99,-0.82 v -52.28 h -83.92 v 52.29 l -4.01,0.81 c -40.17,8.18 -69.84,27.47 -89.86,56.75 -20,29.29 -30.3,68.94 -30.3,117.82 v 45.08 h 98.52 v -52.38 c 0,-26.75 5.86,-45.87 17.36,-58.42 11.52,-12.56 28.08,-17.57 47.12,-17.54 19.03,-0.03 35.59,4.98 47.11,17.54 11.5,12.55 17.36,31.67 17.36,58.42 0.04,38.85 -14.68,68.87 -36.22,94.48 -32.34,38.45 -79.71,68.02 -118.58,107.31 -38.88,39.33 -69.45,87.59 -69.54,164.45 0,48.37 10.05,87.52 29.55,116.56 19.51,29.02 48.42,48.3 87.57,56.98 l 3.92,0.87 v 4.01 h -5 l -1.08,4.89 c -41.2,-9.06 -72.8,-29.95 -93.72,-61.18 -20.94,-31.22 -31.23,-72.42 -31.24,-122.13 -0.02,-53.06 14.35,-93.78 35.86,-126.86 32.29,-49.62 80.13,-82.21 119.22,-116.27 19.56,-17.01 36.93,-34.33 49.32,-54.06 12.39,-19.75 19.92,-41.82 19.94,-69.05 0,-25.41 -5.61,-41.77 -14.73,-51.66 -9.09,-9.88 -22.26,-14.26 -39.74,-14.3 -17.49,0.04 -30.67,4.42 -39.76,14.3 -9.11,9.89 -14.72,26.25 -14.72,51.66 v 62.38 h -118.52 v -55.08 c 0,-50.24 10.57,-91.97 32.04,-123.46 21.46,-31.5 53.88,-52.39 96.14,-60.91 l 0.99,4.9 h -5 v -58.2 h 103.92 v 58.2 h -5 l 1,-4.89 c 41.74,8.52 74.13,29.4 95.71,60.89 21.61,31.47 32.44,73.21 32.45,123.47 0.02,53.07 -14.35,93.78 -35.86,126.86 -32.29,49.63 -80.13,82.22 -119.22,116.27 -19.56,17.01 -36.93,34.34 -49.32,54.06 -12.39,19.75 -19.92,41.82 -19.94,69.05 -0.01,25.48 5.15,42.22 13.81,52.32 8.62,10.08 21.14,14.63 38.58,14.68 17.44,-0.05 29.96,-4.6 38.58,-14.68 8.65,-10.1 13.82,-26.84 13.81,-52.32 v -35.25 h 118.51 v 27.95 c 0,50.24 -10.57,91.72 -31.91,122.95 -21.33,31.24 -53.48,51.85 -95.2,60.37 l -1,-4.9 h 5 v 59.27 h -103.92 v -59.27 h 5 l -1.08,4.89 1.08,-4.89"
         style="fill:#373d43;fill-opacity:1;fill-rule:nonzero;stroke:none"
         id="path24" />
      <path
         d="m 3442.26,1019.1 h 5 v 29.82 h 50.25 v -33.9 l 4,-0.82 c 25.08,-5.18 43.46,-17.11 55.96,-35.329 12.48,-18.242 19.05,-43.141 19.04,-74.262 v -9.73 h -59.62 v 14.422 c -0.02,17.347 -3.42,30.148 -10.82,38.89 -7.44,8.77 -18.48,12.348 -31.01,12.301 -12.53,0.047 -23.56,-3.531 -31,-12.301 -7.4,-8.742 -10.8,-21.543 -10.82,-38.89 -0.04,-25.391 9.66,-45.153 23.66,-61.781 21.04,-24.969 51.45,-43.93 76.19,-68.961 24.75,-25.079 44.02,-55.45 44.1,-104.258 0,-31.11 -6.72,-56.172 -19.38,-74.59 -12.67,-18.402 -31.24,-30.492 -56.3,-35.672 l -4,-0.82 v -33.231 h -50.25 v 33.242 l -4.01,0.809 c -25.4,5.191 -43.94,17.281 -56.54,35.66 -12.57,18.403 -19.13,43.473 -19.13,74.602 v 27.129 h 59.64 v -31.821 c 0,-17.41 3.8,-30.168 11.61,-38.699 7.82,-8.539 19.06,-11.859 31.55,-11.828 12.49,-0.031 23.72,3.289 31.55,11.828 7.8,8.531 11.61,21.289 11.61,38.699 0.04,25.391 -9.66,45.141 -23.66,61.77 -21.04,24.973 -51.45,43.93 -76.19,68.973 -24.75,25.078 -44.02,55.437 -44.1,104.257 0,30.801 6.4,55.551 18.65,73.789 12.28,18.231 30.35,30.312 55.1,35.822 l 3.92,0.87 v 4.01 h -5 l -1.08,4.88 c -26.81,-5.88 -47.57,-19.57 -61.24,-40.011 -13.69,-20.418 -20.35,-47.219 -20.35,-79.36 -0.02,-34.367 9.32,-60.898 23.3,-82.379 20.98,-32.218 51.86,-53.218 76.82,-74.98 12.5,-10.859 23.51,-21.871 31.31,-34.289 7.79,-12.441 12.5,-26.219 12.52,-43.352 0,-16.07 -3.56,-26.07 -8.98,-31.937 -5.39,-5.852 -13.24,-8.551 -24.18,-8.59 -10.94,0.039 -18.79,2.738 -24.19,8.59 -5.42,5.867 -8.97,15.867 -8.97,31.937 v 41.821 h -79.64 v -37.129 c 0,-32.492 6.83,-59.641 20.87,-80.231 14.03,-20.621 35.33,-34.3 62.81,-39.828 l 1,4.899 h -5 v -39.153 h 70.25 v 39.153 h -5 l 1.01,-4.899 c 27.16,5.539 48.43,19.219 62.54,39.809 14.12,20.59 21.13,47.75 21.13,80.25 0.02,34.371 -9.32,60.898 -23.3,82.371 -20.98,32.219 -51.87,53.219 -76.82,74.976 -12.5,10.864 -23.51,21.872 -31.31,34.293 -7.79,12.438 -12.5,26.219 -12.52,43.36 -0.01,16.121 3.28,26.418 8.43,32.398 5.12,5.961 12.49,8.742 23.39,8.793 10.9,-0.051 18.28,-2.832 23.4,-8.793 5.14,-5.98 8.44,-16.277 8.43,-32.398 v -24.422 h 79.62 v 19.73 c 0,32.481 -6.82,59.473 -20.79,79.903 -13.94,20.448 -35.06,33.958 -62.2,39.488 l -1.01,-4.9 h 5 v 39.82 h -70.25 v -39.82 h 5 l -1.08,4.88 1.08,-4.88"
         style="fill:#373d43;fill-opacity:1;fill-rule:nonzero;stroke:none"
         id="path26" />
      <path
         d="m 2283.81,1125.21 h 5 v 49.26 h 83.92 v -53.33 l 3.99,-0.82 c 39.66,-8.18 69.06,-27.21 88.95,-56.23 19.87,-29.02 30.17,-68.41 30.17,-117.289 V 928.84 h -98.52 v 25.25 c -0.01,26.699 -5.28,45.96 -16.19,58.81 -10.94,12.88 -27.12,18.25 -46.19,18.19 -19.08,0.06 -35.26,-5.31 -46.2,-18.19 -10.9,-12.85 -16.17,-32.111 -16.19,-58.81 -0.04,-38.848 14.68,-68.86 36.23,-94.481 32.33,-38.449 79.7,-68.019 118.58,-107.308 38.87,-39.332 69.44,-87.59 69.53,-164.449 0,-48.86 -10.56,-88.512 -30.69,-117.813 -20.15,-29.289 -49.84,-48.59 -89.48,-56.75 l -3.99,-0.82 V 360.18 h -83.92 v 52.3 l -4,0.809 c -40.18,8.172 -69.84,27.461 -89.87,56.742 -20,29.289 -30.3,68.938 -30.3,117.821 v 45.089 h 98.52 v -52.39 c 0,-26.762 5.86,-45.879 17.36,-58.422 11.52,-12.559 28.08,-17.57 47.12,-17.527 19.03,-0.043 35.59,4.968 47.11,17.527 11.49,12.543 17.36,31.66 17.36,58.422 0.04,38.847 -14.68,68.859 -36.22,94.48 -32.34,38.449 -79.71,68.02 -118.58,107.309 -38.88,39.332 -69.45,87.601 -69.54,164.461 0,48.359 10.05,87.509 29.54,116.549 19.52,29.02 48.43,48.3 87.58,56.98 l 3.92,0.87 v 4.01 h -5 l -1.07,4.89 c -41.21,-9.06 -72.82,-29.95 -93.73,-61.18 -20.94,-31.22 -31.23,-72.42 -31.24,-122.119 -0.02,-53.071 14.35,-93.789 35.86,-126.871 32.29,-49.621 80.13,-82.211 119.22,-116.27 19.56,-17.012 36.93,-34.34 49.32,-54.058 12.39,-19.75 19.92,-41.821 19.94,-69.051 0,-25.422 -5.61,-41.77 -14.73,-51.66 -9.08,-9.871 -22.26,-14.262 -39.74,-14.289 -17.49,0.027 -30.67,4.418 -39.76,14.289 -9.11,9.89 -14.72,26.238 -14.72,51.66 v 62.39 h -118.52 v -55.089 c 0,-50.243 10.57,-91.973 32.05,-123.461 21.45,-31.5 53.87,-52.391 96.13,-60.903 l 0.99,4.903 h -5 V 350.18 h 103.92 v 58.211 h -5 l 1,-4.903 c 41.74,8.524 74.13,29.403 95.71,60.891 21.61,31.473 32.44,73.211 32.45,123.473 0.02,53.07 -14.35,93.777 -35.86,126.859 -32.29,49.629 -80.13,82.219 -119.21,116.269 -19.57,17.012 -36.94,34.34 -49.33,54.059 -12.39,19.75 -19.92,41.82 -19.94,69.051 -0.01,25.48 5.15,42.23 13.81,52.33 8.62,10.07 21.13,14.62 38.58,14.67 17.44,-0.05 29.96,-4.6 38.58,-14.67 8.65,-10.1 13.82,-26.85 13.81,-52.33 v -35.25 h 118.51 v 27.961 c 0,50.238 -10.57,91.709 -31.91,122.939 -21.33,31.24 -53.48,51.86 -95.2,60.37 l -1,-4.9 h 5 v 59.26 h -103.92 v -59.26 h 5 l -1.07,4.89 1.07,-4.89"
         style="fill:#373d43;fill-opacity:1;fill-rule:nonzero;stroke:none"
         id="path28" />
      <path
         d="m 4539.71,3566.04 c 8.83,50.12 21.58,174.5 -54.07,235.5 -96.06,77.47 -164.23,-61.97 -247.89,46.48 -83.67,108.46 -108.46,343.96 -356.35,340.86 -247.89,-3.1 -266.49,-142.54 -266.49,-189.02 0,-46.48 -74.36,-80.57 -89.86,-80.57 -15.5,0 -102.26,40.28 -133.24,-49.58 -30.99,-89.86 -9.98,-141.83 -59.22,-143.73 -49.24,-1.9 -110.39,65.26 -177.42,31.68 -67.03,-33.58 -67.03,-104.85 -94.92,-129.64 -27.89,-24.79 -74.37,18.59 -136.34,-6.2 -37.56,-15.02 -48.88,-39.1 -52.02,-55.78 h 1667.82"
         style="fill:#ffffff;fill-opacity:1;fill-rule:nonzero;stroke:none"
         id="path30" />
      <path
         d="m 4539.71,3566.04 4.92,-0.86 c 3.17,17.98 6.83,45.36 6.83,76.07 0,27.94 -3.02,58.65 -12.34,87.6 -9.32,28.93 -25.01,56.16 -50.35,76.58 -23.83,19.29 -46.74,25.88 -68.23,25.83 -20.19,-0.01 -39.02,-5.58 -57.01,-10.95 -17.98,-5.39 -35.14,-10.55 -51.8,-10.53 -11.33,0.01 -22.46,2.3 -33.99,8.52 -11.52,6.24 -23.5,16.52 -36.04,32.78 -40.77,52.69 -67.95,138.01 -115.43,210.53 -23.78,36.26 -52.81,69.39 -91.49,93.43 -38.67,24.06 -86.92,38.88 -148.56,38.87 -1.62,0 -3.25,-0.01 -4.89,-0.03 -124.81,-1.52 -193.15,-37.57 -229.91,-79.97 -36.75,-42.37 -41.51,-90.19 -41.51,-114.05 0.01,-10.25 -4.09,-20.07 -10.88,-29.22 -10.13,-13.71 -26.23,-25.54 -41.15,-33.73 -7.45,-4.11 -14.61,-7.32 -20.5,-9.47 -5.82,-2.17 -10.67,-3.2 -12.33,-3.15 -0.88,-0.03 -3.65,0.44 -7.13,1.28 -10.67,2.47 -29.05,7.72 -49.21,7.72 -14.99,0.01 -31.17,-2.92 -45.8,-12.31 -14.63,-9.37 -27.4,-25.12 -35.83,-49.63 -15.69,-45.51 -18.25,-81.59 -22.94,-105.53 -2.31,-11.98 -5.23,-20.69 -9.73,-26.02 -4.47,-5.28 -10.51,-8.3 -22.01,-8.83 l -1.89,-0.03 c -17.69,-0.1 -38.65,9.75 -61.44,20.12 -22.83,10.29 -47.64,20.98 -74.33,21.01 -13.61,0.02 -27.67,-2.85 -41.81,-9.94 -34.86,-17.43 -52.41,-44.95 -64.42,-70.45 -6.03,-12.77 -10.76,-25.1 -15.63,-35.56 -4.85,-10.48 -9.87,-18.99 -15.96,-24.37 -5.63,-4.95 -11.78,-6.64 -19.8,-6.69 -8.71,-0.02 -19.27,2.3 -31.26,4.76 -12,2.44 -25.46,4.95 -40.24,4.95 -13.51,0.01 -28.13,-2.13 -43.57,-8.31 -19.47,-7.77 -32.49,-18.08 -40.98,-28.8 -8.49,-10.7 -12.41,-21.71 -14.1,-30.69 l -1.12,-5.92 H 4543.9 l 0.73,4.13 -4.92,0.86 v 5 H 2871.89 v -5 l 4.91,-0.92 c 1.46,7.7 4.77,17.07 12.11,26.33 7.35,9.25 18.77,18.49 36.85,25.73 14.17,5.66 27.39,7.59 39.86,7.59 13.64,0.01 26.37,-2.33 38.24,-4.75 11.88,-2.4 22.86,-4.93 33.26,-4.96 9.46,-0.04 18.76,2.33 26.45,9.22 7.86,7.02 13.29,16.72 18.38,27.62 7.6,16.38 14.39,35.74 25.36,53.94 10.99,18.21 25.94,35.22 50.1,47.34 12.75,6.38 25.1,8.89 37.33,8.89 23.92,0.04 47.53,-9.84 70.21,-20.12 22.7,-10.19 44.32,-20.92 65.56,-21.01 l 2.27,0.04 c 13.12,0.43 22.92,4.61 29.32,12.42 4.8,5.8 7.66,13.07 9.86,21.56 6.48,25.42 7.35,63.21 24.57,113.13 7.92,22.87 19.24,36.4 31.78,44.47 12.56,8.07 26.67,10.73 40.4,10.73 12.3,0.01 24.2,-2.16 33.98,-4.37 4.9,-1.11 9.26,-2.23 12.95,-3.09 3.74,-0.85 6.62,-1.51 9.41,-1.54 2.81,0.02 5.91,0.67 9.71,1.76 13.1,3.83 33.76,13.57 51.72,27.83 8.96,7.13 17.22,15.39 23.34,24.75 6.11,9.33 10.09,19.87 10.09,31.23 0,22.61 4.54,67.75 39.06,107.5 34.51,39.72 99.41,74.94 222.49,76.52 1.6,0.02 3.19,0.03 4.76,0.03 60.06,-0.02 106.21,-14.33 143.28,-37.36 55.58,-34.53 90.97,-89.11 120.23,-145.62 29.3,-56.48 52.25,-114.66 84.06,-155.96 13.16,-17.07 26.16,-28.41 39.19,-35.46 13.03,-7.07 26.05,-9.74 38.75,-9.73 18.72,0.02 36.72,5.61 54.67,10.95 17.95,5.38 35.84,10.55 54.14,10.53 19.49,-0.04 39.58,-5.62 61.96,-23.61 23.49,-18.94 38.2,-44.28 47.1,-71.87 8.89,-27.57 11.87,-57.32 11.86,-84.53 0,-29.92 -3.58,-56.77 -6.68,-74.34 l 4.93,-0.87 v 5 -5"
         style="fill:#373d43;fill-opacity:1;fill-rule:nonzero;stroke:none"
         id="path32" />
      <path
         d="m 4448.48,3486.77 c 4.45,25.28 10.89,88 -27.27,118.77 -48.45,39.07 -82.82,-31.26 -125.02,23.43 -42.19,54.7 -54.69,173.47 -179.7,171.91 -125.02,-1.57 -134.4,-71.89 -134.4,-95.33 0,-23.44 -37.51,-40.63 -45.32,-40.63 -7.81,0 -51.57,20.31 -67.2,-25.01 -15.62,-45.32 -5.03,-71.53 -29.86,-72.49 -24.84,-0.95 -55.68,32.92 -89.48,15.98 -33.8,-16.93 -33.8,-52.87 -47.87,-65.38 -14.06,-12.5 -37.51,9.38 -68.76,-3.12 -18.94,-7.58 -24.65,-19.72 -26.24,-28.13 h 841.12"
         style="fill:#ffffff;fill-opacity:1;fill-rule:nonzero;stroke:none"
         id="path34" />
      <path
         d="m 4448.48,3486.77 4.92,-0.87 c 1.62,9.17 3.48,23.12 3.49,38.8 -0.01,14.27 -1.54,30 -6.35,44.94 -4.8,14.92 -12.96,29.12 -26.19,39.79 -12.38,10.05 -24.63,13.62 -35.97,13.57 -10.65,-0.01 -20.38,-2.92 -29.46,-5.62 -9.08,-2.74 -17.52,-5.23 -25.41,-5.21 -5.38,0.01 -10.52,1.06 -15.97,4 -5.43,2.94 -11.22,7.86 -17.39,15.86 -20.18,25.99 -33.95,69.07 -58.1,106.02 -12.12,18.48 -27,35.49 -46.91,47.86 -19.89,12.39 -44.75,20 -76.22,19.98 l -2.5,-0.01 c -63.37,-0.75 -98.69,-19.15 -117.79,-41.19 -19.09,-22.02 -21.54,-46.8 -21.54,-59.14 0,-4.49 -1.79,-8.93 -5,-13.26 -4.77,-6.48 -12.64,-12.31 -19.96,-16.32 -3.65,-2.01 -7.16,-3.58 -9.99,-4.61 -2.77,-1.06 -5.15,-1.5 -5.37,-1.44 -0.01,-0.03 -1.34,0.16 -3.03,0.58 -5.3,1.21 -14.8,3.95 -25.38,3.96 -7.87,0 -16.55,-1.54 -24.44,-6.6 -7.9,-5.05 -14.7,-13.55 -19.08,-26.32 -8.01,-23.24 -9.33,-41.73 -11.65,-53.55 -1.13,-5.92 -2.58,-9.92 -4.38,-12.01 -0.91,-1.08 -1.86,-1.81 -3.28,-2.43 -1.41,-0.59 -3.35,-1.03 -6.01,-1.13 l -0.85,-0.02 c -8.05,-0.1 -18.46,4.65 -29.98,9.93 -11.54,5.19 -24.36,10.79 -38.51,10.82 -7.2,0.01 -14.72,-1.52 -22.19,-5.27 -18.25,-9.11 -27.48,-23.63 -33.62,-36.69 -3.09,-6.55 -5.48,-12.79 -7.88,-17.95 -2.39,-5.18 -4.82,-9.18 -7.45,-11.48 -2.33,-2.02 -4.65,-2.7 -8.34,-2.75 -3.98,-0.02 -9.2,1.1 -15.27,2.35 -6.09,1.23 -13.05,2.55 -20.79,2.55 -7.07,0 -14.79,-1.12 -22.89,-4.37 -10.17,-4.06 -17.13,-9.52 -21.69,-15.29 -4.58,-5.75 -6.7,-11.71 -7.61,-16.56 l -1.11,-5.92 h 851.33 l 0.73,4.13 -4.92,0.87 v 5 h -841.12 v -5 l 4.92,-0.93 c 0.67,3.57 2.19,7.89 5.61,12.2 3.43,4.3 8.79,8.69 17.57,12.21 6.83,2.73 13.15,3.65 19.18,3.66 6.59,0 12.84,-1.14 18.79,-2.35 5.97,-1.2 11.61,-2.53 17.27,-2.55 5.13,-0.05 10.6,1.32 14.99,5.28 4.4,3.94 7.24,9.13 9.87,14.73 3.9,8.44 7.29,18.07 12.66,26.97 5.39,8.91 12.55,17.06 24.24,22.94 6.09,3.04 11.9,4.21 17.72,4.22 11.38,0.04 22.99,-4.74 34.39,-9.93 11.43,-5.09 22.5,-10.72 34.1,-10.82 l 1.23,0.03 c 3.54,0.13 6.71,0.73 9.53,1.92 5,2.06 8.44,6.14 10.41,10.74 3,6.95 3.9,15.36 5.58,25.82 1.65,10.45 3.89,22.9 8.88,37.37 3.86,11.13 9.21,17.41 15.02,21.16 5.82,3.73 12.42,5.01 19.04,5.02 5.91,0 11.74,-1.05 16.59,-2.15 2.43,-0.55 4.61,-1.11 6.51,-1.55 1.95,-0.44 3.43,-0.81 5.31,-0.84 1.85,0.02 3.54,0.4 5.59,0.98 6.99,2.06 17.55,7.05 26.93,14.48 4.67,3.71 9.02,8.05 12.3,13.06 3.28,5 5.5,10.79 5.5,17.11 0,11.09 2.24,33.2 19.09,52.59 16.84,19.37 48.72,36.92 110.37,37.74 l 2.37,0.01 c 29.89,-0.01 52.64,-7.11 70.94,-18.47 27.43,-17.02 45.06,-44.1 59.75,-72.47 14.72,-28.34 26.27,-57.75 42.62,-79.03 6.8,-8.81 13.6,-14.79 20.55,-18.55 6.95,-3.77 13.98,-5.21 20.73,-5.2 9.94,0.02 19.23,2.94 28.28,5.63 9.04,2.71 17.83,5.22 26.59,5.2 9.33,-0.04 18.77,-2.61 29.69,-11.36 11.39,-9.18 18.57,-21.49 22.95,-35.07 4.38,-13.56 5.87,-28.32 5.87,-41.87 0,-14.89 -1.79,-28.31 -3.34,-37.06 l 4.93,-0.87 v 5 -5"
         style="fill:#373d43;fill-opacity:1;fill-rule:nonzero;stroke:none"
         id="path36" />
      <path
         d="m 1618.63,4000.25 c 4.26,24.13 10.39,84 -26.03,113.38 -46.24,37.29 -79.06,-29.84 -119.34,22.37 -40.28,52.22 -52.21,165.59 -171.56,164.1 -119.35,-1.49 -128.3,-68.62 -128.3,-91 0,-22.38 -35.8,-38.79 -43.26,-38.79 -7.46,0 -49.23,19.4 -64.15,-23.86 -14.91,-43.27 -4.8,-68.29 -28.5,-69.2 -23.71,-0.92 -53.154,31.42 -85.424,15.25 -32.269,-16.17 -32.269,-50.48 -45.699,-62.42 -13.426,-11.93 -35.801,8.96 -65.637,-2.98 -18.082,-7.23 -23.531,-18.82 -25.046,-26.85 h 802.946"
         style="fill:#ffffff;fill-opacity:1;fill-rule:nonzero;stroke:none"
         id="path38" />
      <path
         d="m 1618.63,4000.25 4.92,-0.87 c 1.55,8.76 3.33,22.08 3.34,37.08 -0.01,13.64 -1.47,28.68 -6.07,42.97 -4.6,14.27 -12.4,27.87 -25.08,38.09 -11.85,9.62 -23.61,13.05 -34.48,13.01 -10.21,-0.02 -19.52,-2.81 -28.19,-5.39 -8.67,-2.6 -16.7,-4.98 -24.19,-4.96 -5.11,0.02 -9.97,1.01 -15.13,3.79 -5.16,2.79 -10.66,7.47 -16.53,15.08 -19.23,24.76 -32.39,65.9 -55.46,101.2 -11.58,17.66 -25.81,33.93 -44.85,45.77 -19.03,11.84 -42.81,19.11 -72.89,19.1 l -2.38,-0.02 v 0 c -60.54,-0.71 -94.33,-18.29 -112.62,-39.39 -18.27,-21.08 -20.62,-44.79 -20.62,-56.61 0.01,-4.22 -1.68,-8.41 -4.72,-12.52 -4.53,-6.15 -12.02,-11.7 -18.98,-15.51 -3.48,-1.92 -6.82,-3.41 -9.51,-4.4 -2.63,-1 -4.9,-1.41 -5.05,-1.36 l -0.18,0.02 c -1.23,0.1 -5.17,1.19 -9.89,2.24 -4.8,1.05 -10.69,2.07 -17.05,2.08 -7.54,0 -15.87,-1.48 -23.45,-6.34 -7.59,-4.85 -14.11,-13.01 -18.3,-25.24 -7.67,-22.21 -8.92,-39.89 -11.14,-51.15 -1.07,-5.64 -2.46,-9.42 -4.13,-11.37 -0.85,-0.99 -1.73,-1.67 -3.05,-2.24 -1.31,-0.56 -3.13,-0.97 -5.66,-1.07 l -0.8,-0.01 c -7.6,-0.1 -17.52,4.41 -28.52,9.45 -11.021,4.96 -23.282,10.32 -36.849,10.35 -6.91,0.01 -14.125,-1.46 -21.297,-5.07 -17.476,-8.71 -26.328,-22.63 -32.195,-35.12 -2.953,-6.26 -5.238,-12.21 -7.527,-17.13 -2.274,-4.94 -4.586,-8.73 -7.055,-10.89 -2.18,-1.88 -4.324,-2.52 -7.813,-2.57 -3.757,-0.02 -8.734,1.05 -14.535,2.24 -5.808,1.18 -12.476,2.44 -19.886,2.44 -6.774,0 -14.176,-1.08 -21.942,-4.19 -9.73,-3.88 -16.414,-9.13 -20.797,-14.66 -4.386,-5.53 -6.429,-11.26 -7.304,-15.9 l -1.118,-5.93 h 813.168 l 0.73,4.13 -4.92,0.87 v 5 H 815.684 v -5 l 4.914,-0.93 c 0.64,3.38 2.078,7.47 5.312,11.54 3.246,4.08 8.324,8.25 16.676,11.6 6.488,2.59 12.492,3.46 18.227,3.47 6.269,0 12.21,-1.08 17.894,-2.24 5.691,-1.14 11.082,-2.42 16.527,-2.44 4.93,-0.04 10.219,1.28 14.457,5.09 4.243,3.81 6.965,8.79 9.481,14.15 3.726,8.06 6.961,17.24 12.078,25.72 5.129,8.49 11.93,16.22 23.055,21.81 5.781,2.89 11.285,4 16.816,4.01 10.801,0.04 21.852,-4.51 32.729,-9.46 10.91,-4.86 21.49,-10.25 32.64,-10.34 l 1.19,0.02 c 3.4,0.13 6.45,0.7 9.17,1.85 4.83,1.99 8.17,5.95 10.06,10.38 2.88,6.68 3.74,14.72 5.34,24.7 1.57,9.97 3.71,21.84 8.47,35.64 3.67,10.58 8.75,16.52 14.25,20.07 5.51,3.54 11.76,4.75 18.05,4.76 5.62,0 11.16,-1 15.79,-2.05 2.31,-0.52 4.39,-1.05 6.21,-1.48 1.87,-0.41 3.29,-0.78 5.12,-0.81 1.81,0.02 3.43,0.39 5.4,0.95 6.71,1.98 16.81,6.75 25.79,13.86 4.47,3.56 8.64,7.71 11.79,12.52 3.14,4.81 5.28,10.38 5.28,16.46 0,10.56 2.13,31.6 18.17,50.06 16.03,18.43 46.39,35.16 105.19,35.94 l 2.26,0.02 c 28.51,-0.02 50.18,-6.78 67.61,-17.6 26.12,-16.21 42.94,-42.02 56.95,-69.09 14.05,-27.05 25.08,-55.13 40.72,-75.48 6.5,-8.43 13.02,-14.16 19.69,-17.77 6.66,-3.62 13.42,-5.01 19.89,-5 9.54,0.02 18.43,2.82 27.06,5.38 8.63,2.6 17,4.98 25.32,4.97 8.86,-0.05 17.81,-2.47 28.2,-10.8 10.83,-8.73 17.66,-20.44 21.84,-33.37 4.17,-12.91 5.59,-26.98 5.59,-39.9 0,-14.2 -1.71,-26.99 -3.19,-35.34 l 4.93,-0.87 v 5 -5"
         style="fill:#373d43;fill-opacity:1;fill-rule:nonzero;stroke:none"
         id="path40" />
      <path
         d="m 789.961,3432.99 c 2.516,14.26 6.144,49.62 -15.371,66.97 -27.32,22.03 -46.703,-17.62 -70.496,13.22 -23.789,30.84 -30.84,97.81 -101.332,96.93 -70.496,-0.88 -75.782,-40.54 -75.782,-53.75 0,-13.22 -21.148,-22.91 -25.554,-22.91 -4.406,0 -29.082,11.45 -37.891,-14.11 -8.812,-25.55 -2.836,-40.33 -16.84,-40.87 -14,-0.54 -31.39,18.56 -50.453,9.01 -19.062,-9.55 -19.062,-29.81 -26.992,-36.87 -7.93,-7.05 -21.148,5.29 -38.77,-1.76 -10.679,-4.27 -13.902,-11.12 -14.796,-15.86 h 474.277"
         style="fill:#ffffff;fill-opacity:1;fill-rule:nonzero;stroke:none"
         id="path42" />
      <path
         d="m 789.961,3432.99 4.926,-0.86 c 0.926,5.26 2,13.24 2,22.26 -0.004,8.2 -0.879,17.28 -3.684,26 -2.797,8.7 -7.609,17.13 -15.473,23.46 -7.3,5.95 -14.824,8.19 -21.652,8.14 -6.418,-0.01 -12.113,-1.74 -17.238,-3.26 -5.129,-1.55 -9.703,-2.87 -13.707,-2.85 -2.735,0.01 -5.219,0.52 -7.961,2 -2.734,1.47 -5.777,4.02 -9.121,8.35 -11.035,14.14 -18.863,38.48 -32.664,59.65 -6.942,10.58 -15.539,20.45 -27.117,27.64 -11.567,7.21 -26.043,11.61 -44.133,11.6 l -1.442,-0.01 v 0 c -36.109,-0.41 -56.773,-10.96 -68.039,-23.97 -11.246,-12.99 -12.676,-27.55 -12.676,-34.78 0,-1.94 -0.773,-3.99 -2.39,-6.18 -2.391,-3.27 -6.613,-6.44 -10.555,-8.59 -1.961,-1.08 -3.851,-1.93 -5.332,-2.46 l -1.816,-0.58 -0.485,-0.1 h -0.074 l 0.098,-1.13 v 1.13 h -0.098 l 0.098,-1.13 v 1.13 -1.08 l 0.125,1.08 h -0.125 v -1.08 l 0.125,1.08 c -0.371,0 -2.801,0.64 -5.637,1.28 -2.906,0.64 -6.531,1.27 -10.508,1.28 -4.711,0 -10.054,-0.93 -14.957,-4.07 -4.91,-3.13 -9.058,-8.41 -11.64,-15.96 -4.61,-13.36 -5.375,-24.05 -6.653,-30.49 -0.601,-3.23 -1.402,-5.15 -2.008,-5.8 l -1.019,-0.75 c -0.492,-0.21 -1.316,-0.42 -2.625,-0.47 h 0.004 l -0.399,-0.01 c -3.761,-0.09 -9.488,2.39 -16,5.41 -6.543,2.92 -14.031,6.26 -22.613,6.29 -4.363,0.01 -8.976,-0.94 -13.496,-3.21 h 0.004 c -10.875,-5.41 -16.43,-14.16 -19.953,-21.7 -1.785,-3.79 -3.145,-7.32 -4.453,-10.14 -1.293,-2.82 -2.575,-4.82 -3.672,-5.76 -0.863,-0.71 -1.488,-0.95 -3.254,-1 -1.871,-0.02 -4.727,0.57 -8.176,1.28 -3.457,0.71 -7.543,1.48 -12.152,1.49 -4.215,0 -8.875,-0.68 -13.723,-2.62 v 0 c -6.027,-2.41 -10.305,-5.73 -13.125,-9.29 -2.832,-3.57 -4.164,-7.28 -4.726,-10.29 l -1.118,-5.93 h 484.504 l 0.731,4.14 -4.926,0.86 v 5 H 315.684 v -5 l 4.914,-0.92 c 0.332,1.73 1.058,3.81 2.73,5.92 1.688,2.11 4.36,4.35 9.008,6.22 v 0 c 3.57,1.42 6.828,1.9 10.008,1.91 3.465,0 6.828,-0.6 10.16,-1.28 3.336,-0.67 6.609,-1.46 10.168,-1.49 3.207,-0.04 6.976,0.88 9.898,3.53 2.871,2.58 4.563,5.77 6.098,9.02 2.258,4.9 4.137,10.22 7.031,15 2.903,4.79 6.61,9 12.781,12.11 v 0 c 3.129,1.56 6.032,2.14 9.016,2.15 5.817,0.03 12.098,-2.48 18.492,-5.41 6.426,-2.83 12.813,-6.2 20.121,-6.29 l 0.778,0.02 h 0.004 c 2.187,0.08 4.242,0.45 6.136,1.25 3.383,1.38 5.789,4.27 7.016,7.19 1.887,4.42 2.348,9.23 3.305,15.1 0.922,5.85 2.164,12.71 4.914,20.69 2.066,5.93 4.765,8.98 7.59,10.81 2.828,1.82 6.097,2.48 9.554,2.49 3.082,0 6.211,-0.55 8.871,-1.16 1.336,-0.3 2.551,-0.61 3.661,-0.87 1.152,-0.25 2.015,-0.5 3.488,-0.53 1.426,0.02 2.484,0.28 3.762,0.64 4.289,1.27 10.363,4.15 15.933,8.55 2.766,2.2 5.375,4.79 7.402,7.88 2.016,3.07 3.457,6.75 3.457,10.84 -0.003,5.98 1.211,17.86 10.231,28.22 9.004,10.34 26.23,20.06 60.609,20.53 h 0.004 l 1.313,0.01 c 16.511,-0.02 28.883,-3.91 38.851,-10.09 14.926,-9.25 24.684,-24.13 32.903,-40.01 8.25,-15.86 14.746,-32.51 24.242,-44.89 3.969,-5.15 8.027,-8.75 12.277,-11.05 4.242,-2.31 8.625,-3.21 12.723,-3.2 6.058,0.02 11.48,1.76 16.57,3.26 5.094,1.54 9.844,2.86 14.375,2.85 4.824,-0.04 9.527,-1.27 15.375,-5.92 6.016,-4.86 9.852,-11.38 12.231,-18.75 2.375,-7.34 3.207,-15.45 3.203,-22.93 0,-8.23 -0.992,-15.68 -1.848,-20.53 l 4.922,-0.87 v 5 -5"
         style="fill:#373d43;fill-opacity:1;fill-rule:nonzero;stroke:none"
         id="path44" />
      <path
         d="m 3669.12,1551.42 c 0,0 63.59,22.44 97.25,22.44 33.66,0 67.32,-18.7 67.32,-18.7 l 3.74,-86.03 -41.14,-14.96 c 0,0 -3.74,-37.4 11.22,-48.62 14.96,-11.22 22.44,-33.66 22.46,-33.71 20.02,-60.3 -28.68,-143.3 -57.68,-192.99 -47.12,-80.73 -78.92,-90.47 -93.72,12.92 -5.85,40.85 -12.04,86.59 -5.71,127.76 7.48,48.61 -11.22,82.28 -11.22,82.28 l -18.7,130.9 26.18,18.71"
         style="fill:#373d43;fill-opacity:1;fill-rule:nonzero;stroke:none"
         id="path46" />
      <path
         d="m 3669.12,1551.42 1.67,-4.72 c 0.01,0 3.9,1.38 10.34,3.47 9.65,3.13 24.94,7.83 40.87,11.73 15.9,3.91 32.54,6.98 44.37,6.96 15.91,0.01 32.27,-4.48 44.55,-9.04 6.14,-2.28 11.27,-4.56 14.84,-6.26 1.78,-0.85 3.18,-1.55 4.12,-2.04 0.94,-0.49 1.38,-0.74 1.38,-0.73 l 2.43,4.37 -4.99,-0.22 3.58,-82.36 -40.65,-14.79 -0.32,-3.12 c -0.01,-0.12 -0.44,-4.42 -0.44,-10.61 0.01,-6.2 0.42,-14.26 2.21,-22.04 1.83,-7.74 4.91,-15.49 11.43,-20.47 6.54,-4.87 11.89,-12.74 15.42,-19.4 1.78,-3.32 3.12,-6.34 4,-8.5 0.44,-1.08 0.78,-1.95 0.99,-2.53 l 0.31,-0.87 c 3.06,-9.21 4.44,-19.08 4.44,-29.4 0.02,-26.57 -9.23,-56.14 -21.66,-84.16 -12.41,-28.04 -27.9,-54.52 -40.04,-75.32 -11.57,-19.83 -22.19,-35.25 -31.55,-45.44 -4.68,-5.1 -9.04,-8.88 -12.89,-11.27 -3.87,-2.42 -7.14,-3.4 -9.82,-3.4 -2.72,0.03 -5.1,0.89 -7.86,3.24 -4.11,3.51 -8.51,10.77 -12.34,22.08 -3.86,11.29 -7.23,26.54 -10,45.9 -4.1,28.62 -8.32,59.45 -8.31,89.18 0,12.66 0.76,25.12 2.6,37.11 1.29,8.37 1.83,16.31 1.83,23.74 -0.02,37.14 -13.37,61.26 -13.62,61.72 l -4.37,-2.42 4.95,0.7 -18.27,127.9 23.71,16.94 -2.91,4.07 1.67,-4.72 -1.67,4.72 -2.9,4.06 -28.66,-20.46 19.26,-134.83 0.45,-0.81 0.1,-0.18 c 1.19,-2.23 12.27,-24.16 12.26,-56.69 0,-6.95 -0.5,-14.38 -1.71,-22.22 -1.94,-12.61 -2.72,-25.57 -2.72,-38.63 0,-30.66 4.31,-61.93 8.42,-90.6 3.78,-26.34 8.61,-45.57 14.84,-58.74 3.14,-6.59 6.64,-11.71 10.83,-15.37 4.15,-3.65 9.2,-5.72 14.42,-5.69 5.14,0.01 10.18,1.84 15.11,4.91 14.68,9.29 30.03,29.89 47.78,60.16 12.15,20.81 27.85,47.61 40.55,76.31 12.7,28.72 22.49,59.35 22.52,88.21 0,11.21 -1.5,22.16 -4.95,32.56 -0.08,0.21 -2.03,6.07 -5.96,13.45 -3.96,7.37 -9.83,16.34 -18.25,22.69 -3.45,2.49 -6.19,8.04 -7.69,14.71 -1.53,6.62 -1.95,14.08 -1.95,19.8 0,2.86 0.1,5.29 0.2,7 l 0.14,1.96 0.05,0.65 -4.97,0.5 1.71,-4.7 44.59,16.21 -4.02,92.49 -2.45,1.36 c -0.37,0.13 -34.31,19.23 -69.75,19.33 -17.86,-0.04 -42.27,-5.76 -62.59,-11.41 -20.28,-5.66 -36.25,-11.3 -36.32,-11.32 l -0.67,-0.23 -0.57,-0.42 2.9,-4.06"
         style="fill:#373d43;fill-opacity:1;fill-rule:nonzero;stroke:none"
         id="path48" />
      <path
         d="m 2689.2,1955.35 c 0,0 175.79,-583.47 194.48,-639.57 18.7,-56.1 48.63,-104.73 48.63,-104.73 l 748.03,157.09 -11.22,183.28 -527.36,-11.23 29.92,452.56 -489.96,-11.22 7.48,-26.18"
         style="fill:#373d43;fill-opacity:1;fill-rule:nonzero;stroke:none"
         id="path50" />
      <path
         d="m 2689.2,1955.35 -4.79,-1.44 c 0,0 43.95,-145.87 90.24,-298.75 46.29,-152.92 94.88,-312.7 104.29,-340.96 18.94,-56.77 49,-105.58 49.11,-105.77 l 1.84,-2.99 755.71,158.7 -11.78,192.38 -526.71,-11.21 29.92,452.57 -501.9,-11.5 9.27,-32.43 0.01,-0.04 4.79,1.44 4.81,1.37 -5.7,19.96 478.02,10.95 -29.92,-452.55 528.01,11.23 10.67,-174.16 -743.81,-156.2 1.03,-4.9 4.25,2.62 c 0,0.01 -0.44,0.72 -1.28,2.14 -5.88,9.89 -30.7,53.05 -46.85,101.55 -9.28,27.85 -57.94,187.86 -104.21,340.69 -23.14,76.44 -45.7,151.13 -62.47,206.7 -8.39,27.79 -15.33,50.8 -20.17,66.86 -4.85,16.07 -7.58,25.16 -7.59,25.18 l -4.79,-1.44 4.81,1.37 -4.81,-1.37"
         style="fill:#373d43;fill-opacity:1;fill-rule:nonzero;stroke:none"
         id="path52" />
      <path
         d="m 2320.79,2469.62 c 0,0 50.5,-72.93 89.77,-100.98 39.27,-28.05 117.81,33.66 117.81,33.66 l -140.25,392.72 c 0,0 -61.72,-241.24 -67.33,-325.4"
         style="fill:#7fd29f;fill-opacity:1;fill-rule:nonzero;stroke:none"
         id="path54" />
      <path
         d="m 2320.79,2469.62 -4.11,-2.84 c 0.05,-0.07 12.72,-18.38 30.38,-40.27 17.69,-21.9 40.18,-47.32 60.59,-61.94 8.29,-5.93 18.06,-8.25 28.02,-8.24 21.93,0.08 45.53,10.73 64.02,21.14 18.45,10.44 31.64,20.8 31.77,20.9 l 2.83,2.23 -146.97,411.5 -4.05,-15.84 c 0,-0.03 -15.44,-60.37 -31.59,-131.27 -16.14,-70.96 -33,-152.22 -35.88,-195.03 l -0.11,-1.75 0.99,-1.43 4.11,2.84 4.99,-0.33 c 2.73,41.34 19.54,122.78 35.65,193.48 8.06,35.38 15.94,68.14 21.81,92.05 5.87,23.91 9.71,38.92 9.72,38.96 l -4.84,1.24 -4.71,-1.68 140.25,-392.72 4.71,1.68 -3.09,3.94 c 0,-0.01 -0.75,-0.59 -2.22,-1.69 -5.12,-3.82 -18.68,-13.49 -35.17,-22.12 -16.46,-8.67 -35.94,-16.15 -52.22,-16.1 -8.48,0.01 -15.95,1.92 -22.21,6.38 -18.86,13.44 -41.25,38.51 -58.62,60.08 -8.71,10.8 -16.2,20.73 -21.52,27.96 -2.65,3.62 -4.76,6.55 -6.21,8.58 -1.44,2.03 -2.2,3.14 -2.21,3.14 l -4.11,-2.85 4.99,-0.33 -4.99,0.33"
         style="fill:#373d43;fill-opacity:1;fill-rule:nonzero;stroke:none"
         id="path56" />
      <path
         d="m 2352.58,2796.89 123.43,-418.9 c 0,0 3.74,-48.62 82.28,-74.8 78.55,-26.18 475,-44.88 531.11,-33.66 56.1,11.22 104.72,74.8 86.02,104.72 -18.7,29.92 -130.91,295.48 -130.91,295.48 l -22.44,441.33 c 0,0 -142.12,97.25 -209.44,100.99 -67.33,3.74 -190.75,-14.96 -201.97,-14.96 -11.23,0 -235.64,-41.14 -243.12,-115.95 -7.48,-74.8 -14.96,-284.25 -14.96,-284.25"
         style="fill:#ffffff;fill-opacity:1;fill-rule:nonzero;stroke:none"
         id="path58" />
      <path
         d="m 2352.58,2796.89 -4.79,-1.41 123.42,-418.9 4.8,1.41 -4.99,-0.38 c 0.05,-0.64 1.18,-13.72 12.57,-30.06 11.38,-16.35 32.99,-35.75 73.12,-49.11 16.39,-5.44 44.72,-10.32 80.58,-14.8 107.42,-13.37 281.2,-22.43 381.4,-22.44 17.01,0 31.9,0.27 44.03,0.82 12.15,0.55 21.44,1.37 27.66,2.6 25.16,5.06 48.4,19.86 65.57,37.58 17.1,17.79 28.42,38.41 28.54,56.75 0.01,6.41 -1.48,12.6 -4.83,17.95 -2.1,3.34 -5.91,10.76 -10.73,20.8 -16.92,35.27 -46.91,103.83 -72.62,163.49 -12.86,29.83 -24.66,57.46 -33.24,77.62 -8.59,20.16 -13.94,32.83 -13.95,32.86 l -4.61,-1.94 5,0.25 -22.57,443.81 -2.05,1.4 c -0.07,0.05 -35.68,24.42 -79.84,49.32 -22.08,12.45 -46.29,25.03 -69.35,34.79 -23.08,9.74 -44.89,16.72 -62.79,17.74 -6.24,0.35 -12.91,0.5 -19.91,0.5 -34.96,0 -78.1,-3.88 -113.84,-7.75 -17.87,-1.94 -33.87,-3.87 -46.03,-5.32 -6.08,-0.72 -11.2,-1.33 -15.08,-1.75 -3.85,-0.42 -6.64,-0.64 -7.39,-0.63 -1.34,-0.02 -2.81,-0.2 -5.2,-0.53 -17.4,-2.47 -75.35,-13.81 -130.39,-33.48 -27.51,-9.84 -54.25,-21.73 -74.88,-35.86 -10.32,-7.07 -19.13,-14.71 -25.71,-23.09 -6.56,-8.37 -10.92,-17.57 -11.91,-27.49 -7.51,-75.19 -14.98,-284.5 -14.98,-284.57 l -0.03,-0.81 0.23,-0.78 4.79,1.41 5,-0.18 c 0,0.03 0.47,13.08 1.29,33.88 2.45,62.35 8.07,194.28 13.65,250.05 0.81,8.12 4.58,16.01 11,23.77 11.22,13.56 30.53,26.21 53.33,37.13 34.2,16.42 76.12,29.14 110.31,37.67 17.09,4.28 32.27,7.52 43.6,9.68 5.66,1.08 10.36,1.89 13.83,2.43 3.4,0.54 5.91,0.79 6.07,0.77 1.79,0.01 4.44,0.27 8.46,0.69 27.6,2.98 113.87,14.77 173.88,14.77 6.85,0 13.34,-0.16 19.35,-0.49 15.76,-0.85 36.96,-7.43 59.46,-16.97 33.8,-14.3 70.74,-35.11 99.15,-52.34 14.21,-8.61 26.3,-16.32 34.82,-21.88 4.26,-2.77 7.64,-5.01 9.94,-6.55 2.31,-1.55 3.52,-2.38 3.53,-2.38 l 2.82,4.12 -4.99,-0.25 22.48,-442.22 0.35,-0.81 c 0,-0.01 28.06,-66.4 58.46,-136.56 15.2,-35.08 30.98,-71.09 44.15,-100.24 6.58,-14.57 12.51,-27.42 17.4,-37.6 4.9,-10.21 8.68,-17.63 11.26,-21.78 2.21,-3.54 3.31,-7.74 3.31,-12.65 0.13,-14.03 -9.72,-33.35 -25.73,-49.79 -15.94,-16.51 -37.75,-30.24 -60.35,-34.73 -5.17,-1.04 -14.27,-1.89 -26.15,-2.42 -11.9,-0.54 -26.67,-0.81 -43.57,-0.81 -66.42,0 -165.82,4.03 -256.32,10.66 -45.25,3.31 -88.28,7.28 -123.85,11.71 -35.52,4.41 -63.74,9.37 -78.65,14.36 -38.42,12.83 -57.94,30.83 -68.07,45.34 -5.07,7.26 -7.77,13.69 -9.22,18.23 -0.72,2.27 -1.12,4.07 -1.34,5.26 l -0.21,1.32 -0.04,0.28 v 0.02 l -0.04,0.52 -123.57,419.4 -4.8,-1.41 5,-0.18 -5,0.18"
         style="fill:#373d43;fill-opacity:1;fill-rule:nonzero;stroke:none"
         id="path60" />
      <path
         d="m 2533.39,2961.95 -65.86,-124.11 -35.46,162.1 25.33,103.85 184.9,134.24 48.73,3.12 c 0,0 22.18,-18.32 34.85,-53.78 12.67,-35.46 10.14,-65.85 12.67,-75.98 2.53,-10.14 -53.2,-278.62 -53.2,-278.62 l -151.96,129.18"
         style="fill:#ffffff;fill-opacity:1;fill-rule:nonzero;stroke:none"
         id="path62" />
      <path
         d="m 2533.39,2961.95 -4.42,2.34 -59.47,-112.07 -32.3,147.66 24.63,100.94 182.23,132.31 47.29,3.03 -0.32,4.99 -3.19,-3.85 0.17,-0.15 c 2.09,-1.78 21.72,-19.38 33.16,-51.46 6.15,-17.21 8.62,-33.23 9.87,-46.28 0.62,-6.54 0.93,-12.32 1.25,-17.19 0.33,-4.9 0.61,-8.79 1.4,-12.04 v 0 l 2.29,0.57 -2.36,-0.19 0.07,-0.38 2.29,0.57 -2.36,-0.19 0.01,-0.22 c 0.03,-1.79 -0.78,-8.25 -2.23,-17.12 -5.06,-31.38 -17.81,-96.32 -29.28,-153.3 -5.73,-28.51 -11.15,-55.04 -15.13,-74.45 -3.99,-19.4 -6.53,-31.65 -6.53,-31.68 l 4.89,-1.02 3.24,3.81 -156.7,133.21 -2.92,-5.5 4.42,-2.34 -3.24,-3.81 158.39,-134.63 1.71,8.25 c 0,0 13.32,64.19 26.64,130.99 6.67,33.41 13.33,67.46 18.33,94.5 2.5,13.53 4.59,25.29 6.06,34.37 1.46,9.16 2.32,15.28 2.35,18.72 -0.01,0.68 0,1.25 -0.23,2.25 l -0.08,0.31 0.08,-0.3 c -0.47,1.8 -0.83,5.51 -1.13,10.27 -0.95,14.41 -1.9,38.82 -11.68,66.18 -13.13,36.71 -35.97,55.6 -36.38,55.96 l -1.53,1.26 -52.15,-3.35 -187.55,-136.16 -26.04,-106.76 38.62,-176.55 72.25,136.15 -4.42,2.35 -3.24,-3.81 3.24,3.81"
         style="fill:#373d43;fill-opacity:1;fill-rule:nonzero;stroke:none"
         id="path64" />
      <path
         d="m 2483.49,3126.03 c 0,0 -93.51,-344.1 -104.73,-452.56 -11.22,-108.47 -7.47,-295.48 -7.47,-295.48 0,0 -89.77,78.54 -100.99,134.65 -11.22,56.1 -3.74,239.37 -11.22,258.07 -7.48,18.7 -74.81,71.06 -74.81,71.06 0,0 -231.89,-93.5 -258.07,-112.2 -26.18,-18.71 -104.72,-78.54 -160.82,-59.84 -56.11,18.7 -116.75,97.24 -84.88,183.26 22.68,61.26 230.74,108.47 230.74,108.47 l 198.23,104.72 c 0,0 112.21,153.35 157.09,175.79 44.88,22.44 216.93,-115.94 216.93,-115.94"
         style="fill:#7fd29f;fill-opacity:1;fill-rule:nonzero;stroke:none"
         id="path66" />
      <path
         d="m 2483.49,3126.03 -4.83,1.31 c 0,-0.02 -23.39,-86.07 -48.18,-185.71 -24.8,-99.71 -50.99,-212.72 -56.69,-267.65 -6.77,-65.45 -8.1,-158.83 -8.1,-223.19 0,-42.91 0.6,-72.87 0.6,-72.9 l 5,0.1 3.29,3.77 c -0.01,0 -1.36,1.18 -3.81,3.41 -8.56,7.81 -30.26,28.22 -50.92,52.63 -20.69,24.35 -40.19,53 -44.65,75.82 -2.7,13.45 -4.36,35.34 -5.34,60.57 -1.49,37.9 -1.53,83.54 -1.9,121.49 -0.19,18.97 -0.46,36.02 -1.03,49.29 -0.29,6.64 -0.66,12.33 -1.14,16.91 -0.52,4.62 -1.01,7.93 -2.07,10.68 -2.55,6.14 -8.38,12.84 -15.91,20.63 -22.51,23.03 -60.38,52.45 -60.47,52.53 l -2.27,1.77 -2.67,-1.08 c -0.01,-0.01 -58,-23.39 -119.28,-49.12 -30.64,-12.86 -62.11,-26.32 -87.59,-37.74 -12.75,-5.71 -24,-10.92 -32.93,-15.31 -8.96,-4.41 -15.48,-7.89 -19.3,-10.61 -11.43,-8.16 -32.43,-23.85 -57.05,-37.48 -24.57,-13.66 -52.73,-25.05 -77.58,-25 -7.59,0 -14.86,1.04 -21.71,3.32 -21.5,7.14 -44.27,23.9 -61.44,46.82 -17.2,22.92 -28.84,51.88 -28.83,83.48 0,14.98 2.6,30.56 8.5,46.49 4.73,13.21 21.1,27.46 43.42,40.19 33.42,19.21 79.49,35.6 117.06,47.06 18.8,5.74 35.49,10.26 47.47,13.35 5.99,1.54 10.8,2.72 14.11,3.52 3.31,0.8 5.09,1.2 5.1,1.2 l 0.64,0.15 199.84,105.57 0.68,0.93 c 0,0.01 1.74,2.37 4.88,6.6 11.01,14.78 39.2,52.11 69.46,88.1 15.13,18 30.79,35.67 45.01,49.97 14.18,14.3 27.15,25.26 35.93,29.6 2.46,1.23 5.76,1.94 9.88,1.93 12.76,0.09 32.5,-6.97 54.05,-17.96 32.42,-16.43 69.43,-41.3 98.23,-62.04 14.4,-10.37 26.77,-19.7 35.52,-26.44 4.38,-3.37 7.86,-6.09 10.24,-7.96 2.37,-1.88 3.64,-2.9 3.64,-2.9 l 3.14,3.9 -4.83,1.31 4.83,-1.31 3.13,3.89 c -0.07,0.05 -36.94,29.72 -81.15,59.46 -22.11,14.87 -46.04,29.76 -68.23,41.01 -22.25,11.22 -42.52,18.96 -58.57,19.04 -5.21,0 -10.07,-0.86 -14.35,-2.99 -12.37,-6.25 -27.8,-20.24 -44.85,-37.94 -50.87,-53.01 -113.96,-139.28 -114.03,-139.37 l 4.03,-2.95 -2.33,4.42 -198.23,-104.72 2.33,-4.42 -1.11,4.88 c -0.11,-0.03 -52.25,-11.86 -107.42,-31.43 -27.6,-9.8 -55.95,-21.51 -79.08,-34.79 -23.06,-13.36 -41.21,-27.97 -47.82,-45.39 -6.31,-17.02 -9.12,-33.82 -9.12,-49.96 0,-34.09 12.53,-65.09 30.83,-89.48 18.33,-24.4 42.42,-42.33 66.28,-50.31 8,-2.67 16.37,-3.83 24.87,-3.83 27.84,0.05 57.09,12.25 82.43,26.25 25.3,14.02 46.72,30.03 58.01,38.1 2.71,1.96 9.17,5.49 17.9,9.77 30.71,15.09 90.6,40.61 142.67,62.29 26.05,10.84 50.17,20.74 67.77,27.92 17.61,7.19 28.66,11.64 28.69,11.65 l -1.87,4.64 -3.07,-3.94 c 0.01,-0.01 4.17,-3.24 10.56,-8.42 9.6,-7.76 24.18,-19.85 36.97,-31.67 6.39,-5.91 12.34,-11.75 16.95,-16.87 4.61,-5.07 7.87,-9.66 8.76,-12.02 0.2,-0.47 0.61,-2.07 0.93,-4.25 1.27,-8.34 1.94,-25.35 2.3,-46.51 0.55,-31.82 0.48,-73.35 1.27,-111.91 0.8,-38.61 2.38,-74.03 6.46,-94.52 3.03,-15.06 11.05,-30.9 21.23,-46.47 30.56,-46.59 81.21,-90.8 81.36,-90.96 l 8.52,-7.45 -0.23,11.31 c 0,0.02 -0.15,7.46 -0.29,20.29 -0.15,12.82 -0.3,31.01 -0.3,52.41 -0.01,64.19 1.35,157.48 8.04,222.16 5.52,53.54 31.69,166.8 56.45,266.26 12.39,49.76 24.42,96.14 33.36,130.08 4.47,16.97 8.16,30.83 10.74,40.44 2.57,9.62 4.03,14.97 4.03,14.98 l 0.86,3.16 -2.55,2.05 -3.13,-3.89"
         style="fill:#373d43;fill-opacity:1;fill-rule:nonzero;stroke:none"
         id="path68" />
      <path
         d="m 1938.52,2855.94 c 7.4,-7.8 14.41,-17.01 20.77,-27.91 l 8.63,5.04 c -6.73,11.54 -14.21,21.39 -22.15,29.75 l -7.25,-6.88"
         style="fill:#373d43;fill-opacity:1;fill-rule:nonzero;stroke:none"
         id="path70" />
      <path
         d="m 1814.94,2896.71 0.3,0.05 c 1.57,0.27 9.18,1.47 20.38,1.47 22.12,0.01 57.98,-4.7 89.49,-29.96 l 6.25,7.81 c -34.03,27.23 -72.3,32.15 -95.74,32.15 -13.62,0 -22.33,-1.66 -22.56,-1.7 l 1.88,-9.82"
         style="fill:#373d43;fill-opacity:1;fill-rule:nonzero;stroke:none"
         id="path72" />
      <path
         d="m 2483.49,3126.03 c 0,0 -25.2,20.25 -58.79,43.99 l -90.82,-156.2 26.18,-59.84 -44.88,-78.55 52.36,-433.86 3.17,-5.94 c -0.21,63.97 0.77,167.43 8.05,237.84 11.22,108.46 104.73,452.56 104.73,452.56"
         style="fill:#7fd29f;fill-opacity:1;fill-rule:nonzero;stroke:none"
         id="path74" />
      <path
         d="m 2483.49,3126.03 3.13,3.89 c -0.05,0.04 -25.31,20.35 -59.04,44.19 l -4.46,3.15 -94.84,-163.12 26.2,-59.86 -44.46,-77.8 52.67,-436.44 3.61,-6.76 9.48,-17.76 -0.07,20.13 c -0.01,4.86 -0.02,9.94 -0.02,15.22 -0.01,64.18 1.35,157.41 8.04,222.08 5.52,53.54 31.69,166.8 56.45,266.26 12.39,49.76 24.42,96.14 33.36,130.08 4.47,16.97 8.16,30.83 10.74,40.44 2.57,9.62 4.03,14.97 4.03,14.98 l 0.86,3.16 -2.55,2.05 -3.13,-3.89 -4.83,1.31 c 0,-0.02 -23.39,-86.07 -48.18,-185.71 -24.8,-99.71 -50.99,-212.72 -56.69,-267.65 -6.76,-65.44 -8.1,-158.76 -8.1,-223.11 0,-5.29 0.01,-10.38 0.02,-15.25 l 5,0.01 4.41,2.36 -2.72,5.11 -52.06,431.29 45.31,79.29 -26.17,59.82 89.54,154.01 -4.32,2.51 -2.89,-4.08 c 16.73,-11.82 31.38,-22.79 41.84,-30.79 5.23,-4 9.41,-7.26 12.29,-9.52 2.87,-2.26 4.41,-3.5 4.41,-3.5 l 3.14,3.9 -4.83,1.31 4.83,-1.31"
         style="fill:#373d43;fill-opacity:1;fill-rule:nonzero;stroke:none"
         id="path76" />
      <path
         d="m 2118.89,2917.1 -20.77,21.64 -7.21,-6.92 20.76,-21.64"
         style="fill:#373d43;fill-opacity:1;fill-rule:nonzero;stroke:none"
         id="path78" />
      <path
         d="m 2187.88,2845.23 -46.43,48.37 -7.21,-6.92 46.43,-48.37"
         style="fill:#373d43;fill-opacity:1;fill-rule:nonzero;stroke:none"
         id="path80" />
      <path
         d="m 2342.98,3613.68 c 0,0 -54.62,-130.07 -49.42,-145.68 5.2,-15.6 -23.41,-59.83 -20.81,-93.64 2.6,-33.82 -13.01,-197.71 -2.6,-210.71 10.4,-13.01 7.8,-15.61 41.61,-18.21 33.82,-2.6 104.06,-2.6 104.06,-2.6 l 132.67,-215.91 130.07,254.93 7.8,52.03 c 0,0 72.83,111.85 80.63,148.27 7.81,36.42 20.81,161.28 -7.8,205.51 -28.61,44.21 -96.25,104.05 -195.1,127.46 -98.84,23.41 -179.49,-7.81 -179.49,-7.81 0,0 20.81,54.63 -13,33.82 -33.82,-20.81 -52.03,-106.65 -28.62,-127.46"
         style="fill:#ffffff;fill-opacity:1;fill-rule:nonzero;stroke:none"
         id="path82" />
      <path
         d="m 2342.98,3613.68 -4.61,1.93 c -0.01,-0.03 -12.47,-29.69 -24.95,-62.45 -6.24,-16.39 -12.49,-33.55 -17.2,-48.22 -2.35,-7.34 -4.33,-14.06 -5.73,-19.81 -1.4,-5.77 -2.26,-10.46 -2.28,-14.31 0.01,-1.49 0.11,-2.88 0.6,-4.4 0.22,-0.64 0.38,-1.62 0.38,-2.91 0.03,-3.39 -1.16,-8.69 -3.14,-14.88 -2.95,-9.33 -7.53,-20.77 -11.4,-32.82 -3.85,-12.06 -7.06,-24.74 -7.07,-36.98 0,-1.63 0.06,-3.25 0.18,-4.86 0.19,-2.46 0.28,-5.85 0.28,-9.94 0.01,-34.6 -6.51,-117.47 -6.51,-165.55 0,-9.26 0.24,-17.25 0.83,-23.52 0.3,-3.14 0.69,-5.86 1.23,-8.18 0.59,-2.34 1.14,-4.27 2.65,-6.26 2.49,-3.1 4.23,-5.64 6.19,-8.02 2.86,-3.6 6.8,-6.72 12.6,-8.37 5.81,-1.74 13.56,-2.68 26.35,-3.68 34.22,-2.62 104.37,-2.61 104.44,-2.61 v 5 l -4.26,-2.62 137.33,-223.5 134.49,263.59 7.92,52.83 -4.94,0.75 4.19,-2.73 c 0.02,0.04 18.26,28.04 37.51,60.67 9.62,16.31 19.5,33.78 27.5,49.53 8,15.81 14.13,29.69 16.32,39.75 4.27,19.98 9.92,64.75 9.94,109.36 -0.01,19.44 -1.08,38.82 -3.88,56.11 -2.83,17.3 -7.28,32.52 -14.55,43.8 -29.42,45.39 -97.9,105.82 -198.15,129.61 -27.38,6.49 -53.38,8.85 -76.7,8.85 -62.19,-0.02 -105.37,-16.71 -105.74,-16.85 l 1.8,-4.67 4.67,-1.78 c 0.04,0.1 1.66,4.37 3.31,10.16 1.63,5.82 3.33,13.07 3.36,19.67 -0.03,3.45 -0.42,6.83 -2.2,9.99 -0.9,1.57 -2.25,3.05 -3.99,4.04 -1.75,1.01 -3.78,1.48 -5.81,1.47 v 0 c -4.53,-0.06 -9.13,-1.92 -14.96,-5.47 v 0 c -13.16,-8.19 -23.18,-23.87 -30.34,-41.71 -7.11,-17.87 -11.19,-38.01 -11.21,-55.56 0.01,-7.94 0.84,-15.36 2.74,-21.88 1.91,-6.51 4.89,-12.2 9.49,-16.31 l 3.32,3.74 -4.61,1.93 4.61,-1.93 3.32,3.73 c -2.69,2.38 -4.99,6.32 -6.53,11.64 -1.55,5.29 -2.34,11.85 -2.34,19.08 -0.01,15.99 3.85,35.19 10.5,51.86 6.6,16.7 16.17,30.76 26.29,36.89 v 0 c 4.99,3.12 8.4,4.05 9.72,3.99 l 0.82,-0.14 c 0.06,-0.04 0.29,-0.14 0.63,-1.06 0.32,-0.89 0.55,-2.43 0.55,-4.3 0.02,-4.82 -1.45,-11.59 -2.98,-16.94 -0.76,-2.68 -1.53,-5.04 -2.1,-6.71 -0.57,-1.67 -0.93,-2.61 -0.93,-2.61 l -4,-10.5 10.48,4.05 0.42,0.16 c 4.54,1.68 45.1,16.02 101.71,16.02 22.65,0 47.87,-2.29 74.4,-8.58 97.45,-23.02 164.24,-82.26 192.05,-125.31 6.06,-9.32 10.42,-23.44 13.07,-39.97 2.69,-16.52 3.76,-35.44 3.76,-54.51 0.01,-43.7 -5.65,-88.33 -9.72,-107.26 -1.71,-8.16 -7.61,-21.91 -15.46,-37.32 -11.77,-23.19 -27.91,-50.56 -41.09,-72.08 -6.59,-10.76 -12.44,-20.07 -16.64,-26.68 -4.2,-6.61 -6.74,-10.5 -6.74,-10.52 l -0.6,-0.91 -7.84,-52.29 -125.65,-246.27 -129.46,210.7 h -2.8 c -0.04,0 -17.52,0 -39.27,0.32 -21.74,0.32 -47.73,0.98 -64.4,2.26 -16.79,1.25 -24.21,2.72 -27.62,4.63 -1.74,0.95 -2.83,1.96 -4.39,3.82 -1.54,1.84 -3.38,4.51 -6.09,7.9 l -0.07,-0.06 0.09,0.05 -0.02,0.01 -0.07,-0.06 0.09,0.05 c -0.17,0.27 -0.62,1.51 -0.95,3.29 -1.09,5.43 -1.61,15.69 -1.59,28.43 -0.01,47.44 6.5,130.12 6.51,165.55 0,4.24 -0.09,7.82 -0.31,10.71 -0.1,1.34 -0.15,2.7 -0.15,4.09 -0.04,13.95 5.13,30.35 10.51,45.42 2.69,7.55 5.4,14.78 7.49,21.36 2.07,6.61 3.58,12.5 3.61,17.9 0,2.07 -0.24,4.1 -0.89,6.08 l -0.01,0.03 -0.08,1.2 c -0.02,2.23 0.67,6.57 1.99,11.94 4.62,18.95 16.51,51.41 27.19,78.86 5.35,13.75 10.4,26.28 14.12,35.38 3.71,9.1 6.07,14.73 6.08,14.74 l 1.38,3.3 -2.67,2.37 -3.32,-3.73"
         style="fill:#373d43;fill-opacity:1;fill-rule:nonzero;stroke:none"
         id="path84" />
      <path
         d="m 2301.15,3491.26 0.18,1.65 -0.21,-1.65 h 0.03 l 0.18,1.65 -0.21,-1.65 c 0.32,-0.07 18.91,-2.38 40.75,-26.6 l 7.43,6.69 c -24.3,27.03 -46.16,29.79 -47.07,29.85 l -1.08,-9.94"
         style="fill:#373d43;fill-opacity:1;fill-rule:nonzero;stroke:none"
         id="path86" />
      <path
         d="m 2351.29,3448.91 -51.62,-141.29 55.79,-5.87 1.05,9.95 -43.05,4.53 47.22,129.25 -9.39,3.43"
         style="fill:#373d43;fill-opacity:1;fill-rule:nonzero;stroke:none"
         id="path88" />
      <path
         d="m 2449.51,3411.7 c -1.85,-12.8 -8.54,-22.42 -14.94,-21.5 -6.4,0.93 -10.08,12.06 -8.22,24.86 1.85,12.79 8.54,22.42 14.94,21.48 6.4,-0.93 10.08,-12.05 8.22,-24.84"
         style="fill:#373d43;fill-opacity:1;fill-rule:nonzero;stroke:none"
         id="path90" />
      <path
         d="m 2324.69,3432.77 c -1.57,-12.84 -8.04,-22.6 -14.46,-21.82 -6.42,0.78 -10.35,11.82 -8.78,24.66 1.56,12.83 8.04,22.6 14.45,21.82 6.42,-0.79 10.35,-11.83 8.79,-24.66"
         style="fill:#373d43;fill-opacity:1;fill-rule:nonzero;stroke:none"
         id="path92" />
      <path
         d="m 2415.82,3142.84 130.06,23.41 49.43,54.63 -98.85,-202.91 -80.64,124.87"
         style="fill:#373d43;fill-opacity:1;fill-rule:nonzero;stroke:none"
         id="path94" />
      <path
         d="m 2415.82,3142.84 0.89,-4.92 131.73,23.71 26.96,29.79 -79.55,-163.28 -75.83,117.41 -4.2,-2.71 0.89,-4.92 -0.89,4.92 -4.2,-2.72 85.45,-132.31 118.16,242.53 -71.91,-79.47 -135.77,-24.44 4.07,-6.31 4.2,2.72"
         style="fill:#373d43;fill-opacity:1;fill-rule:nonzero;stroke:none"
         id="path96" />
      <path
         d="m 2392.96,3454.87 0.24,0.1 c 2.78,1.17 28.4,11.31 60.29,11.29 14.66,0 30.63,-2.12 46.39,-8.13 l 3.56,9.35 c -17.14,6.52 -34.33,8.78 -49.95,8.78 -36.25,-0.03 -64.13,-12.07 -64.49,-12.21 l 3.96,-9.18"
         style="fill:#373d43;fill-opacity:1;fill-rule:nonzero;stroke:none"
         id="path98" />
      <path
         d="m 2311.27,3273.13 52.02,-5.2 1,9.95 -52.03,5.2"
         style="fill:#373d43;fill-opacity:1;fill-rule:nonzero;stroke:none"
         id="path100" />
      <path
         d="m 2415.54,3369.36 46.82,-2.6 0.56,9.98 -46.82,2.61"
         style="fill:#373d43;fill-opacity:1;fill-rule:nonzero;stroke:none"
         id="path102" />
      <path
         d="m 2313.52,3402.45 -20.81,7.8 -3.51,-9.36 20.81,-7.8"
         style="fill:#373d43;fill-opacity:1;fill-rule:nonzero;stroke:none"
         id="path104" />
      <path
         d="m 2766.99,3382.16 c 7.81,36.42 20.81,161.28 -7.8,205.51 -28.61,44.21 -96.25,104.05 -195.1,127.46 -98.84,23.41 -179.49,-7.81 -179.49,-7.81 0,0 20.81,54.63 -13,33.82 -33.82,-20.81 -52.03,-106.65 -28.62,-127.46 0,0 44.23,-46.82 67.64,-46.82 23.4,0 93.64,10.4 130.06,10.4 36.42,0 52.03,-23.41 54.63,-36.42 2.6,-13.01 -46.82,-59.83 -39.02,-85.84 7.8,-26.02 49.42,-28.62 49.42,-28.62 0,0 -26.01,-83.24 -7.8,-83.24 18.21,0 23.41,-7.8 31.21,13.01 7.81,20.81 41.62,62.43 57.24,44.22 15.6,-18.21 13.01,-67.64 5.19,-88.45 -7.8,-20.81 -57.22,-26.01 -57.22,-33.81 0,-7.81 41.62,-41.63 41.62,-41.63 0,0 6.11,1.82 15.08,4.67 16.19,25.35 69.36,110.19 75.96,141.01"
         style="fill:#373d43;fill-opacity:1;fill-rule:nonzero;stroke:none"
         id="path106" />
      <path
         d="m 2766.99,3382.16 4.89,-1.05 c 4.27,19.98 9.92,64.75 9.94,109.36 -0.01,19.44 -1.08,38.82 -3.88,56.11 -2.83,17.3 -7.28,32.52 -14.55,43.8 -29.42,45.39 -97.9,105.82 -198.15,129.61 -27.38,6.49 -53.38,8.85 -76.7,8.85 -62.19,-0.02 -105.37,-16.71 -105.74,-16.85 l 1.8,-4.67 4.67,-1.78 c 0.04,0.1 1.66,4.37 3.31,10.16 1.63,5.82 3.33,13.07 3.36,19.67 -0.03,3.45 -0.42,6.83 -2.2,9.99 -0.9,1.57 -2.25,3.05 -3.99,4.04 -1.75,1.01 -3.78,1.48 -5.81,1.47 v 0 c -4.53,-0.06 -9.13,-1.92 -14.96,-5.47 v 0 c -13.16,-8.19 -23.18,-23.87 -30.34,-41.71 -7.11,-17.87 -11.19,-38.01 -11.21,-55.56 0.01,-7.94 0.84,-15.36 2.74,-21.88 1.91,-6.51 4.89,-12.2 9.49,-16.31 l 3.32,3.74 -3.64,-3.44 c 0.09,-0.08 11.23,-11.88 25.47,-23.81 7.13,-5.96 15.02,-11.96 22.82,-16.56 7.84,-4.57 15.48,-7.94 22.99,-8.01 12.31,0.01 35.6,2.63 60.67,5.23 24.99,2.6 51.62,5.18 69.39,5.17 17.14,-0.02 28.84,-5.42 36.75,-12.14 7.91,-6.69 11.96,-15.01 12.98,-20.26 v 0 -0.09 c 0.04,-0.4 -0.3,-2 -1.27,-4.05 -3.31,-7.42 -12.9,-20.1 -21.62,-33.45 -4.38,-6.72 -8.56,-13.69 -11.72,-20.61 -3.14,-6.93 -5.33,-13.83 -5.35,-20.63 0,-2.53 0.32,-5.04 1.05,-7.47 2.3,-7.68 7.13,-13.6 12.73,-17.95 16.86,-12.95 40.76,-14.09 41.17,-14.22 l 0.31,4.99 -4.77,1.5 c -0.02,-0.07 -3.61,-11.56 -7.22,-26.09 -3.59,-14.58 -7.25,-32 -7.28,-44.76 0.02,-4.51 0.4,-8.47 1.86,-12 0.74,-1.75 1.82,-3.47 3.51,-4.81 1.67,-1.35 3.94,-2.11 6.1,-2.08 7.23,0.02 12.13,-1.37 17.47,-1.43 3.52,-0.1 7.76,1.05 10.83,4.18 3.07,3.07 5.23,7.27 7.59,13.5 v 0 c 2.86,7.71 10.36,19.69 18.97,29.24 4.3,4.79 8.89,9.01 13.19,11.9 4.29,2.93 8.25,4.38 10.94,4.34 2.25,-0.07 3.75,-0.63 5.66,-2.75 v 0 c 3.32,-3.84 6.02,-10.13 7.72,-17.71 1.71,-7.57 2.49,-16.39 2.48,-25.2 0.03,-15.73 -2.52,-31.64 -5.89,-40.53 v 0 c -1.3,-3.6 -4.91,-7.24 -10.18,-10.47 -7.85,-4.86 -18.83,-8.59 -27.95,-11.74 -4.58,-1.59 -8.69,-3.03 -11.99,-4.63 -1.66,-0.82 -3.13,-1.65 -4.51,-2.85 -0.68,-0.6 -1.35,-1.32 -1.92,-2.28 -0.56,-0.96 -1,-2.24 -0.99,-3.6 0.02,-1.61 0.44,-2.75 0.91,-3.81 1.79,-3.8 5.09,-7.49 9.32,-11.93 12.58,-13.01 33.16,-29.7 33.24,-29.77 l 2.04,-1.66 2.53,0.75 c 0.03,0.01 6.17,1.83 15.17,4.7 l 1.73,0.55 0.97,1.52 c 8.12,12.72 25.49,40.31 41.71,68.66 8.1,14.18 15.92,28.54 22.16,41.38 6.24,12.88 10.92,24.08 12.77,32.61 l -4.89,1.05 -4.89,1.05 c -1.45,-6.89 -5.89,-17.84 -11.98,-30.34 -18.29,-37.63 -51.21,-90.1 -63.31,-109.03 l 4.22,-2.69 -1.52,4.77 c -8.92,-2.84 -14.97,-4.64 -14.99,-4.64 l 1.43,-4.8 3.15,3.88 c -0.01,0.01 -2.56,2.09 -6.43,5.35 -5.8,4.9 -14.53,12.44 -21.69,19.39 -3.58,3.46 -6.78,6.79 -8.95,9.44 -1.08,1.31 -1.9,2.47 -2.35,3.25 l -0.39,0.78 -0.12,-0.04 0.12,0.02 v 0.02 l -0.12,-0.04 0.12,0.02 -2.11,-0.44 h 2.15 l -0.04,0.44 -2.11,-0.44 h 2.15 -2.58 l 2.09,-1.62 0.49,1.62 h -2.58 l 2.09,-1.62 h 0.01 c 0.24,0.24 1.37,0.97 3.01,1.7 5.86,2.71 17.46,5.96 28.35,10.58 5.47,2.33 10.84,5.03 15.45,8.43 4.59,3.4 8.53,7.57 10.58,12.97 4,10.75 6.5,27.22 6.52,44.04 0,9.4 -0.8,18.86 -2.73,27.41 -1.95,8.53 -4.95,16.22 -9.87,22 l -0.22,0.26 0.21,-0.25 c -3.46,4.14 -8.42,6.31 -13.25,6.24 -5.82,-0.05 -11.28,-2.54 -16.54,-6.05 -7.85,-5.32 -15.39,-13.29 -21.75,-21.66 -6.35,-8.4 -11.46,-17.09 -14.17,-24.26 v 0 c -2.1,-5.66 -3.97,-8.68 -5.23,-9.86 -1.27,-1.11 -1.67,-1.24 -3.83,-1.33 -3.16,-0.07 -9.08,1.41 -17.47,1.43 h -0.07 l -0.06,-0.36 0.17,0.32 -0.11,0.04 -0.06,-0.36 0.17,0.32 -0.11,-0.2 0.16,0.17 -0.05,0.03 -0.11,-0.2 0.16,0.17 c -0.04,0 -0.6,0.74 -0.96,2.35 -0.38,1.59 -0.6,3.89 -0.6,6.61 -0.03,10.92 3.45,28.17 6.99,42.35 1.76,7.11 3.53,13.51 4.86,18.11 1.32,4.61 2.19,7.39 2.2,7.4 l 1.9,6.08 -6.36,0.4 -0.37,0.03 c -2.03,0.16 -12.09,1.19 -22.11,4.98 -5.02,1.89 -10,4.45 -13.98,7.76 -4,3.33 -6.99,7.3 -8.49,12.29 -0.42,1.38 -0.63,2.91 -0.63,4.6 -0.03,5.19 2.14,11.96 5.73,19.16 5.35,10.82 13.66,22.56 20.72,32.86 3.53,5.16 6.75,9.97 9.19,14.31 2.39,4.4 4.22,8.1 4.32,12.41 l -0.19,2.05 v 0 c -1.59,7.75 -6.65,17.64 -16.3,25.91 -9.64,8.25 -23.95,14.56 -43.24,14.53 -18.65,-0.01 -45.35,-2.63 -70.43,-5.23 -25.01,-2.6 -48.53,-5.19 -59.63,-5.17 -4.2,-0.07 -10.86,2.41 -17.91,6.62 -10.62,6.25 -22.27,15.97 -31.13,24.07 -4.44,4.06 -8.19,7.71 -10.83,10.34 -1.32,1.32 -2.36,2.38 -3.07,3.11 l -1.07,1.11 -0.15,0.16 -0.16,0.14 c -2.69,2.38 -4.99,6.32 -6.53,11.64 -1.55,5.29 -2.34,11.85 -2.34,19.08 -0.01,15.99 3.85,35.19 10.5,51.86 6.6,16.7 16.17,30.76 26.29,36.89 v 0 c 4.99,3.12 8.4,4.05 9.72,3.99 l 0.82,-0.14 c 0.06,-0.04 0.29,-0.14 0.63,-1.06 0.32,-0.89 0.55,-2.43 0.55,-4.3 0.02,-4.82 -1.45,-11.59 -2.98,-16.94 -0.76,-2.68 -1.53,-5.04 -2.1,-6.71 -0.57,-1.67 -0.93,-2.61 -0.93,-2.61 l -4,-10.5 10.48,4.05 0.42,0.16 c 4.54,1.68 45.1,16.02 101.71,16.02 22.65,0 47.87,-2.29 74.4,-8.58 97.45,-23.02 164.24,-82.26 192.05,-125.31 6.06,-9.32 10.42,-23.44 13.07,-39.97 2.69,-16.52 3.76,-35.44 3.76,-54.51 0.01,-43.7 -5.65,-88.33 -9.72,-107.26 l 4.89,-1.05"
         style="fill:#373d43;fill-opacity:1;fill-rule:nonzero;stroke:none"
         id="path108" />
      <path
         d="m 1975.23,2763.78 c 0,0 36.64,-49.39 44.6,-62.13 7.97,-12.75 4.79,-28.68 3.19,-35.05 -1.59,-6.38 -58.94,-35.05 -74.87,-41.42 -15.94,-6.38 -14.35,35.04 -3.19,46.2 11.15,11.15 20.71,43.01 20.71,43.01 0,0 -7.96,43.02 -7.96,52.58 0,9.55 17.52,-3.19 17.52,-3.19"
         style="fill:#ffffff;fill-opacity:1;fill-rule:nonzero;stroke:none"
         id="path110" />
      <path
         d="m 1975.23,2763.78 -4.02,-2.98 c 0.02,-0.03 9.15,-12.33 19.29,-26.25 10.12,-13.89 21.33,-29.51 25.09,-35.55 3.33,-5.3 4.43,-11.5 4.42,-17.27 0.01,-5.75 -1.09,-10.94 -1.84,-13.92 l 2.68,-0.67 -2.34,1.51 -0.34,-0.84 2.68,-0.67 -2.34,1.51 0.14,-0.09 -0.13,0.1 -0.01,-0.01 0.14,-0.09 -0.13,0.1 c -0.15,-0.24 -1.46,-1.47 -3.36,-2.8 -6.74,-4.88 -20.9,-12.74 -34.78,-19.85 -13.89,-7.13 -27.77,-13.67 -34.09,-16.19 l -1.27,-0.31 -0.62,0.26 c -0.47,0.35 -1.43,1.79 -2.03,4.14 -0.63,2.33 -0.99,5.42 -0.98,8.77 -0.01,4.89 0.73,10.33 2.06,14.98 1.29,4.66 3.31,8.52 5.04,10.18 6.61,6.72 11.69,17.72 15.64,27.35 3.88,9.59 6.3,17.67 6.33,17.76 l 0.35,1.16 -0.22,1.19 c -0.01,0.02 -1.99,10.72 -3.97,22.62 -0.99,5.94 -1.98,12.18 -2.72,17.49 -0.74,5.26 -1.21,9.76 -1.19,11.56 l 0.01,0.19 -1.22,0.17 1.07,-0.55 0.15,0.38 -1.22,0.17 1.07,-0.55 -2.21,1.15 1.09,-2.23 1.12,1.08 -2.21,1.15 1.09,-2.23 -0.83,1.69 0.37,-1.86 0.46,0.17 -0.83,1.69 0.37,-1.86 -0.09,0.42 v -0.43 l 0.09,0.01 -0.09,0.42 v -0.43 c 0.17,0.03 1.27,-0.18 2.52,-0.7 1.9,-0.75 4.22,-2.05 5.96,-3.15 l 2.14,-1.4 0.77,-0.53 2.94,4.04 -4.02,-2.98 4.02,2.98 2.94,4.04 c -0.09,0.07 -2.52,1.83 -5.73,3.67 -1.61,0.92 -3.41,1.86 -5.31,2.62 -1.91,0.74 -3.86,1.38 -6.23,1.41 -1.71,0.02 -4.04,-0.46 -5.84,-2.26 -1.8,-1.81 -2.37,-4.22 -2.35,-6.29 0.01,-2.99 0.53,-7.45 1.29,-12.94 2.27,-16.32 6.75,-40.51 6.75,-40.55 l 4.92,0.91 -4.79,1.44 -0.41,-1.32 c -0.96,-3.03 -3.55,-10.87 -7.05,-19.04 -3.45,-8.14 -8.05,-16.69 -12,-20.56 -3.68,-3.75 -5.95,-8.86 -7.59,-14.51 -1.6,-5.65 -2.44,-11.86 -2.44,-17.72 0.01,-5.37 0.66,-10.42 2.47,-14.73 0.92,-2.14 2.16,-4.16 4.03,-5.78 1.85,-1.62 4.46,-2.69 7.13,-2.66 1.7,0 3.38,0.38 4.98,1.02 8.34,3.34 26.61,12.1 43.3,20.94 8.34,4.42 16.23,8.83 22.26,12.63 3.02,1.91 5.57,3.64 7.57,5.25 1.01,0.81 1.88,1.58 2.66,2.43 0.76,0.9 1.56,1.74 2.08,3.6 0.85,3.39 2.14,9.36 2.14,16.35 0,6.98 -1.29,15.12 -5.94,22.57 -4.19,6.7 -15.29,22.14 -25.48,36.14 -10.17,13.96 -19.34,26.31 -19.34,26.32 l -0.46,0.61 -0.62,0.45 -2.94,-4.04"
         style="fill:#373d43;fill-opacity:1;fill-rule:nonzero;stroke:none"
         id="path112" />
      <path
         d="m 1941.16,2823.07 c 0,0 -160.82,-74.8 -160.82,-97.25 0,-22.44 7.48,-71.05 29.92,-86.02 22.44,-14.96 172.05,29.93 179.53,52.36 7.48,22.44 -26.19,134.65 -48.63,130.91"
         style="fill:#ffffff;fill-opacity:1;fill-rule:nonzero;stroke:none"
         id="path114" />
      <path
         d="m 1941.16,2823.07 -2.11,4.53 c -0.04,-0.02 -40.3,-18.74 -80.66,-40.33 -20.19,-10.8 -40.38,-22.3 -55.72,-32.64 -7.67,-5.18 -14.13,-10.05 -18.87,-14.56 -2.38,-2.27 -4.33,-4.45 -5.83,-6.7 -1.46,-2.24 -2.6,-4.62 -2.63,-7.55 0.01,-11.74 1.91,-29.77 6.73,-47.15 4.89,-17.32 12.39,-34.17 25.42,-43.03 4.84,-3.08 10.95,-3.75 18.64,-3.83 23.75,0.05 63.07,9.17 97.93,20.68 17.4,5.77 33.59,12.14 46.04,18.4 6.23,3.14 11.52,6.24 15.66,9.35 4.1,3.16 7.26,6.12 8.77,10.34 0.99,3.04 1.31,6.46 1.32,10.45 -0.06,18.02 -7.26,48.55 -17.01,75.38 -4.9,13.39 -10.41,25.74 -16.21,35.04 -2.91,4.66 -5.87,8.56 -9.09,11.53 -3.19,2.91 -6.83,5.14 -11.27,5.18 l -1.93,-0.16 -0.67,-0.11 -0.62,-0.29 2.11,-4.53 0.83,-4.93 0.28,0.02 c 0.62,0.05 2.29,-0.49 4.51,-2.55 3.9,-3.52 8.72,-10.89 13.25,-20.2 6.86,-13.99 13.38,-32.41 18.12,-49.94 4.76,-17.49 7.72,-34.27 7.7,-44.44 0.01,-3.36 -0.35,-5.98 -0.81,-7.29 -0.1,-0.61 -1.85,-3.01 -5.29,-5.51 -5.96,-4.51 -16.35,-9.9 -28.97,-15.17 -18.95,-7.94 -43.01,-15.8 -65.91,-21.63 -22.87,-5.84 -44.73,-9.64 -58.74,-9.62 -6.81,-0.07 -11.74,1.1 -13.1,2.15 -9.41,6.11 -16.88,21.05 -21.33,37.39 -4.53,16.27 -6.37,33.78 -6.36,44.47 l 0.13,0.48 c 0.47,1.49 3.39,5.18 8.17,9.17 8.36,7.14 22.05,16.08 37.7,25.26 23.5,13.8 51.52,28.27 73.63,39.27 11.06,5.51 20.64,10.14 27.45,13.4 6.82,3.26 10.84,5.13 10.85,5.14 l -2.11,4.53 0.83,-4.93 -0.83,4.93"
         style="fill:#373d43;fill-opacity:1;fill-rule:nonzero;stroke:none"
         id="path116" />
      <path
         d="m 1897.59,2797.96 c 0,0 0.63,-1.1 1.76,-3.19 7.98,-14.52 40.58,-76.57 48.65,-122.67 l 9.85,1.74 c -4.94,27.88 -17.82,59.95 -29.46,85.26 -11.64,25.28 -22.05,43.7 -22.09,43.78 l -8.71,-4.92"
         style="fill:#373d43;fill-opacity:1;fill-rule:nonzero;stroke:none"
         id="path118" />
      <path
         d="m 1846.59,2772.51 c 0,-0.01 2.56,-4.62 6.59,-12.3 12.11,-22.97 37.43,-73.52 45.51,-105.98 l 9.7,2.43 c -5.78,23.02 -19.01,52.98 -30.82,77.43 -11.81,24.43 -22.2,43.21 -22.23,43.26 l -8.75,-4.84"
         style="fill:#373d43;fill-opacity:1;fill-rule:nonzero;stroke:none"
         id="path120" />
      <path
         d="m 1800.18,2747.43 c 0.02,-0.04 8.77,-19.91 18.92,-43.02 10.16,-23.09 21.71,-49.38 27.28,-62.12 l 9.16,4.01 c -11.15,25.5 -46.2,105.15 -46.2,105.16 l -9.15,-4.03"
         style="fill:#373d43;fill-opacity:1;fill-rule:nonzero;stroke:none"
         id="path122" />
      <path
         d="m 3876.08,2129.58 -3.62,14.56 -254.06,-63.11 -33.33,134.23 239.5,59.49 36.95,-148.79 14.56,3.62 -3.62,14.56 3.62,-14.56 14.55,3.62 -44.18,177.9 -297.73,-73.95 47.8,-192.46 297.73,73.95 -3.62,14.56 -14.55,-3.62"
         style="fill:#373d43;fill-opacity:1;fill-rule:nonzero;stroke:none"
         id="path124" />
      <path
         d="m 4247.04,1666.33 -783.42,-182.95 c -32.22,-7.53 -64.46,12.5 -71.99,44.73 l -109.53,469.02 c -7.52,32.22 12.5,64.45 44.74,71.98 l 783.41,182.95 c 32.23,7.53 64.47,-12.5 71.99,-44.73 l 109.53,-469.01 c 7.53,-32.23 -12.5,-64.46 -44.73,-71.99"
         style="fill:#a19ea5;fill-opacity:1;fill-rule:nonzero;stroke:none"
         id="path126" />
      <path
         d="m 4247.04,1666.33 -1.14,4.87 -783.41,-182.95 c -4.21,-0.99 -8.41,-1.46 -12.55,-1.46 -24.93,0.01 -47.53,17.12 -53.44,42.45 l -109.53,469.03 c -0.98,4.2 -1.45,8.4 -1.45,12.53 0,24.93 17.11,47.53 42.45,53.44 l 783.42,182.96 c 4.21,0.98 8.41,1.45 12.55,1.45 24.92,0 47.53,-17.11 53.43,-42.45 l 109.53,-469.02 c 0.98,-4.21 1.45,-8.41 1.45,-12.54 0,-24.93 -17.11,-47.53 -42.45,-53.44 l 1.14,-4.87 1.14,-4.87 c 29.95,7.01 50.17,33.67 50.17,63.18 0,4.89 -0.55,9.86 -1.71,14.82 l -109.53,469.01 c -7,29.95 -33.67,50.18 -63.17,50.18 -4.9,0 -9.86,-0.56 -14.82,-1.72 L 3325.7,2073.98 c -29.96,-7.01 -50.18,-33.67 -50.18,-63.18 0,-4.89 0.55,-9.85 1.71,-14.81 l 109.53,-469.02 c 7.01,-29.95 33.68,-50.18 63.18,-50.18 4.89,0 9.86,0.56 14.82,1.72 l 783.42,182.95 -1.14,4.87"
         style="fill:#373d43;fill-opacity:1;fill-rule:nonzero;stroke:none"
         id="path128" />
      <path
         d="m 3657.9,2374.25 -41.14,-115.94 41.14,-104.73 67.33,3.74 7.48,26.18 78.54,59.84 -33.66,153.35 -119.69,-22.44"
         style="fill:#ffffff;fill-opacity:1;fill-rule:nonzero;stroke:none"
         id="path130" />
      <path
         d="m 3657.9,2374.25 -4.71,1.67 -41.77,-117.7 43.15,-109.83 74.49,4.13 8,28.01 79.76,60.77 -35.39,161.2 -127.28,-23.86 -0.96,-2.72 4.71,-1.67 0.92,-4.91 114.92,21.55 31.94,-145.5 -77.33,-58.92 -6.96,-24.36 -60.16,-3.34 -39.13,99.62 40.51,114.19 -4.71,1.67 0.92,-4.91 -0.92,4.91"
         style="fill:#373d43;fill-opacity:1;fill-rule:nonzero;stroke:none"
         id="path132" />
      <path
         d="m 3613.02,2422.87 29.92,-74.8 134.65,48.62 -26.18,67.32 -138.39,-41.14"
         style="fill:#ffffff;fill-opacity:1;fill-rule:nonzero;stroke:none"
         id="path134" />
      <path
         d="m 3613.02,2422.87 -4.64,-1.86 31.71,-79.28 144.02,52 -29.71,76.39 -148.06,-44.02 2.04,-5.09 4.64,1.86 1.42,-4.79 133.98,39.83 22.65,-58.25 -125.28,-45.24 -28.13,70.31 -4.64,-1.86 1.42,-4.79 -1.42,4.79"
         style="fill:#373d43;fill-opacity:1;fill-rule:nonzero;stroke:none"
         id="path136" />
      <path
         d="M 3933.78,9.03906 H 1827.29 V 79.6016 H 3933.78 V 9.03906"
         style="fill:#ffffff;fill-opacity:1;fill-rule:nonzero;stroke:none"
         id="path138" />
      <path
         d="M 3933.78,9.03906 V 14.0391 H 1832.29 V 74.6016 H 3928.78 V 9.03906 h 5 V 14.0391 9.03906 h 5 V 84.6016 H 1822.29 V 4.03906 h 2116.49 v 5 h -5"
         style="fill:#373d43;fill-opacity:1;fill-rule:nonzero;stroke:none"
         id="path140" />
      <path
         d="m 3173.52,31.1094 h -57.01 V 1595.8 h 57.01 V 31.1094"
         style="fill:#ffffff;fill-opacity:1;fill-rule:nonzero;stroke:none"
         id="path142" />
      <path
         d="m 3173.52,31.1094 v 5 h -52.01 V 1590.8 h 47.01 V 31.1094 h 5 v 5 -5 h 5 V 1600.8 h -67.01 V 26.1094 h 67.01 v 5 h -5"
         style="fill:#373d43;fill-opacity:1;fill-rule:nonzero;stroke:none"
         id="path144" />
      <path
         d="M 3326.88,1591.77 H 946.395 V 1802 H 3326.88 v -210.23"
         style="fill:#ffffff;fill-opacity:1;fill-rule:nonzero;stroke:none"
         id="path146" />
      <path
         d="m 3326.88,1591.77 v 5 H 951.395 V 1797 H 3321.88 v -205.23 h 5 v 5 -5 h 5 V 1807 H 941.395 V 1586.77 H 3331.88 v 5 h -5"
         style="fill:#373d43;fill-opacity:1;fill-rule:nonzero;stroke:none"
         id="path148" />
      <path
         d="M 3283.53,1591.77 H 903.039 V 1802 H 3283.53 v -210.23"
         style="fill:#ffffff;fill-opacity:1;fill-rule:nonzero;stroke:none"
         id="path150" />
      <path
         d="m 3283.53,1591.77 v 5 H 908.039 V 1797 H 3278.53 v -205.23 h 5 v 5 -5 h 5 V 1807 H 898.039 V 1586.77 H 3288.53 v 5 h -5"
         style="fill:#373d43;fill-opacity:1;fill-rule:nonzero;stroke:none"
         id="path152" />
      <path
         d="m 1900.02,1802 h -134.64 v -210.23 h 134.64 V 1802"
         style="fill:#7fd29f;fill-opacity:1;fill-rule:nonzero;stroke:none"
         id="path154" />
      <path
         d="m 1900.02,1802 v 5 h -139.64 v -220.23 h 144.64 V 1807 h -5 v -5 h -5 V 1596.77 H 1770.38 V 1797 h 129.64 v 5 h -5 5"
         style="fill:#373d43;fill-opacity:1;fill-rule:nonzero;stroke:none"
         id="path156" />
      <path
         d="M 1204.35,1591.77 H 1339 V 1802 h -134.65 v -210.23"
         style="fill:#7fd29f;fill-opacity:1;fill-rule:nonzero;stroke:none"
         id="path158" />
      <path
         d="m 1204.35,1591.77 v -5 H 1344 V 1807 h -144.65 v -220.23 h 5 v 5 h 5 V 1797 H 1334 v -200.23 h -129.65 v -5 h 5 -5"
         style="fill:#373d43;fill-opacity:1;fill-rule:nonzero;stroke:none"
         id="path160" />
      <path
         d="M 2461.05,1802 H 2326.4 v -210.23 h 134.65 V 1802"
         style="fill:#7fd29f;fill-opacity:1;fill-rule:nonzero;stroke:none"
         id="path162" />
      <path
         d="m 2461.05,1802 v 5 H 2321.4 v -220.23 h 144.65 V 1807 h -5 v -5 h -5 V 1596.77 H 2331.4 V 1797 h 129.65 v 5 h -5 5"
         style="fill:#373d43;fill-opacity:1;fill-rule:nonzero;stroke:none"
         id="path164" />
      <path
         d="m 3022.07,1802 h -134.65 v -210.23 h 134.65 V 1802"
         style="fill:#7fd29f;fill-opacity:1;fill-rule:nonzero;stroke:none"
         id="path166" />
      <path
         d="m 3022.07,1802 v 5 h -139.65 v -220.23 h 144.65 V 1807 h -5 v -5 h -5 V 1596.77 H 2892.42 V 1797 h 129.65 v 5 h -5 5"
         style="fill:#373d43;fill-opacity:1;fill-rule:nonzero;stroke:none"
         id="path168" />
      <path
         d="m 3203.98,1567.56 h -117.92 l 11.79,153.42 h 94.34 l 11.79,-153.42"
         style="fill:#373d43;fill-opacity:1;fill-rule:nonzero;stroke:none"
         id="path170" />
      <path
         d="m 3203.98,1567.56 v 5 h -112.53 l 11.03,143.42 h 85.08 l 11.43,-148.8 4.99,0.38 v 5 -5 l 4.98,0.38 -12.14,158.04 h -103.6 l -12.56,-163.42 h 128.71 l -0.41,5.38 -4.98,-0.38"
         style="fill:#373d43;fill-opacity:1;fill-rule:nonzero;stroke:none"
         id="path172" />
      <path
         d="m 1132.51,31.1094 h -57 V 1595.8 h 57 V 31.1094"
         style="fill:#ffffff;fill-opacity:1;fill-rule:nonzero;stroke:none"
         id="path174" />
      <path
         d="m 1132.51,31.1094 v 5 h -52 V 1590.8 h 47 V 31.1094 h 5 v 5 -5 h 5 V 1600.8 h -67 V 26.1094 h 67 v 5 h -5"
         style="fill:#373d43;fill-opacity:1;fill-rule:nonzero;stroke:none"
         id="path176" />
      <path
         d="M 3177.56,9.03906 H 1071.07 V 79.6016 H 3177.56 V 9.03906"
         style="fill:#ffffff;fill-opacity:1;fill-rule:nonzero;stroke:none"
         id="path178" />
      <path
         d="M 3177.56,9.03906 V 14.0391 H 1076.07 V 74.6016 H 3172.56 V 9.03906 h 5 V 14.0391 9.03906 h 5 V 84.6016 H 1066.07 V 4.03906 h 2116.49 v 5 h -5"
         style="fill:#373d43;fill-opacity:1;fill-rule:nonzero;stroke:none"
         id="path180" />
      <path
         d="m 1162.97,1567.56 h -117.92 l 11.8,153.42 h 94.33 l 11.79,-153.42"
         style="fill:#373d43;fill-opacity:1;fill-rule:nonzero;stroke:none"
         id="path182" />
      <path
         d="m 1162.97,1567.56 v 5 h -112.52 l 11.03,143.42 h 85.07 l 11.44,-148.81 4.98,0.39 v 5 -5 l 4.99,0.38 -12.15,158.04 h -103.59 l -12.56,-163.42 h 128.71 l -0.41,5.38 -4.99,-0.38"
         style="fill:#373d43;fill-opacity:1;fill-rule:nonzero;stroke:none"
         id="path184" />
      <path
         d="m 1752.29,1598.16 -29.93,-48.62 c 0,0 -362.79,74.81 -359.05,37.4 3.74,-37.4 164.57,-149.61 224.41,-190.74 59.84,-41.14 112.2,-63.58 112.2,-63.58 l -11.22,-18.7 89.77,-59.85 c 0,0 59.84,56.11 78.54,100.99 18.7,44.88 14.96,138.38 14.96,138.38 l -119.68,104.72"
         style="fill:#373d43;fill-opacity:1;fill-rule:nonzero;stroke:none"
         id="path186" />
      <path
         d="m 1752.29,1598.16 -4.26,2.62 -29.92,-48.62 4.25,-2.62 1.01,4.9 c -0.03,0 -58.12,11.98 -127.62,23.97 -69.56,11.97 -150.31,23.98 -196.54,24.01 -11.31,-0.02 -20.55,-0.69 -27.52,-2.46 -3.49,-0.91 -6.46,-2.06 -8.96,-3.96 -2.49,-1.81 -4.51,-5.01 -4.45,-8.49 l 0.05,-1.07 c 0.7,-6.29 4.1,-12.57 9.19,-19.68 8.96,-12.34 23.63,-26.93 41.54,-42.73 53.69,-47.3 136.5,-104.91 175.83,-131.95 60.26,-41.43 112.87,-63.97 113.06,-64.06 l 1.97,4.6 -4.28,2.57 -13.68,-22.79 97.03,-64.69 2.9,2.71 c 0.07,0.08 15.13,14.19 32.59,34.01 17.46,19.86 37.34,45.26 47.15,68.71 7.01,16.9 10.81,39.43 13,61.65 2.17,22.2 2.65,44.02 2.65,59.06 0,12.04 -0.31,19.73 -0.31,19.79 l -0.09,2.14 -125.75,110.04 -3.1,-5.04 4.26,-2.62 -3.3,-3.76 119.69,-104.73 3.29,3.77 -4.99,-0.2 c 0,-0.01 0.07,-1.86 0.15,-5.22 0.07,-3.37 0.15,-8.23 0.15,-14.17 0,-14.82 -0.48,-36.37 -2.6,-58.09 -2.11,-21.69 -5.94,-43.62 -12.28,-58.78 -8.9,-21.44 -28.29,-46.53 -45.42,-65.94 -8.57,-9.73 -16.57,-18.08 -22.42,-23.98 -2.93,-2.96 -5.31,-5.3 -6.96,-6.9 -1.66,-1.6 -2.55,-2.44 -2.55,-2.44 l 3.42,-3.65 2.77,4.16 -85.8,57.2 11.72,19.53 -5.27,2.25 c 0,0 -0.77,0.33 -2.29,1.01 -10.66,4.78 -57.06,26.35 -109.05,62.1 -29.89,20.54 -84.99,58.84 -132.98,96.58 -23.99,18.86 -46.21,37.6 -62.51,53.79 -8.15,8.09 -14.82,15.55 -19.44,21.94 -4.66,6.35 -7.1,11.76 -7.34,14.81 v 0.07 0.02 c 0.01,0.06 0.47,0.66 1.86,1.33 2.04,1.03 5.81,2.02 10.78,2.63 4.97,0.62 11.16,0.93 18.29,0.93 44.73,0.02 125.56,-11.91 194.84,-23.87 34.66,-5.98 66.5,-11.95 89.66,-16.44 23.17,-4.48 37.61,-7.46 37.64,-7.47 l 3.44,-0.7 31.75,51.6 -4.25,2.62 -3.3,-3.76 3.3,3.76"
         style="fill:#373d43;fill-opacity:1;fill-rule:nonzero;stroke:none"
         id="path188" />
      <path
         d="m 3182.9,2291.97 -201.97,3.74 c 0,0 -355.31,74.8 -519.88,108.46 -164.57,33.66 -295.47,41.14 -314.17,22.44 -18.71,-18.7 -420.78,-843.41 -420.78,-843.41 l 168.31,-127.17 437.6,643.32 c 0,0 409.55,-237.5 600.3,-237.5 190.75,0 258.07,48.62 306.69,164.57 48.63,115.94 14.97,235.63 14.97,235.63 l -71.07,29.92"
         style="fill:#373d43;fill-opacity:1;fill-rule:nonzero;stroke:none"
         id="path190" />
      <path
         d="m 3182.9,2291.97 0.09,5 -201.97,3.74 -0.09,-5 1.03,4.89 c -0.01,0 -355.31,74.8 -519.91,108.47 -106.01,21.67 -198.01,32.55 -255.71,32.56 -16.06,0 -29.47,-0.83 -39.95,-2.57 -10.49,-1.83 -18.08,-4.15 -23.05,-8.91 -1.27,-1.33 -2.13,-2.71 -3.56,-4.97 -5.27,-8.49 -15.57,-27.69 -29.81,-55.17 -99.48,-192.07 -388.35,-784.59 -388.36,-784.62 l -1.8,-3.7 175.78,-132.81 440.56,647.65 -4.14,2.82 -2.51,-4.33 c 0.08,-0.04 102.56,-59.47 229,-118.95 63.23,-29.74 132.44,-59.49 197.92,-81.85 65.51,-22.34 127.19,-37.35 175.89,-37.37 95.76,0.01 161.16,12.15 209.12,39.46 47.99,27.32 77.71,69.72 102.19,128.17 20.72,49.42 26.69,99.36 26.69,140.67 0,57.21 -11.45,97.95 -11.53,98.25 l -0.65,2.32 -74.17,31.23 -0.97,0.02 -0.09,-5 -1.94,-4.61 71.07,-29.92 1.94,4.61 -4.82,-1.36 c 0,0 0.16,-0.55 0.46,-1.73 2.1,-8.21 10.71,-44.92 10.7,-93.81 0.01,-40.36 -5.86,-88.98 -25.92,-136.8 -24.14,-57.5 -52.4,-97.38 -97.91,-123.36 -45.54,-25.98 -109.19,-38.16 -204.17,-38.14 -46.68,-0.03 -107.72,14.65 -172.65,36.84 -97.45,33.26 -203.81,83.28 -285.74,124.97 -40.96,20.84 -75.83,39.6 -100.44,53.15 -12.31,6.77 -22.06,12.24 -28.72,16.02 -6.67,3.77 -10.23,5.83 -10.24,5.84 l -4.02,2.33 -437.27,-642.81 -164.11,124 -3.02,-3.99 4.5,-2.19 c 0.02,0.04 6.28,12.89 17.31,35.47 38.61,79.05 135.38,276.94 224.54,457.1 44.58,90.08 87.25,175.73 119.8,239.86 16.27,32.07 30.01,58.75 40.17,77.9 5.09,9.57 9.27,17.26 12.42,22.76 1.57,2.74 2.88,4.95 3.88,6.52 l 1.24,1.86 0.37,0.5 0.09,0.11 -0.18,0.16 0.17,-0.18 0.01,0.02 -0.18,0.16 0.17,-0.18 c 1.72,1.92 7.98,4.62 17.61,6.12 9.64,1.61 22.62,2.44 38.32,2.44 56.53,0.01 148.22,-10.77 253.7,-32.35 82.27,-16.83 212.24,-43.95 321.64,-66.86 54.69,-11.45 104.25,-21.85 140.13,-29.39 17.94,-3.77 32.46,-6.82 42.5,-8.94 10.04,-2.11 15.57,-3.27 15.59,-3.28 l 0.46,-0.09 202.45,-3.75 0.09,5 -1.94,-4.61 1.94,4.61"
         style="fill:#373d43;fill-opacity:1;fill-rule:nonzero;stroke:none"
         id="path192" />
      <path
         d="m 2719.12,3227.01 c 0,0 59.85,-519.89 82.29,-617.13 22.44,-97.24 59.84,-157.09 74.8,-168.31 14.95,-11.22 347.83,-172.04 347.83,-172.04 0,0 -119.68,287.99 -112.2,306.69 7.48,18.7 3.74,295.47 3.74,295.47 l 306.7,-41.14 175.78,-433.86 168.31,59.84 -172.7,535.02 c -11.39,35.3 -38.42,63.37 -73.26,76.1 l -374.91,136.92 -81.9,49.14 c -19.6,11.76 -42.66,16.42 -65.3,13.18 l -279.18,-39.88"
         style="fill:#7fd29f;fill-opacity:1;fill-rule:nonzero;stroke:none"
         id="path194" />
      <path
         d="m 2719.12,3227.01 -4.97,-0.57 c 0.01,-0.01 14.97,-129.99 32.74,-272.15 8.88,-71.08 18.47,-145.2 27.24,-207.65 8.78,-62.49 16.71,-113.18 22.41,-137.88 11.3,-49 26.38,-88.61 40.59,-117.5 7.1,-14.44 13.99,-26.2 20.11,-35.16 6.17,-8.96 11.41,-15.06 15.97,-18.53 1.47,-1.08 3.6,-2.3 6.96,-4.16 24.73,-13.61 109.98,-55.61 189.28,-94.34 79.27,-38.7 152.41,-74.04 152.42,-74.05 l 11.84,-5.72 -5.05,12.14 c 0,0.02 -1.75,4.23 -4.83,11.69 -10.76,26.13 -37.68,91.93 -61.89,154.81 -12.1,31.43 -23.53,62.14 -31.91,86.75 -4.18,12.3 -7.61,23.08 -9.97,31.6 -2.36,8.46 -3.6,14.94 -3.56,17.5 l 0.04,0.71 v 0.06 l -1.45,0.36 1.39,-0.56 0.06,0.2 -1.45,0.36 1.39,-0.56 c 0.8,2.11 1.16,4.38 1.59,7.64 1.4,11.16 2.23,32.57 2.75,59.25 0.51,26.64 0.69,58.41 0.69,89.72 0,71.57 -0.93,140.78 -0.93,140.79 l -5,-0.07 -0.67,-4.95 303.82,-40.76 176.49,-435.6 177.4,63.07 -174.19,539.63 c -11.87,36.77 -40.01,66.01 -76.3,79.26 l -374.47,136.76 -81.48,48.89 c -16.34,9.8 -34.94,14.9 -53.8,14.9 -4.93,0 -9.87,-0.34 -14.79,-1.05 l -283.99,-40.57 0.55,-4.83 4.97,0.57 0.71,-4.95 279.18,39.88 c 4.45,0.64 8.91,0.95 13.37,0.95 17.05,0 33.88,-4.61 48.65,-13.47 l 82.31,-49.38 375.36,-137.09 c 33.39,-12.2 59.29,-39.11 70.21,-72.94 l 171.21,-530.39 -159.23,-56.61 -175.07,432.11 -315.32,42.3 0.08,-5.79 c 0,-0.05 0.23,-17.29 0.46,-43.52 0.24,-26.23 0.47,-61.4 0.47,-97.14 0,-35.74 -0.23,-72.07 -0.93,-100.57 -0.35,-14.25 -0.82,-26.55 -1.42,-35.79 -0.31,-4.61 -0.65,-8.47 -1.01,-11.37 -0.33,-2.85 -0.83,-4.93 -0.96,-5.16 -0.6,-1.58 -0.67,-2.88 -0.69,-4.29 0.06,-5.4 1.93,-13.23 5.03,-24.07 10.91,-37.55 37.83,-107.9 62.09,-169.09 24.25,-61.16 45.8,-113.01 45.81,-113.02 l 4.61,1.92 2.18,4.5 c -0.02,0 -5.2,2.51 -14.33,6.93 -31.96,15.46 -112.06,54.29 -185.79,90.46 -36.87,18.09 -72.14,35.52 -99,49.03 -13.43,6.75 -24.76,12.53 -33.1,16.91 -4.17,2.18 -7.6,4.02 -10.15,5.45 -2.52,1.39 -4.3,2.49 -4.64,2.76 -2.91,2.14 -7.96,7.74 -13.72,16.18 -17.42,25.43 -42.53,76.9 -59.21,149.26 -5.53,23.91 -13.49,74.68 -22.25,137.02 -13.14,93.56 -28.13,213.46 -39.83,309.96 -5.85,48.25 -10.88,90.65 -14.44,120.99 -3.57,30.33 -5.67,48.55 -5.67,48.6 l -4.97,-0.57 0.71,-4.95 -0.71,4.95"
         style="fill:#373d43;fill-opacity:1;fill-rule:nonzero;stroke:none"
         id="path196" />
      <path
         d="m 2999.47,2888.38 90.34,-16.94 -76.23,-15.86 2.04,-9.79 125.73,26.16 -140.04,26.26 -1.84,-9.83"
         style="fill:#373d43;fill-opacity:1;fill-rule:nonzero;stroke:none"
         id="path198" />
      <path
         d="m 3053.24,3237.21 c -0.27,-0.44 -25.61,-33.18 -25.69,-78.67 0,-9.09 1.03,-18.67 3.5,-28.56 1.68,-6.71 3.16,-11.5 4.73,-15 0.8,-1.76 1.6,-3.21 2.76,-4.54 1.1,-1.27 3.01,-2.71 5.58,-2.72 2.11,0 3.78,0.99 4.82,1.93 1.97,1.81 2.96,3.8 4.11,6.24 3.78,8.36 7.66,22.98 13.8,38.84 6.09,15.8 14.35,32.49 25.85,43.94 l -7.07,7.07 c -16.01,-16.08 -25.34,-39.06 -31.95,-57.9 -3.28,-9.4 -5.86,-17.81 -8.03,-23.62 -1.06,-2.88 -2.07,-5.13 -2.78,-6.3 l -0.43,-0.64 -0.14,-0.15 1.11,-1.12 -0.7,1.38 -0.41,-0.26 1.11,-1.12 -0.7,1.38 1.41,-2.79 v 3.12 l -1.41,-0.33 1.41,-2.79 v 3.12 -3.11 l 1.53,2.73 -1.53,0.38 v -3.11 l 1.53,2.73 -0.73,-1.32 1.11,1.05 -0.38,0.27 -0.73,-1.32 1.11,1.05 c -0.09,0.02 -1.05,1.48 -1.97,4.08 -0.97,2.6 -2.08,6.34 -3.31,11.25 -2.26,9.05 -3.2,17.8 -3.2,26.14 -0.01,20.83 5.91,39.06 11.87,52.07 2.98,6.5 5.96,11.68 8.17,15.21 1.11,1.76 2.02,3.11 2.65,4.01 l 0.72,1 0.21,0.29 -7.93,6.09"
         style="fill:#373d43;fill-opacity:1;fill-rule:nonzero;stroke:none"
         id="path200" />
      <path
         d="m 2782.71,2957.72 93.5,59.84 -68.35,222.13 -88.74,-12.68 c 0,0 59.85,-519.89 82.29,-617.13 22.44,-97.24 59.84,-157.09 74.8,-168.31 l 7.48,475.01 -100.98,41.14"
         style="fill:#7fd29f;fill-opacity:1;fill-rule:nonzero;stroke:none"
         id="path202" />
      <path
         d="m 2782.71,2957.72 2.69,-4.21 96.71,61.89 -70.73,229.84 -97.78,-13.97 0.55,-4.83 c 0.01,-0.01 14.97,-129.99 32.74,-272.15 8.88,-71.08 18.47,-145.2 27.24,-207.65 8.78,-62.49 16.71,-113.18 22.41,-137.88 11.3,-49 26.38,-88.61 40.59,-117.5 7.1,-14.44 13.99,-26.2 20.11,-35.16 6.17,-8.96 11.41,-15.06 15.97,-18.53 l 7.85,-5.88 7.69,488.23 -104.16,42.43 -1.88,-4.63 2.69,-4.21 -2.69,4.21 -1.89,-4.63 97.82,-39.85 -7.43,-471.59 5,-0.08 3,4 c -2.91,2.14 -7.96,7.74 -13.72,16.18 -17.42,25.43 -42.53,76.9 -59.21,149.26 -5.53,23.91 -13.49,74.68 -22.25,137.02 -13.14,93.56 -28.13,213.46 -39.83,309.96 -5.85,48.25 -10.88,90.65 -14.44,120.99 -3.57,30.33 -5.67,48.55 -5.67,48.6 l -4.97,-0.57 0.71,-4.95 84.51,12.07 65.97,-214.41 -98.43,-62.99 8.94,-3.64 1.89,4.63"
         style="fill:#373d43;fill-opacity:1;fill-rule:nonzero;stroke:none"
         id="path204" />
      <path
         d="m 2902.38,2419.13 c 0,0 561.03,-33.66 594.69,-33.66 33.66,0 18.7,-37.4 0,-104.72 -18.7,-67.33 -82.27,-145.87 -82.27,-145.87 l -512.42,284.25"
         style="fill:#7fd29f;fill-opacity:1;fill-rule:nonzero;stroke:none"
         id="path206" />
      <path
         d="m 2902.38,2419.13 -0.3,-4.99 c 0.01,0 140.26,-8.42 284.73,-16.83 72.24,-4.21 145.53,-8.41 202.87,-11.57 57.4,-3.16 98.57,-5.26 107.39,-5.27 6.57,-0.02 9.91,-1.53 11.81,-3.57 1.94,-2.04 3.21,-5.72 3.21,-11.81 0.02,-7.91 -2.21,-19.21 -5.87,-33.17 -3.64,-13.98 -8.64,-30.68 -13.97,-49.84 -9.08,-32.76 -29.43,-68.98 -47.52,-96.79 -9.05,-13.91 -17.52,-25.75 -23.72,-34.1 -3.1,-4.18 -5.64,-7.48 -7.39,-9.73 -1.75,-2.25 -2.71,-3.43 -2.71,-3.43 l 3.89,-3.15 2.42,4.37 -512.41,284.25 -2.43,-4.37 -0.3,-4.99 0.3,4.99 -2.42,-4.37 516.08,-286.29 2.64,3.27 c 0.07,0.09 16.06,19.84 34.43,48.1 18.37,28.29 39.16,65.01 48.78,99.57 5.29,19.05 10.29,35.74 14.01,49.99 3.7,14.27 6.17,26.04 6.19,35.69 0,7.3 -1.45,13.81 -5.89,18.62 -4.47,4.8 -11.14,6.79 -19.13,6.76 -8.01,0 -49.59,2.1 -106.85,5.25 -85.98,4.74 -207.87,11.84 -308.26,17.75 -50.19,2.96 -95.01,5.62 -127.28,7.55 -32.27,1.92 -51.95,3.1 -52,3.1 l -21.98,1.32 19.26,-10.68 2.42,4.37"
         style="fill:#373d43;fill-opacity:1;fill-rule:nonzero;stroke:none"
         id="path208" />
      <path
         d="m 3273.76,2684.45 c 0,0 -261.52,-34.05 -353.62,-49.24 -92.09,-15.2 -237.92,60.79 -260.94,88.65 -23.03,27.86 -53.72,83.59 -53.72,83.59 l 21.19,75.2 -93.28,79.3 -32.22,-60.72 71.05,-93.78 c 0,0 23.03,-146.91 135.58,-225.43 112.57,-78.52 138.15,-93.71 278.85,-60.79 140.71,32.93 328.04,23.91 328.04,23.91 l 53.72,91.19 -94.65,48.12"
         style="fill:#373d43;fill-opacity:1;fill-rule:nonzero;stroke:none"
         id="path210" />
      <path
         d="m 3273.76,2684.45 -0.64,4.96 c -0.04,-0.01 -261.49,-34.04 -353.8,-49.27 -7.92,-1.3 -16.32,-1.92 -25.05,-1.92 -44.5,-0.03 -97.61,16.06 -141.93,35.39 -22.16,9.66 -42.15,20.11 -57.81,29.66 -15.62,9.48 -27.05,18.34 -31.48,23.78 -11.19,13.53 -24.59,34.33 -35.07,51.64 -5.25,8.66 -9.78,16.47 -13.01,22.1 -3.22,5.63 -5.11,9.06 -5.11,9.07 l -4.38,-2.41 4.81,-1.36 22.06,78.29 -100.46,85.41 -36.63,-69.04 72.97,-96.32 3.99,3.02 -4.94,-0.78 c 0.04,-0.27 5.86,-37.36 25.92,-84.45 20.06,-47.07 54.38,-104.27 111.74,-144.3 37.99,-26.49 66.19,-45.89 92.64,-58.82 26.43,-12.93 51.24,-19.23 81.33,-19.2 29.04,0.01 62.95,5.72 108.88,16.46 90.2,21.12 200.35,24.92 266.88,24.91 18.23,0 33.19,-0.28 43.58,-0.56 10.4,-0.28 16.18,-0.56 16.2,-0.56 l 3.01,-0.15 57.96,98.37 -100.77,51.24 -1.53,-0.2 0.64,-4.96 -2.27,-4.46 89.91,-45.71 -51.02,-86.6 4.31,-2.54 0.24,5 c -0.06,0 -23.6,1.13 -60.26,1.13 -66.94,-0.01 -177.52,-3.74 -269.16,-25.17 -45.63,-10.69 -78.91,-16.21 -106.6,-16.2 -28.72,0.02 -51.51,5.8 -76.94,18.19 -25.41,12.39 -53.35,31.55 -91.31,58.03 -55.19,38.49 -88.67,94 -108.26,140.02 -9.8,22.99 -16.12,43.58 -19.99,58.39 -1.93,7.4 -3.25,13.36 -4.08,17.45 -0.42,2.04 -0.72,3.62 -0.9,4.68 -0.19,1.06 -0.27,1.56 -0.27,1.56 l -0.2,1.24 -69.87,92.25 27.8,52.4 86.1,-73.19 -20.88,-74.09 0.99,-1.8 c 0.02,-0.04 7.72,-14.02 18.33,-31.52 10.62,-17.52 24.08,-38.5 35.92,-52.83 6.05,-7.25 17.83,-16.07 33.98,-25.95 48.36,-29.4 134.73,-66.4 204.94,-66.51 9.2,0 18.13,0.65 26.68,2.06 45.92,7.57 134.34,19.89 211.21,30.29 38.44,5.21 74,9.94 99.95,13.36 25.96,3.43 42.25,5.55 42.3,5.56 l -0.65,4.96 -2.27,-4.46 2.27,4.46"
         style="fill:#373d43;fill-opacity:1;fill-rule:nonzero;stroke:none"
         id="path212" />
      <path
         d="m 2008.47,3553.54 c 0,-202.46 -164.13,-366.58 -366.58,-366.58 -202.46,0 -366.59,164.12 -366.59,366.58 0,202.46 164.13,366.58 366.59,366.58 202.45,0 366.58,-164.12 366.58,-366.58"
         style="fill:#ffffff;fill-opacity:1;fill-rule:nonzero;stroke:none"
         id="path214" />
      <path
         d="m 2008.47,3553.54 h -5 c -0.01,-99.86 -40.47,-190.23 -105.91,-255.68 -65.45,-65.44 -155.81,-105.9 -255.67,-105.9 -99.87,0 -190.23,40.46 -255.68,105.9 -65.44,65.45 -105.9,155.82 -105.91,255.68 0.01,99.86 40.47,190.23 105.91,255.67 65.45,65.45 155.81,105.91 255.68,105.91 99.86,0 190.22,-40.46 255.67,-105.91 65.44,-65.44 105.9,-155.81 105.91,-255.67 h 5 5 c -0.01,205.22 -166.36,371.58 -371.58,371.58 -205.22,0 -371.58,-166.36 -371.59,-371.58 0.01,-205.22 166.37,-371.58 371.59,-371.58 205.22,0 371.57,166.36 371.58,371.58 h -5"
         style="fill:#373d43;fill-opacity:1;fill-rule:nonzero;stroke:none"
         id="path216" />
      <path
         d="m 1620.52,3784.14 v 35.34 h 61.17 v -35.34 c 53,-10.88 80.19,-51.66 80.19,-116.22 v -14.95 h -70.68 v 19.71 c 0,33.98 -13.6,46.89 -37.38,46.89 -23.79,0 -37.38,-12.91 -37.38,-46.89 0,-97.87 146.12,-102.63 146.12,-238.55 0,-64.56 -27.87,-106.02 -80.87,-116.9 v -34.66 h -61.17 v 34.66 c -53.69,10.88 -80.88,52.34 -80.88,116.9 v 32.62 h 70.68 v -37.38 c 0,-33.98 14.95,-46.22 38.74,-46.22 23.79,0 38.74,12.24 38.74,46.22 0,97.86 -146.12,102.62 -146.12,238.55 0,63.88 26.5,104.66 78.84,116.22"
         style="fill:#373d43;fill-opacity:1;fill-rule:nonzero;stroke:none"
         id="path218" />
      <path
         d="m 2108.03,3533.17 c 0,-21.24 -15.19,-38.47 -33.94,-38.47 -18.75,0 -33.94,17.23 -33.94,38.47 0,21.25 15.19,38.47 33.94,38.47 18.75,0 33.94,-17.22 33.94,-38.47"
         style="fill:#ffffff;fill-opacity:1;fill-rule:nonzero;stroke:none"
         id="path220" />
      <path
         d="m 2108.03,3533.17 h -5 c 0.01,-9.42 -3.38,-17.87 -8.69,-23.89 -5.33,-6.02 -12.44,-9.57 -20.25,-9.58 -7.81,0.01 -14.92,3.56 -20.25,9.58 -5.31,6.02 -8.7,14.47 -8.69,23.89 -0.01,9.43 3.38,17.88 8.69,23.9 5.33,6.02 12.44,9.56 20.25,9.57 7.81,-0.01 14.92,-3.55 20.25,-9.57 5.31,-6.02 8.7,-14.47 8.69,-23.9 h 5 5 c 0,11.82 -4.22,22.6 -11.19,30.51 -6.95,7.9 -16.81,12.96 -27.75,12.96 -10.94,0 -20.8,-5.05 -27.75,-12.96 -6.97,-7.91 -11.19,-18.69 -11.19,-30.51 0,-11.81 4.22,-22.6 11.19,-30.51 6.95,-7.9 16.81,-12.96 27.75,-12.96 10.94,0 20.8,5.06 27.75,12.96 6.97,7.91 11.19,18.7 11.19,30.51 h -5"
         style="fill:#373d43;fill-opacity:1;fill-rule:nonzero;stroke:none"
         id="path222" />
      <path
         d="m 2184.97,3515.07 c 0,-16.25 -12.16,-29.42 -27.15,-29.42 -15,0 -27.16,13.17 -27.16,29.42 0,16.25 12.16,29.42 27.16,29.42 14.99,0 27.15,-13.17 27.15,-29.42"
         style="fill:#ffffff;fill-opacity:1;fill-rule:nonzero;stroke:none"
         id="path224" />
      <path
         d="m 2184.97,3515.07 h -5 c 0,-6.87 -2.57,-13.02 -6.63,-17.41 -4.07,-4.39 -9.51,-7 -15.52,-7.01 -6.01,0.01 -11.46,2.62 -15.53,7.01 -4.06,4.39 -6.63,10.54 -6.63,17.41 0,6.87 2.57,13.02 6.63,17.41 4.07,4.4 9.52,7 15.53,7.01 6.01,-0.01 11.45,-2.61 15.52,-7.01 4.06,-4.39 6.63,-10.54 6.63,-17.41 h 5 5 c 0,9.38 -3.51,17.94 -9.28,24.19 -5.75,6.26 -13.89,10.23 -22.87,10.23 -8.99,0 -17.12,-3.97 -22.88,-10.23 -5.77,-6.25 -9.28,-14.81 -9.28,-24.19 0,-9.38 3.51,-17.94 9.28,-24.19 5.76,-6.25 13.89,-10.23 22.88,-10.23 8.98,0 17.12,3.98 22.87,10.23 5.77,6.25 9.28,14.81 9.28,24.19 h -5"
         style="fill:#373d43;fill-opacity:1;fill-rule:nonzero;stroke:none"
         id="path226" />
      <path
         d="m 4401.89,0 h 310 v 10 h -310 z"
         style="fill:#373d43;fill-opacity:1;fill-rule:nonzero;stroke:none"
         id="path228" />
      <path
         d="m 71.8867,0 h 4240 v 10 h -4240 z"
         style="fill:#373d43;fill-opacity:1;fill-rule:nonzero;stroke:none"
         id="path230" />
    </g>
  </g>
</svg>
