<?xml version="1.0" encoding="UTF-8" standalone="no"?>
<!-- Created with Inkscape (http://www.inkscape.org/) -->

<svg
   version="1.1"
   id="svg2"
   width="576.38666"
   height="552.8667"
   viewBox="0 0 576.38666 552.8667"
   sodipodi:docname="20824336_6365293.eps"
   xmlns:inkscape="http://www.inkscape.org/namespaces/inkscape"
   xmlns:sodipodi="http://sodipodi.sourceforge.net/DTD/sodipodi-0.dtd"
   xmlns="http://www.w3.org/2000/svg"
   xmlns:svg="http://www.w3.org/2000/svg">
  <defs
     id="defs6" />
  <sodipodi:namedview
     id="namedview4"
     pagecolor="#ffffff"
     bordercolor="#000000"
     borderopacity="0.25"
     inkscape:showpageshadow="2"
     inkscape:pageopacity="0.0"
     inkscape:pagecheckerboard="0"
     inkscape:deskcolor="#d1d1d1" />
  <g
     id="g8"
     inkscape:groupmode="layer"
     inkscape:label="ink_ext_XXXXXX"
     transform="matrix(1.3333333,0,0,-1.3333333,0,552.86667)">
    <g
       id="g10"
       transform="scale(0.1)">
      <path
         d="m 220.285,2527.85 c 0,0 -404.758,-610.47 -116.965,-1531.248 C 391.121,75.8203 1227.72,-159.09 1724.1,96.9102 2220.48,352.93 2292.93,685.359 2693.75,926.891 3094.56,1168.44 3922.18,1159.86 4240.78,1824.25 4559.38,2488.64 3898.73,3419.91 3150.35,3956.16 2401.97,4492.41 777.453,3857.91 220.285,2527.85"
         style="fill:#6ccb94;fill-opacity:1;fill-rule:nonzero;stroke:none"
         id="path12" />
      <path
         d="M 1304.69,0 C 845.863,0.0390625 319.594,304.66 103.32,996.602 27.8594,1238.03 0.015625,1458.14 0,1651.49 c -0.0390625,544.06 220.285,876.36 220.285,876.36 423.012,1009.8 1461.255,1618.68 2264.215,1618.68 254.66,0 485.66,-61.24 665.85,-190.37 615.92,-441.33 1172.41,-1150.23 1172.51,-1757.71 0.03,-130.65 -25.69,-256.61 -82.08,-374.2 C 3922.18,1159.86 3094.56,1168.44 2693.75,926.891 2292.93,685.359 2220.48,352.93 1724.1,96.9102 1600.73,33.2891 1456.44,-0.0195313 1304.69,0"
         style="fill:#ccedd5;fill-opacity:1;fill-rule:nonzero;stroke:none"
         id="path14" />
      <path
         d="m 2793.84,1210.52 c 35.72,-15.6 123.07,-13.64 123.13,-13.64 0.91,0.03 -18.77,57.19 -20.43,60.66 -19.16,40.08 -79.77,106.29 -129.09,99.63 -35.52,-4.81 -55.28,-40.37 -47.27,-73.81 8.19,-34.17 43.25,-59.55 73.66,-72.84"
         style="fill:#17282f;fill-opacity:1;fill-rule:nonzero;stroke:none"
         id="path16" />
      <path
         d="m 2824,957.492 c 37.04,-5.402 115,17.199 121.2,19.028 12.3,-43.641 28.47,-87.418 47.28,-130.829 10.72,-24.832 22.29,-49.5 34.21,-74.089 -7.12,10.41 -13.55,19.679 -14.59,20.878 -29.08,33.61 -105.02,81.45 -150.82,61.989 -33.01,-14 -42.66,-53.508 -26.09,-83.66 16.91,-30.789 57.44,-46.02 90.27,-50.797 33.33,-4.871 100.18,13.078 117.81,18.058 4.67,-9.39 9.22,-18.8 13.94,-28.168 22.58,-44.953 45.29,-89.711 66.23,-134.3 7.39,-15.7 14.09,-31.442 20.85,-47.172 -6.32,9.242 -11.73,16.98 -12.68,18.082 -29.08,33.609 -105.01,81.457 -150.82,61.988 -33,-14.008 -42.67,-53.508 -26.1,-83.66 16.93,-30.789 57.44,-46.008 90.28,-50.801 31.81,-4.641 93.66,11.371 114.63,17.191 6.44,-16.32 12.92,-32.64 18.42,-48.738 3.52,-11.082 7.67,-21.5 10.56,-32.812 3.11,-11.16 6.19,-22.188 9.23,-33.121 5.1,-21.258 10.5,-43.168 14.96,-64.028 3.21,-14.492 6,-28.371 8.85,-42.34 -7.17,15.739 -21.86,46.211 -23.39,48.629 -23.63,37.621 -91.45,96.399 -139.68,84.129 -34.74,-8.859 -50.29,-46.449 -38.46,-78.75 12.06,-33 49.79,-54.187 81.53,-63.898 34.95,-10.672 112.33,-0.922 121.99,0.371 4.63,-23.121 8.92,-45.652 12.63,-66.981 1.99,-11.289 3.71,-21.89 5.47,-32.55 h 30.77 c -2.27,12.281 -4.65,24.839 -7.25,37.968 -4.61,23.5 -10.01,48.512 -15.8,74.141 5.82,2.301 38.81,15.66 68.05,32 25.47,-27.59 90.74,-59.859 99.19,-63.969 -8.88,-21.851 -17.73,-43 -26.4,-62.832 -2.62,-6.008 -5.13,-11.597 -7.68,-17.308 H 3415 c 0.82,1.949 1.61,3.82 2.43,5.828 9.11,22.14 18.41,45.992 27.73,70.562 9.36,-1.961 85.96,-17.511 121.66,-9.468 32.36,7.328 71.58,25.648 86.07,57.656 14.2,31.32 1.5,69.972 -32.5,81.39 -47.17,15.852 -119.19,-37.73 -145.56,-73.5 -1.57,-2.097 -15.89,-26.867 -24.67,-42.648 3.75,10.051 7.5,19.781 11.24,30.191 7.54,20.52 14.44,41.219 21.95,63.469 3.25,10.871 6.53,21.84 9.85,32.93 3.52,10.918 5.85,22.918 8.87,34.469 6.42,26.941 11.6,54.55 16.21,82.48 17.99,-6.539 82.19,-28.891 115.46,-26.539 33.12,2.32 74.64,14.48 93.81,43.93 18.78,28.82 12.08,68.949 -19.78,85.379 -44.24,22.82 -123.53,-19.239 -155.03,-50.59 -1.97,-1.95 -22.04,-26.981 -32.8,-40.95 2.65,16.821 5.35,33.571 7.47,50.661 6.14,49.351 10.79,99.488 15.67,149.488 1.48,15.32 3.15,30.551 4.75,45.832 6.38,-2.422 82.12,-30.609 119.38,-27.992 33.11,2.32 74.65,14.492 93.81,43.933 18.78,28.817 12.09,68.95 -19.79,85.379 -44.23,22.809 -123.52,-19.242 -155.02,-50.59 -2.36,-2.359 -31.2,-38.421 -38.08,-47.961 3.55,33.622 7.4,67.09 12.54,99.93 7.02,45.309 16.42,89.399 28.68,131.43 2.97,-1.129 81.89,-30.91 120.05,-28.231 33.1,2.332 74.64,14.493 93.81,43.931 18.77,28.82 12.08,68.95 -19.79,85.38 -44.24,22.81 -123.52,-19.24 -155.03,-50.58 -2.46,-2.47 -33.46,-41.281 -38.58,-48.719 0.74,2.5 1.23,5.16 1.99,7.641 13.66,44.708 32.51,86.298 52.06,124.368 11.32,22.15 23.38,42.68 35.56,62.4 14.14,-7.06 79.06,-38.58 113.67,-39.97 33.16,-1.32 75.79,6.2 98.06,33.36 21.83,26.59 19.58,67.2 -10.28,87.04 -41.46,27.53 -124.89,-5.56 -159.65,-33.26 -1.88,-1.5 -19.39,-18.95 -31.97,-31.83 5.62,8.82 11.27,18.02 16.85,26.36 20.81,31.35 41.8,58.77 60.59,82.92 10.8,13.63 20.83,25.76 30.34,37 17.47,0.3 87.89,2.44 118.68,16.89 30.03,14.12 64.41,40.43 71.67,74.81 7.11,33.66 -13.6,68.67 -49.24,72.5 -49.48,5.34 -108.28,-62.47 -126.36,-103.07 -1.56,-3.52 -19.7,-61.2 -18.78,-61.19 l 1.05,0.02 c -9.37,-10.63 -19.27,-22.14 -29.86,-34.94 -19.36,-23.78 -41,-50.82 -62.59,-81.84 -21.65,-30.94 -44.29,-65.17 -64.9,-103.37 -20.69,-38.28 -40.51,-79.59 -55.43,-124.8 l -0.45,-1.578 c 0.27,14.578 -0.38,55.368 -0.79,58.478 -5.71,44.08 -42.65,125.88 -91.6,134.93 -35.24,6.51 -65.11,-21.11 -67.92,-55.39 -2.86,-35.02 22.52,-70.06 47.28,-92.18 27.91,-24.93 105.41,-49.08 111.59,-50.99 -13.82,-43.18 -24.49,-88.621 -32.75,-135.188 -4.74,-26.633 -8.71,-53.601 -12.33,-80.683 -0.19,12.613 -0.44,23.89 -0.66,25.461 -5.71,44.07 -42.64,125.871 -91.59,134.91 -35.25,6.531 -65.1,-21.098 -67.91,-55.391 -2.88,-35.008 22.51,-70.059 47.27,-92.168 25.12,-22.43 90.77,-44.351 108.22,-49.922 -1.28,-10.41 -2.68,-20.789 -3.93,-31.199 -5.96,-49.93 -11.69,-99.801 -18.82,-148.539 -2.5,-17.18 -5.61,-34 -8.65,-50.832 -0.17,11.191 -0.41,20.621 -0.59,22.051 -5.72,44.082 -42.66,125.879 -91.58,134.922 -35.28,6.507 -65.13,-21.102 -67.94,-55.403 -2.87,-35 22.52,-70.047 47.28,-92.16 23.96,-21.418 84.39,-42.199 105.09,-48.91 -3.62,-17.149 -7.24,-34.34 -11.53,-50.809 -3.19,-11.172 -5.47,-22.14 -9.29,-33.191 -3.56,-11.008 -7.08,-21.918 -10.57,-32.707 -7.48,-20.551 -15.06,-41.801 -22.86,-61.66 -5.31,-13.864 -10.64,-26.973 -15.95,-40.18 2.68,17.07 7.25,50.598 7.31,53.438 0.68,29.511 -9.8,77.511 -30.66,111.25 0.12,4.351 -0.12,8.699 -0.82,13.019 -5.45,33.961 -37.37,59.191 -72.02,49.961 -48.09,-12.809 -78.59,-97.219 -80.87,-141.598 -0.13,-2.613 1.59,-31.183 2.96,-49.191 -2.43,10.461 -4.65,20.641 -7.27,31.379 -5.04,21.269 -10.71,42.351 -16.71,65.051 -3.27,10.859 -6.6,21.828 -9.95,32.91 -3.09,11.051 -7.77,22.328 -11.62,33.629 -9.52,26.011 -20.42,51.91 -31.99,77.742 18.63,4.457 84.5,21.258 110.95,41.558 26.34,20.2 54.26,53.27 54.02,88.391 -0.25,34.399 -27.96,64.168 -63.61,60.301 -49.48,-5.371 -92.42,-84.192 -101.4,-127.711 -0.55,-2.719 -3.49,-34.672 -4.76,-52.262 -7.07,15.473 -14.05,30.973 -21.72,46.391 -22.11,44.539 -45.87,88.93 -69.39,133.32 -7.22,13.59 -14.24,27.211 -21.32,40.84 6.65,1.52 85.38,19.781 115.01,42.52 26.33,20.199 54.27,53.261 54.01,88.402 -0.25,34.387 -27.96,64.168 -63.61,60.277 -49.48,-5.359 -92.41,-84.179 -101.4,-127.707 -0.67,-3.281 -4.81,-49.25 -5.3,-61 -15.59,29.988 -30.83,60.028 -44.67,90.25 -19.14,41.68 -35.62,83.629 -48.57,125.438 3.09,0.711 85.34,19.422 115.69,42.69 26.34,20.2 54.27,53.26 54.01,88.4 -0.24,34.39 -27.96,64.17 -63.61,60.29 -49.47,-5.37 -92.41,-84.19 -101.39,-127.72 -0.7,-3.41 -5.13,-52.899 -5.3,-61.91 -0.77,2.492 -1.84,4.98 -2.58,7.461 -13.25,44.829 -20.49,89.919 -25.17,132.469 -2.79,24.71 -4.05,48.49 -4.76,71.65 15.67,1.92 87.23,11.44 116.85,29.38 28.4,17.18 59.79,46.98 63.4,81.92 3.53,34.22 -20.76,66.86 -56.61,66.91 -49.76,0.1 -101.1,-73.53 -114.8,-115.8 -0.74,-2.3 -5.74,-26.5 -9.12,-44.19 -0.16,10.45 -0.53,21.25 -0.49,31.27 0.08,37.63 2.45,72.1 4.8,102.6 1.49,17.34 3.17,32.98 4.91,47.6 14.39,9.9 71.95,50.53 89.65,79.57 17.28,28.34 31.41,69.24 18.51,101.91 -12.63,32.01 -49.22,49.78 -81.06,33.32 -44.22,-22.85 -55.84,-111.85 -48.54,-155.69 0.65,-3.78 17.34,-61.89 18.1,-61.39 l 0.87,0.6 c -1.96,-14.02 -3.88,-29.1 -5.64,-45.62 -3.04,-30.5 -6.17,-65 -7.05,-102.78 -0.99,-37.75 -1,-78.81 2.91,-122.04 3.85,-43.33 10.1,-88.72 22.61,-134.658 l 0.5,-1.563 c -7.84,12.301 -30.88,45.971 -32.94,48.351 -29.08,33.61 -105.01,81.44 -150.82,62 -33,-14.02 -42.68,-53.52 -26.1,-83.68 16.94,-30.78 57.43,-45.999 90.28,-50.788"
         style="fill:#17282f;fill-opacity:1;fill-rule:nonzero;stroke:none"
         id="path18" />
      <path
         d="m 3677.4,1191.31 c 0.78,-0.49 15.89,58.05 16.43,61.85 6.11,44.02 -7.91,132.67 -52.72,154.32 -32.29,15.59 -68.38,-3.17 -80.14,-35.5 -12.01,-33.01 3.21,-73.52 21.26,-101.38 21.17,-32.72 95.12,-79.25 95.17,-79.29"
         style="fill:#17282f;fill-opacity:1;fill-rule:nonzero;stroke:none"
         id="path20" />
      <path
         d="m 1539.15,1869.86 v 5 H 228.992 V 3571.41 H 1534.15 V 1869.86 h 5 v 5 -5 h 5 V 3581.41 H 218.992 V 1864.86 H 1544.15 v 5 h -5"
         style="fill:#17282f;fill-opacity:1;fill-rule:nonzero;stroke:none"
         id="path22" />
      <path
         d="m 1501.84,1918.27 v 5 H 266.305 V 3522.99 H 1496.84 V 1918.27 h 5 v 5 -5 h 5 V 3532.99 H 256.305 V 1913.27 H 1506.84 v 5 h -5"
         style="fill:#17282f;fill-opacity:1;fill-rule:nonzero;stroke:none"
         id="path24" />
      <path
         d="m 1190.81,2321.86 v 5 H 577.332 v 792.54 h 608.478 v -797.54 h 5 v 5 -5 h 5 V 3129.4 H 567.332 v -812.54 h 628.478 v 5 h -5"
         style="fill:#17282f;fill-opacity:1;fill-rule:nonzero;stroke:none"
         id="path26" />
      <path
         d="m 2763.52,2626.3 4.95,-0.7 28.15,199.59 196.17,-27.67 -27.45,-194.63 -201.12,28.36 -0.7,-4.95 4.95,-0.7 -4.95,0.7 -0.7,-4.95 211.02,-29.76 30.25,214.44 -215.98,30.46 -30.24,-214.44 4.95,-0.7 z m 52.8,318.79 4.95,-0.7 27.55,195.31 -4.95,0.7 2.62,-4.25 c 54.02,33.31 104.02,69.58 150,108.78 v 0 c 46.09,39.32 84.4,82.68 114.84,130.12 30.54,47.56 49.78,99.48 57.69,155.52 1.69,12 2.54,23.41 2.54,34.24 0,28.73 -6.01,53.47 -18.22,73.89 h -0.01 c -16.86,28.23 -45.12,45.16 -83.07,50.44 -7.65,1.08 -15.04,1.63 -22.16,1.63 -24.26,0.02 -45.48,-6.39 -63.05,-19.27 v 0 c -22.82,-16.63 -36.51,-41.96 -41.08,-74.68 l -0.01,-0.06 0.01,0.06 c -1.25,-8.85 -1.88,-17.41 -1.88,-25.7 0,-5.51 0.28,-10.89 0.83,-16.16 1.34,-12.8 3.05,-26.7 5.15,-41.67 l 4.95,0.69 -0.37,4.99 -196.55,-14.63 0.37,-4.99 4.9,0.98 c -4.25,21.27 -6.74,42.02 -7.48,62.23 v 0 0.01 c -0.17,4.29 -0.25,8.58 -0.25,12.88 0,15.89 1.13,31.8 3.38,47.73 v 0 c 12.05,85.14 47.41,148.56 106.26,191.57 44.61,32.54 100.09,48.93 167.02,48.95 21.2,0 43.54,-1.65 67.01,-4.96 99.62,-14.08 172.24,-51.69 219,-112.57 v 0 c 36.01,-46.96 54.11,-105.01 54.13,-174.83 0,-20.76 -1.6,-42.54 -4.82,-65.36 -9.18,-65.04 -29.03,-123.23 -59.55,-174.73 -30.59,-51.63 -70.09,-98.4 -118.53,-140.32 -48.6,-42.05 -103.53,-81.16 -164.89,-117.28 l -2.08,-1.23 -20.89,-148.14 -182.66,25.76 -0.7,-4.95 4.95,-0.7 -4.95,0.7 -0.7,-4.95 192.57,-27.16 21.95,155.66 -4.95,0.7 2.53,-4.31 c 61.83,36.4 117.27,75.85 166.36,118.34 49.2,42.56 89.43,90.18 120.59,142.78 31.24,52.71 51.51,112.24 60.85,178.43 3.28,23.24 4.92,45.49 4.92,66.76 0.02,71.52 -18.68,132.05 -56.2,180.92 v 0 c -48.65,63.4 -124.22,102.12 -225.53,116.38 -23.89,3.37 -46.69,5.06 -68.41,5.06 -68.52,0.01 -126.37,-16.89 -172.91,-50.87 -61.24,-44.65 -98.04,-111.15 -110.27,-198.25 v 0 c -2.31,-16.39 -3.48,-32.76 -3.48,-49.13 0,-4.43 0.08,-8.84 0.25,-13.27 v 0.02 c 0.76,-20.79 3.33,-42.07 7.67,-63.82 l 0.87,-4.34 206.28,15.35 -0.74,5.29 c -2.08,14.87 -3.77,28.65 -5.1,41.33 -0.52,4.9 -0.78,9.94 -0.78,15.11 0,7.79 0.59,15.88 1.78,24.3 v 0 c 4.39,30.82 16.72,53.08 37.08,68.01 v 0 c 15.76,11.52 34.6,17.32 57.15,17.34 6.61,0 13.53,-0.51 20.76,-1.53 35.88,-5.14 60.59,-20.28 75.9,-45.69 l -0.01,0.01 c 11.12,-18.58 16.8,-41.38 16.81,-68.75 0,-10.31 -0.81,-21.26 -2.45,-32.84 -7.72,-54.67 -26.42,-105.13 -56.2,-151.52 -29.87,-46.56 -67.5,-89.17 -112.91,-127.92 v 0.01 c -45.57,-38.86 -95.15,-74.83 -148.76,-107.88 l -1.99,-1.23 -28.58,-202.59 4.95,-0.7 0.7,4.95"
         style="fill:#17282f;fill-opacity:1;fill-rule:nonzero;stroke:none"
         id="path28" />
      <path
         d="m 1715.13,2101.19 c 0,0 -641.96,-8.56 -661.93,-54.21 -19.98,-45.64 -111.278,-599.16 -116.985,-790.33 -5.711,-191.16 -8.563,-316.701 11.41,-339.521 19.977,-22.828 330.975,-202.578 330.975,-202.578 0,0 -145.52,-510.711 -99.87,-527.832 45.65,-17.117 325.27,-88.4495 505.01,-91.3088 179.75,-2.8516 356.65,-2.8516 370.92,-2.8516 14.26,0 473.62,-17.1172 633.4,19.9724 159.78,37.098 208.28,39.949 208.28,102.711 0,62.778 -39.94,139.809 -42.79,154.071 -2.85,14.269 108.42,1095.627 45.64,1360.967 -62.76,265.34 -145.51,368.06 -208.27,385.18 -62.77,17.12 -510.72,5.71 -510.72,5.71 l -465.07,-19.98"
         style="fill:#6ccb94;fill-opacity:1;fill-rule:nonzero;stroke:none"
         id="path30" />
      <path
         d="m 1715.13,2101.19 -0.07,5 c -0.03,0 -160.55,-2.14 -323.65,-9.99 -81.55,-3.93 -163.74,-9.28 -226.93,-16.52 -31.61,-3.63 -58.45,-7.72 -78.26,-12.4 -9.91,-2.35 -18.06,-4.82 -24.33,-7.6 -3.13,-1.39 -5.81,-2.85 -8.05,-4.53 -2.22,-1.69 -4.09,-3.61 -5.23,-6.17 v 0.01 c -1.45,-3.35 -2.98,-8.28 -4.79,-15.02 -13.39,-50.1 -40.11,-199.15 -64.265,-358.52 -24.137,-159.33 -45.637,-328.53 -48.34,-418.65 -2.344,-78.47 -4.207,-145.9 -4.207,-199.8 0.004,-38.72 0.957,-70.43 3.418,-94.371 1.234,-11.981 2.84,-22.008 4.953,-30.098 2.148,-8.09 4.672,-14.269 8.48,-18.699 h 0.004 c 1.742,-1.961 4.239,-4.031 7.742,-6.723 13.008,-9.898 39.563,-26.968 72.375,-47.25 98.35,-60.757 252.09,-149.629 252.11,-149.64 l 2.51,4.332 -4.81,1.371 c -0.01,-0.031 -27.21,-95.473 -54.41,-205.293 -13.6,-54.91 -27.21,-113.41 -37.43,-165.418 -10.21,-52.039 -17.06,-97.449 -17.08,-126.809 0.01,-9.242 0.66,-16.902 2.28,-23.004 0.82,-3.046 1.89,-5.738 3.43,-8.058 1.53,-2.301 3.67,-4.289 6.4,-5.301 11.82,-4.43 37.84,-12.078 73.39,-21.25 106.6,-27.469 297.63,-68.1874 433.29,-70.3788 179.8,-2.8516 356.72,-2.8516 371,-2.8516 3.12,0 32.41,-0.9883 76.78,-1.9688 44.43,-0.9882 104.21,-1.9804 169.06,-1.9804 70.25,0 146.44,1.1601 215.53,4.7304 69.11,3.5899 131.03,9.5508 173.16,19.3202 79.85,18.559 131.83,28.449 164.83,41.981 16.48,6.769 28.46,14.609 36.29,25.351 7.84,10.738 11.05,23.969 11.03,40.25 -0.02,32.43 -10.2,67.758 -20.62,96.91 -5.21,14.567 -10.51,27.567 -14.65,37.778 -2.07,5.101 -3.86,9.511 -5.19,13.019 -1.33,3.481 -2.21,6.192 -2.43,7.34 l -3.17,-0.629 3.22,0.332 -0.05,0.309 -3.17,-0.641 3.22,0.332 -0.78,-0.082 0.78,0.051 v 0.031 l -0.78,-0.082 0.78,0.051 -0.01,0.41 c -0.01,3.391 1,17.129 2.78,38.481 12.42,150.05 62.14,688.398 62.15,1046.848 -0.02,117.96 -5.34,216.32 -19.36,275.73 -31.47,133.01 -67.96,225.46 -104.71,287.08 -36.77,61.57 -73.79,92.61 -107.12,101.77 -7.36,1.99 -18.62,3.48 -33.31,4.73 -43.98,3.71 -118.2,4.88 -195.39,4.88 -137.17,0 -283.44,-3.73 -283.46,-3.73 h -0.09 l -465.07,-19.97 0.22,-5 -0.07,5 0.07,-5 0.21,-4.99 465.07,19.97 -0.21,5 0.12,-5 c 0.03,0 9.13,0.23 24.98,0.58 47.54,1.05 155.48,3.14 258.23,3.14 51.37,0 101.45,-0.52 141.98,-1.96 20.27,-0.72 38.15,-1.67 52.56,-2.89 14.4,-1.2 25.44,-2.73 31.53,-4.41 29.44,-7.95 65.17,-36.84 101.16,-97.24 36.01,-60.34 72.27,-151.93 103.57,-284.26 13.67,-57.68 19.11,-155.86 19.09,-273.43 0,-204.36 -16.22,-467.759 -32.45,-683.938 -8.11,-108.102 -16.23,-204.403 -22.31,-275.653 -3.05,-35.617 -5.58,-64.98 -7.36,-86.437 -1.78,-21.531 -2.79,-34.82 -2.81,-39.301 0.02,-0.68 -0.02,-1.039 0.15,-2.039 0.5,-2.402 1.49,-5.223 2.89,-8.934 4.87,-12.816 14.82,-35.378 23.58,-61.609 8.77,-26.199 16.25,-56 16.23,-82.547 -0.02,-15.09 -2.87,-25.762 -9.12,-34.371 -4.7,-6.461 -11.54,-11.969 -21.3,-17.051 -29.26,-15.351 -84.07,-25.59 -173.99,-46.418 -40.95,-9.523 -102.61,-15.523 -171.42,-19.07 -68.82,-3.5625 -144.87,-4.7226 -215.01,-4.7226 -64.74,0 -124.46,0.9922 -168.84,1.9726 -44.45,0.9883 -73.28,1.9688 -77,1.9766 -14.26,0 -191.14,0 -370.84,2.8514 -89.28,1.41 -203.96,19.899 -301.85,40.199 -48.96,10.153 -93.74,20.743 -129.1,29.86 -35.33,9.113 -61.38,16.801 -72.38,20.933 -0.37,0.137 -0.88,0.45 -1.6,1.496 -1.06,1.543 -2.21,4.661 -2.92,9.024 -0.73,4.359 -1.1,9.93 -1.1,16.48 -0.02,27.907 6.72,73.157 16.89,124.879 15.26,77.641 38.17,170.16 57.27,243.219 9.55,36.539 18.15,68.211 24.35,90.75 6.21,22.539 10.01,35.891 10.02,35.93 0.63,2.211 -0.32,4.55 -2.3,5.699 -0.02,0.012 -4.86,2.801 -13.4,7.762 -29.88,17.351 -104.89,61.058 -174.59,102.898 -34.84,20.922 -68.36,41.383 -94.219,57.82 -12.922,8.231 -23.938,15.45 -32.203,21.192 -4.129,2.871 -7.575,5.379 -10.2,7.418 -2.609,2.031 -4.449,3.683 -5.101,4.453 v 0 c -2.074,2.308 -4.446,7.308 -6.332,14.637 -5.817,22.07 -8.075,64.171 -8.047,121.941 0,53.67 1.859,121.05 4.203,199.5 2.824,95.05 27.062,281.27 53.086,449.12 13.013,83.95 26.463,163.35 37.913,224.58 5.72,30.61 10.94,56.68 15.34,76.47 2.2,9.89 4.19,18.22 5.93,24.72 1.73,6.48 3.25,11.23 4.3,13.59 0.11,0.29 0.7,1.15 2.08,2.18 2.64,2.02 7.89,4.45 15.09,6.71 27.13,8.62 81.27,15.79 146.51,21.41 97.95,8.47 221.43,13.7 320.37,16.81 49.47,1.56 92.82,2.58 123.8,3.22 30.97,0.64 49.52,0.88 49.57,0.88 l 0.14,0.01 -0.21,4.99"
         style="fill:#17282f;fill-opacity:1;fill-rule:nonzero;stroke:none"
         id="path32" />
      <path
         d="m 2054.52,1875.94 c -20.94,-12.17 -43.05,-23.43 -66.21,-33.29 -2.54,-1.09 -3.73,-4.02 -2.64,-6.56 1.08,-2.54 4.01,-3.73 6.55,-2.65 23.58,10.04 46.05,21.5 67.33,33.86 2.38,1.38 3.19,4.44 1.81,6.83 -1.39,2.39 -4.45,3.2 -6.84,1.81"
         style="fill:#17282f;fill-opacity:1;fill-rule:nonzero;stroke:none"
         id="path34" />
      <path
         d="m 2290.83,2090.16 -0.87,-1.22 c -8.82,-12.37 -84.67,-115.65 -205.48,-194.53 -2.31,-1.51 -2.96,-4.61 -1.45,-6.92 1.51,-2.31 4.61,-2.96 6.92,-1.45 130.67,85.37 208.87,198.14 209.09,198.42 1.58,2.27 1.01,5.39 -1.26,6.96 -2.26,1.57 -5.38,1.01 -6.95,-1.26"
         style="fill:#17282f;fill-opacity:1;fill-rule:nonzero;stroke:none"
         id="path36" />
      <path
         d="m 2252.77,1975.95 c -0.01,0 -0.89,-1.25 -2.58,-3.55 -5.92,-8.05 -21.51,-28.66 -41.19,-50.19 -19.65,-21.52 -43.52,-43.95 -65.29,-55.52 -2.44,-1.3 -3.36,-4.33 -2.06,-6.77 1.3,-2.44 4.33,-3.36 6.76,-2.06 27.04,14.47 54.86,42.46 76.28,66.9 21.38,24.44 36.17,45.32 36.24,45.41 1.59,2.26 1.06,5.38 -1.19,6.97 -2.26,1.6 -5.38,1.07 -6.97,-1.19"
         style="fill:#17282f;fill-opacity:1;fill-rule:nonzero;stroke:none"
         id="path38" />
      <path
         d="m 1853.69,1060.45 -16.82,52.22 c -0.85,2.63 -3.66,4.08 -6.29,3.23 -2.63,-0.85 -4.07,-3.66 -3.23,-6.29 l 16.82,-52.23 c 0.84,-2.63 3.66,-4.07 6.29,-3.23 2.63,0.85 4.07,3.67 3.23,6.3"
         style="fill:#17282f;fill-opacity:1;fill-rule:nonzero;stroke:none"
         id="path40" />
      <path
         d="m 1945.29,776 -74.38,230.96 c -0.84,2.63 -3.66,4.07 -6.29,3.23 -2.63,-0.85 -4.07,-3.67 -3.22,-6.29 l 74.37,-230.959 c 0.85,-2.632 3.66,-4.07 6.29,-3.23 2.63,0.852 4.08,3.668 3.23,6.289"
         style="fill:#17282f;fill-opacity:1;fill-rule:nonzero;stroke:none"
         id="path42" />
      <path
         d="m 1967.58,766.082 74.18,116.981 c 1.48,2.328 0.79,5.417 -1.55,6.898 -2.33,1.48 -5.42,0.789 -6.9,-1.539 l -74.18,-116.981 c -1.47,-2.339 -0.78,-5.429 1.55,-6.902 2.33,-1.476 5.42,-0.789 6.9,1.543"
         style="fill:#17282f;fill-opacity:1;fill-rule:nonzero;stroke:none"
         id="path44" />
      <path
         d="m 2135.43,833.922 179.75,202.568 c 1.84,2.07 1.65,5.23 -0.42,7.06 -2.06,1.84 -5.22,1.65 -7.06,-0.42 L 2127.95,840.551 c -1.83,-2.059 -1.64,-5.219 0.42,-7.059 2.07,-1.832 5.23,-1.64 7.06,0.43"
         style="fill:#17282f;fill-opacity:1;fill-rule:nonzero;stroke:none"
         id="path46" />
      <path
         d="M 1666.37,200.512 2053.26,87.7617 c 2.65,-0.7812 5.42,0.75 6.2,3.3985 0.77,2.6484 -0.75,5.4218 -3.41,6.1992 L 1669.17,210.109 c -2.65,0.77 -5.43,-0.75 -6.2,-3.398 -0.77,-2.652 0.75,-5.43 3.4,-6.199"
         style="fill:#17282f;fill-opacity:1;fill-rule:nonzero;stroke:none"
         id="path48" />
      <path
         d="m 1553.95,233.27 66.44,-19.36 c 2.65,-0.769 5.43,0.75 6.2,3.399 0.77,2.652 -0.75,5.433 -3.4,6.203 l -66.44,19.359 c -2.65,0.781 -5.42,-0.75 -6.2,-3.402 -0.77,-2.649 0.75,-5.418 3.4,-6.199"
         style="fill:#17282f;fill-opacity:1;fill-rule:nonzero;stroke:none"
         id="path50" />
      <path
         d="m 1711.14,3370.14 c 0,0 -201.59,46.31 -239.73,-5.45 -38.14,-51.76 38.14,-100.8 27.24,-111.7 -10.9,-10.9 -245.19,-130.77 -226.12,-247.91 19.07,-117.15 177.08,-237.02 182.53,-269.71 5.45,-32.69 -182.53,-43.58 -207.05,-92.62 -24.52,-49.04 -59.93,-280.61 144.39,-356.89 204.33,-76.28 460.41,51.76 531.24,51.76 70.83,0 141.66,-138.94 223.4,-130.76 81.73,8.17 128.04,68.1 128.04,68.1 0,0 84.45,-117.14 207.05,-68.1 122.59,49.04 264.26,220.67 204.32,272.43 -59.93,51.76 -128.04,68.11 -84.46,114.42 43.59,46.31 133.5,168.91 119.88,275.16 -13.63,106.24 -138.94,114.41 -187.98,147.11 -49.04,32.69 54.49,87.18 51.76,177.08 -2.72,89.9 -68.11,239.74 -400.47,340.54 -332.37,100.8 -495.83,51.76 -512.17,-32.69 -16.35,-84.46 38.13,-130.77 38.13,-130.77"
         style="fill:#17282f;fill-opacity:1;fill-rule:nonzero;stroke:none"
         id="path52" />
      <path
         d="m 1711.14,3370.14 1.12,4.87 c -0.18,0.03 -83.24,19.17 -153.63,19.19 -19.69,0 -38.42,-1.49 -54.27,-5.45 -15.81,-3.97 -29.02,-10.37 -36.98,-21.09 -8.32,-11.26 -11.76,-22.85 -11.74,-33.85 0.06,-19.82 10.56,-37.2 20.48,-51.07 4.99,-6.93 9.91,-13.01 13.45,-17.9 1.77,-2.43 3.18,-4.58 4.06,-6.24 0.91,-1.65 1.14,-2.84 1.1,-2.88 h 0.89 l -0.82,0.32 -0.07,-0.32 h 0.89 l -0.82,0.32 1.31,-0.5 -1,0.99 -0.31,-0.49 1.31,-0.5 -1,0.99 c 0.02,-0.03 -1.43,-1.16 -3.48,-2.48 -7.87,-5.16 -25.99,-15.74 -48.48,-30.19 -33.78,-21.72 -77.63,-52.27 -113.26,-87.6 -17.81,-17.67 -33.58,-36.54 -44.99,-56.23 -11.4,-19.69 -18.47,-40.27 -18.47,-61.21 0,-4.84 0.38,-9.69 1.17,-14.54 9.94,-60.45 54.83,-120.05 97.54,-169.01 21.38,-24.46 42.28,-46.21 58.06,-63.78 7.9,-8.78 14.51,-16.51 19.21,-22.91 4.72,-6.33 7.39,-11.56 7.72,-14.03 l 0.05,-0.56 c -0.01,-0.74 -0.22,-1.53 -1.09,-2.75 -1.6,-2.26 -5.74,-5.29 -11.81,-8.15 -10.62,-5.09 -26.81,-10.03 -45.22,-15.01 -27.64,-7.5 -60.34,-15.2 -88.24,-24.85 -13.96,-4.83 -26.72,-10.14 -37.17,-16.29 -10.41,-6.17 -18.67,-13.17 -23.11,-21.96 -4.72,-9.47 -9.51,-24.44 -13.25,-43.41 -3.71,-18.94 -6.3,-41.8 -6.3,-66.69 0.01,-44.36 8.21,-95.2 33.22,-141.38 24.97,-46.17 66.92,-87.52 133.45,-112.32 47.58,-17.77 97.81,-24.57 147.74,-24.57 83.81,0.01 166.88,19.14 235.78,38.19 34.44,9.52 65.35,19.03 90.94,26.13 25.55,7.11 45.97,11.74 58.52,11.69 15.56,0.04 31.91,-7.52 48.88,-19.56 25.45,-18 51.82,-45.59 79.35,-68.88 13.78,-11.65 27.88,-22.23 42.51,-29.99 14.62,-7.74 29.84,-12.68 45.68,-12.68 2.48,0 4.97,0.12 7.47,0.37 42,4.21 74.84,21.69 97.14,38.07 22.31,16.39 34.16,31.7 34.37,31.96 l -3.96,3.05 -4.06,-2.92 c 0.19,-0.25 14.87,-20.6 41.02,-41.07 26.12,-20.43 63.9,-41.09 110.1,-41.11 19.32,0 40.06,3.64 61.84,12.36 52.31,20.95 107.3,63.29 149.56,109.43 21.12,23.08 39.04,47.11 51.76,70.03 12.69,22.92 20.31,44.7 20.34,63.73 0.06,14.81 -4.9,28.21 -15.92,37.66 -23.73,20.48 -48.53,35.39 -67.02,48.5 -9.24,6.54 -16.89,12.65 -21.98,18.48 -5.12,5.88 -7.55,11.14 -7.55,16.59 -0.03,6.19 3.25,13.84 12.47,23.64 20.57,21.87 51.06,60.17 76.57,105.88 25.47,45.7 46.02,98.78 46.05,150.42 0,7.69 -0.46,15.34 -1.43,22.92 -3.51,27.52 -14.41,49.03 -29.45,65.9 -22.58,25.33 -54.07,40.39 -84.22,52.33 -30.14,11.87 -59.19,20.8 -76.5,32.41 -4.25,2.83 -6.96,5.67 -8.61,8.43 -1.65,2.78 -2.35,5.54 -2.37,8.74 -0.06,6.59 3.49,15.23 9.47,25.24 8.88,15.04 22.7,33.02 34.35,54.04 11.65,21.02 21.2,45.27 21.2,72.97 0,1.21 -0.01,2.43 -0.05,3.65 -1.37,46.08 -18.95,107.36 -78,169.47 -59.03,62.14 -159.28,125.13 -326.02,175.7 -132.08,40.05 -237.7,56.58 -318.4,56.58 -61.46,-0.01 -108.49,-9.56 -141.82,-25.92 -33.29,-16.3 -53.05,-39.86 -58.31,-67.18 -2.2,-11.32 -3.15,-22.02 -3.15,-32.03 -0.01,-33.42 10.66,-59.28 21.33,-76.7 10.68,-17.45 21.34,-26.55 21.63,-26.8 l 3.23,3.81 1.12,4.87 -1.12,-4.87 3.24,3.81 -0.06,0.05 c -0.92,0.81 -10.83,9.69 -20.44,25.89 -9.61,16.21 -18.93,39.66 -18.93,69.94 0,9.38 0.89,19.42 2.96,30.13 4.61,23.66 21.52,44.63 52.91,60.1 31.34,15.42 76.99,24.91 137.41,24.9 79.34,0.01 184.11,-16.3 315.5,-56.15 165.62,-50.22 264.25,-112.55 321.67,-173.01 57.42,-60.48 73.89,-119.06 75.25,-162.89 0.04,-1.12 0.05,-2.24 0.05,-3.35 0.03,-33.77 -15.57,-62.67 -31.7,-87.54 -8.05,-12.43 -16.19,-23.8 -22.46,-34.38 -6.22,-10.59 -10.79,-20.39 -10.86,-30.33 -0.01,-4.77 1.18,-9.55 3.79,-13.87 2.59,-4.33 6.48,-8.18 11.65,-11.62 12.99,-8.64 30.26,-15.31 49.17,-22.37 28.34,-10.54 60.34,-21.86 86.17,-40.06 25.82,-18.26 45.47,-42.82 50.45,-81.16 0.91,-7.14 1.35,-14.36 1.35,-21.65 0.03,-48.94 -19.77,-100.74 -44.79,-145.55 -24.98,-44.81 -55.12,-82.66 -75.12,-103.89 -10.08,-10.71 -15.16,-20.63 -15.18,-30.5 -0.01,-8.66 4.01,-16.33 10.03,-23.18 9.08,-10.32 22.93,-19.67 38.85,-30.41 15.93,-10.71 33.93,-22.69 51.13,-37.54 8.55,-7.45 12.41,-17.33 12.46,-30.1 0.04,-16.29 -6.84,-36.87 -19.09,-58.88 -36.61,-66.2 -120.81,-144.98 -196.28,-175.03 -20.65,-8.26 -40.06,-11.64 -58.13,-11.64 -43.11,-0.01 -78.87,19.37 -103.94,38.99 -12.52,9.8 -22.34,19.61 -29,26.96 -3.33,3.67 -5.87,6.72 -7.56,8.84 -0.85,1.06 -1.49,1.88 -1.9,2.43 l -0.6,0.81 c -0.92,1.27 -2.41,2.05 -3.98,2.07 -1.57,0.03 -3.08,-0.7 -4.04,-1.94 l -0.46,-0.57 c -4.98,-6.18 -49.68,-58.26 -124.12,-65.62 -2.17,-0.21 -4.33,-0.32 -6.48,-0.32 -18.27,-0.01 -36.46,7.65 -54.63,19.66 -27.26,17.98 -54.04,45.49 -80.56,68.73 -13.28,11.62 -26.52,22.19 -39.96,29.95 -13.42,7.76 -27.15,12.77 -41.27,12.77 -14.73,-0.04 -35.34,-4.91 -61.19,-12.05 -77.32,-21.48 -200.56,-63.98 -324.05,-63.96 -49.03,0 -98.05,6.69 -144.25,23.94 -64.39,24.07 -104.15,63.47 -128.15,107.71 -23.98,44.24 -32.02,93.47 -32.01,136.62 0,24.19 2.52,46.45 6.11,64.77 3.58,18.29 8.3,32.72 12.39,40.86 2.45,4.94 7.29,9.91 14.18,14.61 12.05,8.25 30.08,15.51 50.2,21.91 30.22,9.63 65.12,17.49 92.68,25.57 13.81,4.06 25.76,8.15 34.67,12.78 4.46,2.33 8.18,4.78 11.05,7.73 2.83,2.9 4.91,6.62 4.91,10.88 l -0.19,2.21 c -1.03,5.7 -4.5,11.37 -9.53,18.31 -8.84,12.01 -22.98,27.27 -39.59,45.22 -24.9,26.9 -55.29,59.73 -80.93,95.26 -25.66,35.51 -46.45,73.7 -52.47,110.89 -0.7,4.31 -1.04,8.62 -1.04,12.94 -0.03,26.49 12.86,53.63 32.98,79.56 30.13,38.88 76.13,74.64 115.56,101.48 19.71,13.43 37.78,24.65 51.43,33.02 6.83,4.19 12.56,7.66 16.87,10.36 2.16,1.35 3.96,2.51 5.41,3.49 1.47,1.02 2.49,1.74 3.51,2.73 1.71,1.65 2.59,4.17 2.54,6.26 -0.05,2.87 -1.03,5.17 -2.26,7.56 -2.21,4.13 -5.58,8.54 -9.45,13.63 -11.7,15.11 -27.53,35.8 -27.38,56.9 0.02,8.96 2.63,18.16 9.79,27.91 5.72,7.84 16.68,13.69 31.35,17.33 14.62,3.66 32.67,5.15 51.85,5.15 34.33,0 72.27,-4.72 101.54,-9.47 14.64,-2.37 27.12,-4.74 35.94,-6.52 8.81,-1.77 13.9,-2.94 13.92,-2.94 2.25,-0.52 4.55,0.56 5.58,2.63 1.04,2.06 0.53,4.55 -1.23,6.05 l -3.24,-3.81"
         style="fill:#17282f;fill-opacity:1;fill-rule:nonzero;stroke:none"
         id="path54" />
      <path
         d="m 1747.38,2496.06 c 0,0 -68.11,-424.99 -70.83,-438.61 -2.72,-13.62 119.87,-136.21 286.05,-114.42 166.19,21.79 250.64,133.49 250.64,133.49 l -51.76,422.27 c 0,0 -141.67,-68.11 -228.85,-65.38 -87.17,2.72 -185.25,62.65 -185.25,62.65"
         style="fill:#ffffff;fill-opacity:1;fill-rule:nonzero;stroke:none"
         id="path56" />
      <path
         d="m 1747.38,2496.06 -4.94,0.79 c 0,-0.01 -1.06,-6.64 -2.93,-18.28 -6.54,-40.77 -22.91,-142.87 -37.96,-236.27 -7.52,-46.7 -14.7,-91.22 -20.16,-124.81 -2.73,-16.79 -5.02,-30.86 -6.71,-41.09 -1.68,-10.19 -2.78,-16.71 -3.03,-17.97 l -0.14,-1.47 c 0.05,-2.35 0.79,-4.03 1.73,-5.96 3.6,-6.94 12.15,-16.88 25.44,-28.85 39.74,-35.6 121.38,-86.65 224.32,-86.71 13.1,0 26.53,0.83 40.25,2.63 168.25,22.13 253.58,134.94 253.98,135.44 0.78,1.03 1.13,2.33 0.97,3.62 l -51.76,422.27 c -0.2,1.59 -1.16,3 -2.56,3.77 -1.41,0.77 -3.12,0.82 -4.57,0.12 -0.01,0 -2.08,-1 -5.94,-2.77 -13.53,-6.22 -48.67,-21.82 -89.86,-35.83 -41.15,-14.03 -88.46,-26.39 -125.69,-26.36 -1.7,0 -3.37,0.02 -5.03,0.07 -42.52,1.31 -88.4,16.74 -123.49,31.94 -17.55,7.6 -32.41,15.11 -42.87,20.72 -5.23,2.81 -9.36,5.13 -12.17,6.75 -2.81,1.62 -4.27,2.52 -4.27,2.52 -1.43,0.87 -3.18,0.97 -4.7,0.27 -1.52,-0.7 -2.58,-2.1 -2.85,-3.75 l 4.94,-0.79 -2.61,-4.26 c 0.14,-0.09 24.83,-15.17 60.56,-30.63 35.75,-15.45 82.49,-31.34 127.15,-32.76 1.76,-0.06 3.54,-0.08 5.34,-0.08 44.94,0.04 101.09,16.59 146.35,33.03 45.22,16.45 79.38,32.88 79.47,32.92 l -2.16,4.51 -4.97,-0.61 51.77,-422.27 4.96,0.61 -3.99,3.02 -0.9,-1.15 c -9.47,-11.86 -92.53,-110.27 -246.4,-130.41 -13.28,-1.74 -26.28,-2.54 -38.95,-2.54 -70.77,-0.01 -131.53,25.11 -174.57,52.06 -21.51,13.47 -38.58,27.39 -50.16,38.72 -5.78,5.65 -10.2,10.67 -13.06,14.55 -1.42,1.93 -2.46,3.58 -3.06,4.77 l -0.59,1.34 -0.06,0.25 -0.92,-0.17 h 0.93 l -0.01,0.17 -0.92,-0.17 h 0.93 -2.54 l 2.48,-0.49 0.06,0.49 h -2.54 l 2.48,-0.49 c 0.39,1.95 1.73,9.95 3.86,22.93 14.86,90.5 67.01,415.87 67.01,415.87 l -4.94,0.79 -2.61,-4.26 2.61,4.26"
         style="fill:#17282f;fill-opacity:1;fill-rule:nonzero;stroke:none"
         id="path58" />
      <path
         d="m 1719.43,2268.05 286.83,55.51 -258.88,172.5 z"
         style="fill:#17282f;fill-opacity:1;fill-rule:nonzero;stroke:none"
         id="path60" />
      <path
         d="m 1719.43,2268.05 0.95,-4.91 286.83,55.51 c 1.98,0.39 3.55,1.95 3.95,3.93 0.4,1.98 -0.45,4.02 -2.13,5.14 l -258.88,172.5 c -1.44,0.97 -3.28,1.11 -4.86,0.39 -1.58,-0.73 -2.66,-2.21 -2.87,-3.94 l -27.95,-228.01 c -0.2,-1.59 0.38,-3.17 1.55,-4.27 1.17,-1.09 2.79,-1.55 4.36,-1.25 l -0.95,4.91 4.96,-0.61 26.97,219.96 241.99,-161.24 -274.87,-53.2 0.95,-4.91 4.96,-0.61 -4.96,0.61"
         style="fill:#17282f;fill-opacity:1;fill-rule:nonzero;stroke:none"
         id="path62" />
      <path
         d="m 1595.97,2870.76 c 0,0 -47.99,60.8 -70.39,-15.99 -22.39,-76.79 73.59,-169.57 73.59,-169.57 l -3.2,185.56"
         style="fill:#ffffff;fill-opacity:1;fill-rule:nonzero;stroke:none"
         id="path64" />
      <path
         d="m 1595.97,2870.76 3.93,3.1 c -0.14,0.17 -4.82,6.1 -12.14,12.17 -7.34,6.01 -17.33,12.48 -28.93,12.57 -7.31,0.06 -15.04,-2.95 -21.52,-9.82 -6.51,-6.85 -12.04,-17.27 -16.53,-32.61 -2.48,-8.52 -3.58,-17.2 -3.58,-25.87 0.08,-37.18 19.91,-74.06 39.39,-101.93 19.53,-27.85 38.96,-46.62 39.11,-46.77 1.45,-1.4 3.61,-1.79 5.46,-0.99 1.86,0.81 3.05,2.65 3.01,4.67 l -3.2,185.57 c -0.02,1.09 -0.4,2.16 -1.07,3.01 l -3.93,-3.1 -5,-0.08 3.2,-185.57 5,0.09 3.48,3.59 -0.81,0.8 c -4.09,4.07 -22.92,23.38 -40.61,49.69 -17.73,26.29 -34.1,59.61 -34.03,91.02 0,7.83 0.99,15.54 3.18,23.07 4.19,14.39 9.24,23.37 14.17,28.51 4.96,5.12 9.52,6.67 14.28,6.72 7.51,0.09 16.1,-4.86 22.55,-10.27 3.23,-2.67 5.94,-5.38 7.81,-7.4 0.94,-1.01 1.67,-1.85 2.16,-2.42 l 0.55,-0.65 0.15,-0.19 3.92,3.09 -5,-0.08 5,0.08"
         style="fill:#17282f;fill-opacity:1;fill-rule:nonzero;stroke:none"
         id="path66" />
      <path
         d="m 2283.66,2870.76 c 0,0 48,60.8 70.39,-15.99 22.4,-76.79 -73.58,-169.57 -73.58,-169.57 l 3.19,185.56"
         style="fill:#ffffff;fill-opacity:1;fill-rule:nonzero;stroke:none"
         id="path68" />
      <path
         d="m 2283.66,2870.76 3.93,-3.09 0.15,0.19 c 0.88,1.08 5.45,6.5 11.75,11.47 6.29,5.03 14.27,9.35 21.32,9.27 4.76,-0.05 9.31,-1.6 14.28,-6.72 4.92,-5.14 9.98,-14.12 14.16,-28.51 2.2,-7.53 3.19,-15.24 3.19,-23.07 0.08,-33.51 -18.57,-69.18 -37.58,-96.19 -9.48,-13.51 -18.98,-24.88 -26.1,-32.85 -3.55,-3.98 -6.51,-7.12 -8.58,-9.25 -1.03,-1.06 -1.84,-1.88 -2.38,-2.42 l -0.81,-0.8 3.48,-3.59 5,-0.09 3.19,185.57 -5,0.08 3.93,-3.09 -3.93,3.09 -5,0.09 -3.19,-185.57 c -0.04,-2.02 1.15,-3.86 3,-4.67 1.86,-0.8 4.02,-0.41 5.47,0.99 0.14,0.15 19.57,18.92 39.11,46.77 19.48,27.86 39.31,64.75 39.39,101.93 0,8.67 -1.1,17.35 -3.59,25.87 -4.48,15.34 -10.01,25.76 -16.53,32.61 -6.47,6.87 -14.2,9.88 -21.51,9.82 -11.6,-0.09 -21.59,-6.56 -28.93,-12.57 -7.32,-6.07 -12,-12 -12.14,-12.17 -0.68,-0.85 -1.06,-1.92 -1.08,-3.01 l 5,-0.09"
         style="fill:#17282f;fill-opacity:1;fill-rule:nonzero;stroke:none"
         id="path70" />
      <path
         d="m 1746.79,3254.95 c 0,0 -137.38,-133.4 -157.3,-173.22 -19.9,-39.82 -11.94,-495.77 9.96,-539.58 21.9,-43.8 240.92,-215.04 276.76,-228.97 35.84,-13.94 117.47,-27.88 181.19,3.98 63.71,31.86 217.03,195.12 232.95,236.93 15.93,41.82 -3.98,519.68 -13.94,565.47 -9.95,45.8 -250.87,209.06 -352.41,217.03 -101.55,7.96 -177.21,-81.64 -177.21,-81.64"
         style="fill:#ffffff;fill-opacity:1;fill-rule:nonzero;stroke:none"
         id="path72" />
      <path
         d="m 1746.79,3254.95 -3.48,3.59 c -0.03,-0.02 -34.4,-33.4 -71.31,-71.8 -18.45,-19.2 -37.54,-39.66 -53.31,-57.87 -15.79,-18.28 -28.19,-34.03 -33.67,-44.9 -1.31,-2.66 -2.26,-5.92 -3.17,-10.06 -3.1,-14.37 -5.23,-39.39 -6.67,-71.49 -1.42,-32.05 -2.09,-71.02 -2.09,-112.63 0,-72.4 2.04,-152.76 5.73,-218.41 1.85,-32.83 4.11,-61.98 6.75,-84.67 1.32,-11.35 2.74,-21.08 4.26,-28.92 1.55,-7.86 3.1,-13.71 5.15,-17.87 3.19,-6.32 9.19,-13.9 17.49,-22.99 28.99,-31.61 86.18,-80.32 140.27,-122.91 27.04,-21.28 53.26,-40.99 74.75,-56.18 10.74,-7.6 20.3,-14.06 28.22,-19.05 7.95,-4.99 14.12,-8.48 18.69,-10.27 20.47,-7.95 54.58,-15.7 92.24,-15.72 30.58,0.01 63.5,5.15 93,19.89 16.67,8.36 38.31,24.7 62.07,45.27 35.59,30.86 75.68,71.2 108.46,107.86 16.39,18.33 30.95,35.73 42.22,50.59 11.27,14.93 19.23,27.07 22.64,35.9 1.35,3.64 2.22,8.56 3.02,15.23 2.33,19.85 3.26,54.53 3.27,97.51 0,78.16 -3.16,183.45 -7.23,273.44 -2.03,44.99 -4.29,86.16 -6.5,118.2 -1.11,16.03 -2.2,29.77 -3.25,40.6 -1.06,10.86 -2.04,18.68 -3.04,23.33 -1.7,7.39 -7,15.17 -14.96,24.37 -27.85,31.84 -90.37,78.76 -157.47,119.1 -33.54,20.13 -68.17,38.55 -100.11,52.42 -31.97,13.86 -61.16,23.22 -84.37,25.06 -4.46,0.36 -8.86,0.52 -13.21,0.52 -48.99,-0.02 -90.98,-21.1 -120.71,-41.98 -29.73,-20.9 -47.31,-41.72 -47.5,-41.93 l 3.82,-3.23 -3.48,3.59 3.48,-3.59 3.82,-3.22 0.73,0.84 c 3.79,4.29 22.16,24.32 50.4,43.14 28.25,18.84 66.28,36.4 109.44,36.38 4.09,0 8.24,-0.16 12.43,-0.48 24.25,-1.87 58.08,-13.36 94.79,-30.39 55.13,-25.52 117.06,-63.37 165.96,-99.01 24.45,-17.81 45.65,-35.09 61.07,-49.91 7.71,-7.4 13.97,-14.19 18.43,-20.03 4.47,-5.8 7.06,-10.76 7.67,-13.77 0.82,-3.73 1.83,-11.52 2.85,-22.17 7.27,-74.94 16.94,-294.97 16.94,-431.28 0,-28.54 -0.43,-53.41 -1.38,-72.47 -0.47,-9.52 -1.08,-17.59 -1.82,-23.88 -0.72,-6.25 -1.66,-10.85 -2.44,-12.83 -1.7,-4.52 -5.69,-11.49 -11.42,-19.83 -20.09,-29.35 -61.33,-76.37 -104.33,-119.25 -21.5,-21.45 -43.46,-41.9 -63.45,-58.68 -19.96,-16.76 -38.05,-29.86 -51.32,-36.48 -27.63,-13.82 -59.05,-18.84 -88.52,-18.83 -36.24,-0.02 -69.55,7.6 -88.62,15.04 -3.76,1.43 -11.08,5.56 -20.38,11.58 -32.78,21.13 -91.86,65.77 -144.91,109.76 -26.53,22 -51.59,43.86 -71.14,62.53 -9.76,9.33 -18.16,17.87 -24.63,25.18 -6.48,7.29 -11.04,13.46 -13.04,17.5 -1.25,2.44 -2.85,7.89 -4.27,15.31 -5.11,26.16 -9.3,77.29 -12.15,137.42 -2.85,60.16 -4.41,129.49 -4.41,192.67 0,47.42 0.88,91.4 2.74,125.39 0.92,17 2.1,31.5 3.51,42.63 0.71,5.55 1.48,10.27 2.28,13.97 0.8,3.7 1.69,6.43 2.35,7.72 4.47,9.04 16.71,24.89 32.28,42.82 23.39,27.01 54.42,59.31 79.58,84.81 12.58,12.76 23.7,23.82 31.66,31.69 7.97,7.88 12.77,12.54 12.78,12.55 l 0.34,0.36 -3.82,3.22"
         style="fill:#17282f;fill-opacity:1;fill-rule:nonzero;stroke:none"
         id="path74" />
      <path
         d="m 1854.81,3336.53 c 0,0 205.8,-187.74 353.83,-194.96 148.03,-7.23 148.03,-7.23 148.03,-7.23 0,0 -324.94,43.33 -426.04,263.57 0,0 -111.93,93.88 -75.82,-61.38"
         style="fill:#17282f;fill-opacity:1;fill-rule:nonzero;stroke:none"
         id="path76" />
      <path
         d="m 1854.81,3336.53 -3.37,-3.69 c 0.11,-0.1 51.69,-47.16 121.95,-95.21 70.33,-48 159.06,-97.24 235.01,-101.06 148.03,-7.22 148.03,-7.22 148.03,-7.22 2.68,-0.13 4.98,1.87 5.22,4.54 0.24,2.68 -1.66,5.05 -4.32,5.41 0,0 -1.2,0.16 -3.57,0.53 -17.76,2.73 -99.31,16.82 -187.92,55.8 -88.67,38.99 -184.09,102.8 -230.66,204.37 l -1.34,1.75 c -0.11,0.09 -8.64,7.25 -20.41,14.48 -11.83,7.2 -26.68,14.7 -40.77,14.81 -8.04,0.08 -16.27,-2.9 -21.75,-10.24 -5.47,-7.28 -8.26,-17.94 -8.27,-33.08 0,-13.42 2.23,-30.51 7.3,-52.32 0.23,-1 0.75,-1.87 1.5,-2.56 l 3.37,3.69 4.87,1.13 c -4.96,21.32 -7.05,37.75 -7.04,50.06 -0.02,13.95 2.71,22.44 6.24,27.04 3.54,4.56 7.81,6.19 13.78,6.28 10.34,0.1 24.48,-6.45 35.53,-13.33 5.55,-3.41 10.39,-6.84 13.83,-9.41 1.71,-1.28 3.08,-2.35 4.01,-3.09 0.93,-0.74 1.39,-1.13 1.39,-1.13 l 3.21,3.83 -4.54,-2.08 c 51.43,-111.92 159.15,-178.3 253.58,-216.92 94.5,-38.61 176.08,-49.48 176.34,-49.52 l 0.66,4.95 0.25,5 c 0,0 0,0 -148.04,7.22 -72.09,3.4 -160.27,51.65 -229.84,99.32 -34.82,23.82 -65.07,47.42 -86.59,65.07 -10.76,8.82 -19.34,16.15 -25.22,21.27 -2.95,2.56 -5.21,4.57 -6.74,5.93 -1.53,1.37 -2.31,2.07 -2.31,2.08 l -3.37,-3.7 4.87,1.13 -4.87,-1.13"
         style="fill:#17282f;fill-opacity:1;fill-rule:nonzero;stroke:none"
         id="path78" />
      <path
         d="m 1964.81,2963.86 15.93,-201.1 c 0.21,-2.75 2.62,-4.81 5.37,-4.59 2.76,0.22 4.81,2.63 4.59,5.38 l -15.92,201.1 c -0.22,2.75 -2.63,4.81 -5.38,4.59 -2.76,-0.22 -4.81,-2.63 -4.59,-5.38"
         style="fill:#17282f;fill-opacity:1;fill-rule:nonzero;stroke:none"
         id="path80" />
      <path
         d="m 1997.49,2724.12 c 0,0 -0.52,-0.78 -1.53,-2.21 -3.51,-5.02 -12.78,-17.72 -23.76,-28.97 -5.48,-5.62 -11.4,-10.86 -17.08,-14.58 -5.68,-3.75 -11.08,-5.81 -15.2,-5.77 -10.98,-0.09 -23.27,6.69 -32.54,13.89 -4.64,3.57 -8.54,7.17 -11.26,9.86 -1.36,1.35 -2.42,2.46 -3.14,3.23 l -0.8,0.88 -0.25,0.28 c -1.8,2.09 -4.96,2.31 -7.05,0.5 -2.08,-1.81 -2.31,-4.96 -0.5,-7.05 0.14,-0.16 6.78,-7.83 16.91,-15.62 10.14,-7.74 23.73,-15.89 38.63,-15.97 8.24,0.06 16.04,4.02 23.49,9.34 22.15,16.04 42.2,46.44 42.4,46.64 1.53,2.3 0.91,5.4 -1.39,6.94 -2.3,1.53 -5.4,0.91 -6.93,-1.39"
         style="fill:#17282f;fill-opacity:1;fill-rule:nonzero;stroke:none"
         id="path82" />
      <path
         d="m 1780.34,2653.05 c 0.13,-0.2 11.73,-19.37 31.06,-39.23 19.34,-19.78 46.47,-40.59 78.42,-42.81 6.09,-0.41 12.22,-0.59 18.31,-0.59 54.73,0.02 106.58,14.65 106.82,14.7 2.66,0.75 4.21,3.51 3.46,6.17 -0.75,2.66 -3.51,4.21 -6.17,3.46 0,0 -0.75,-0.21 -2.23,-0.6 -10.38,-2.73 -55.52,-13.74 -101.88,-13.73 -5.89,0 -11.8,0.18 -17.65,0.57 -27.78,1.76 -53.42,20.77 -71.91,39.81 -9.25,9.49 -16.7,18.9 -21.82,25.91 -2.56,3.5 -4.54,6.41 -5.87,8.43 -0.66,1 -1.17,1.79 -1.5,2.32 l -0.48,0.77 c -1.43,2.36 -4.51,3.12 -6.87,1.69 -2.36,-1.43 -3.12,-4.5 -1.69,-6.87"
         style="fill:#17282f;fill-opacity:1;fill-rule:nonzero;stroke:none"
         id="path84" />
      <path
         d="m 1993.68,2996.12 c 0,0 69.69,51.76 97.57,69.68 27.87,17.92 117.47,-15.93 117.47,-15.93 0,0 -67.7,37.83 -103.54,43.8 -35.84,5.98 -109.5,-45.79 -115.48,-69.68 -5.97,-23.89 -23.89,-17.92 3.98,-27.87"
         style="fill:#17282f;fill-opacity:1;fill-rule:nonzero;stroke:none"
         id="path86" />
      <path
         d="m 1993.68,2996.12 2.99,-4.02 c 0.01,0.01 4.34,3.23 11.3,8.36 20.86,15.37 65.35,47.88 85.98,61.14 4.43,2.91 12.16,4.47 21.52,4.44 17.71,0.02 40.8,-5.15 59.22,-10.4 9.23,-2.61 17.31,-5.23 23.08,-7.2 2.89,-0.98 5.19,-1.79 6.77,-2.36 1.58,-0.57 2.41,-0.89 2.41,-0.89 2.46,-0.92 5.19,0.19 6.3,2.57 1.11,2.38 0.2,5.2 -2.09,6.48 -0.06,0.03 -17.06,9.53 -38.62,19.81 -21.62,10.27 -47.55,21.35 -66.54,24.56 -2.24,0.37 -4.55,0.54 -6.93,0.54 -10.41,-0.02 -22.06,-3.21 -34.02,-8.17 -17.91,-7.46 -36.46,-19.01 -51.28,-30.97 -7.41,-5.99 -13.88,-12.07 -18.88,-17.9 -4.99,-5.86 -8.6,-11.33 -10.04,-16.91 -1.6,-6.31 -3.95,-9.99 -6.01,-12.65 -1.04,-1.34 -2.01,-2.39 -2.95,-3.53 l -1.41,-2.01 c -0.45,-0.82 -0.96,-1.97 -0.97,-3.52 -0.04,-2.25 1.34,-4.23 2.48,-5.14 1.75,-1.47 3.48,-2.19 5.98,-3.24 2.5,-1 5.73,-2.17 10.03,-3.7 1.58,-0.56 3.32,-0.3 4.67,0.69 l -2.99,4.02 1.68,4.71 c -5.7,2.03 -9.48,3.41 -11.45,4.33 l -1.09,0.56 -0.28,0.18 -1.22,-1.59 1.67,1.04 -0.45,0.55 -1.22,-1.59 1.67,1.04 -3,-1.86 h 3.52 l -0.52,1.86 -3,-1.86 h 3.52 -2.73 l 2.43,-1.35 0.3,1.35 h -2.73 l 2.43,-1.35 0.06,0.08 c 0.43,0.69 2.65,2.91 4.93,6.19 2.32,3.34 4.76,7.99 6.35,14.36 0.88,3.92 5.59,10.93 12.9,18.19 10.94,11.02 27.43,23.25 44.44,32.57 16.98,9.35 34.67,15.69 47.18,15.62 1.9,0 3.67,-0.14 5.29,-0.41 16.85,-2.76 42.69,-13.59 63.88,-23.72 10.62,-5.06 20.15,-9.95 27.01,-13.57 6.86,-3.61 11.02,-5.94 11.03,-5.94 l 2.44,4.36 1.77,4.68 c -0.09,0.03 -14.21,5.36 -33.07,10.71 -18.89,5.34 -42.43,10.75 -61.95,10.78 -10.34,-0.04 -19.69,-1.44 -26.93,-6.03 -28.21,-18.14 -97.78,-69.84 -97.84,-69.88 l 2.98,-4.01 1.68,4.71 -1.68,-4.71"
         style="fill:#17282f;fill-opacity:1;fill-rule:nonzero;stroke:none"
         id="path88" />
      <path
         d="m 1850.32,2986.58 c 0,0 -9.95,27.87 -43.8,29.86 -33.85,2 -183.18,-37.83 -157.29,-37.83 25.88,0 133.4,1.99 161.28,1.99 27.87,0 39.81,5.98 39.81,5.98"
         style="fill:#17282f;fill-opacity:1;fill-rule:nonzero;stroke:none"
         id="path90" />
      <path
         d="m 1850.32,2986.58 4.71,1.68 c -0.15,0.4 -2.87,7.95 -10.25,15.91 -7.35,7.95 -19.66,16.22 -37.97,17.26 -0.94,0.06 -1.93,0.09 -2.97,0.09 -9.5,-0.02 -23.83,-2.07 -40.42,-5.17 -24.83,-4.66 -54.43,-11.74 -77.93,-18.16 -11.76,-3.21 -21.96,-6.26 -29.35,-8.78 -3.71,-1.27 -6.69,-2.4 -8.95,-3.43 -1.14,-0.53 -2.08,-1.01 -3.01,-1.64 l -1.51,-1.32 c -0.51,-0.62 -1.38,-1.66 -1.44,-3.7 -0.06,-1.97 1.3,-3.77 2.25,-4.36 1.47,-0.98 2.33,-1.03 3.18,-1.19 0.84,-0.12 1.64,-0.16 2.57,-0.16 25.99,0 133.51,1.99 161.28,1.99 28.58,0 41.35,6.15 42.05,6.5 2.27,1.14 3.33,3.77 2.47,6.16 l -4.71,-1.68 -2.23,4.47 -0.01,-0.01 c -0.75,-0.34 -12.11,-5.43 -37.57,-5.44 -27.99,0 -135.51,-1.99 -161.28,-1.99 l -0.93,0.03 -0.22,0.02 -0.55,-2.94 1.55,2.52 -1,0.42 -0.55,-2.94 1.55,2.52 -2.33,-3.79 3.67,2.5 -1.34,1.29 -2.33,-3.79 3.67,2.5 -3.87,-2.63 h 4.68 c 0.01,0.91 -0.33,1.95 -0.81,2.63 l -3.87,-2.63 h 4.68 -4.49 l 3.81,-2.4 c 0.27,0.43 0.67,1.22 0.68,2.4 h -4.49 l 3.81,-2.4 -2.98,1.87 2.39,-2.59 0.59,0.72 -2.98,1.87 2.39,-2.59 -0.76,0.83 0.64,-0.93 0.12,0.1 -0.76,0.83 0.64,-0.93 c 0.12,0.09 0.99,0.58 2.24,1.11 4.77,2.08 15.03,5.41 27.85,9.05 19.28,5.49 44.62,11.83 68,16.78 23.32,4.96 44.97,8.5 55.91,8.48 l 2.39,-0.07 c 15.55,-0.95 25.13,-7.61 31.23,-14.09 3.02,-3.25 5.1,-6.46 6.4,-8.82 0.66,-1.18 1.11,-2.14 1.4,-2.78 l 0.3,-0.71 0.05,-0.16 h 0.01 l 4.7,1.69 -2.23,4.47 2.23,-4.47"
         style="fill:#17282f;fill-opacity:1;fill-rule:nonzero;stroke:none"
         id="path92" />
      <path
         d="m 2192.79,2872.67 c 0,0 -51.77,-11.95 -91.59,-9.96 -39.82,2 -75.66,13.94 -59.73,-3.98 15.93,-17.92 47.79,-33.85 97.56,-23.89 49.78,9.95 67.7,19.91 53.76,37.83"
         style="fill:#17282f;fill-opacity:1;fill-rule:nonzero;stroke:none"
         id="path94" />
      <path
         d="m 1832.4,2872.67 c 0,0 -51.76,-11.95 -91.58,-9.96 -39.82,2 -75.66,13.94 -59.73,-3.98 15.92,-17.92 47.78,-33.85 97.56,-23.89 49.77,9.95 67.69,19.91 53.75,37.83"
         style="fill:#17282f;fill-opacity:1;fill-rule:nonzero;stroke:none"
         id="path96" />
      <path
         d="m 1169.83,1725.09 c 0,0 59.93,329.63 87.17,362.33 27.25,32.69 324.2,275.15 340.55,291.5 16.34,16.34 133.49,193.42 138.93,171.63 5.45,-21.8 -13.62,-117.14 -49.03,-168.91 -35.42,-51.76 -84.46,-114.42 -84.46,-114.42 0,0 182.53,-46.31 193.43,-57.21 10.9,-10.9 72.93,-146.55 76.28,-163.46 5.77,-29.17 -2.58,-60.49 -27.24,-62.66 -22.38,-1.97 -168.91,73.56 -168.91,73.56 L 1559.4,2041.1 c 0,0 -84.45,-103.52 -141.66,-122.59 -57.21,-19.07 -79.01,-21.79 -79.01,-21.79 l 2.73,-201.6 -171.63,29.97"
         style="fill:#ffffff;fill-opacity:1;fill-rule:nonzero;stroke:none"
         id="path98" />
      <path
         d="m 1169.83,1725.09 4.92,-0.9 c 0,0.02 0.93,5.14 2.62,14.21 5.92,31.74 21.09,111.58 37.74,186.99 8.33,37.7 17.03,74.3 25.11,103.16 4.03,14.42 7.92,26.91 11.48,36.57 3.51,9.62 6.95,16.56 9.15,19.09 3,3.63 10.62,11.04 21.3,20.75 37.5,34.13 113.64,98.14 182.1,155.33 34.24,28.6 66.58,55.51 91.26,76.17 12.34,10.33 22.76,19.1 30.56,25.74 7.84,6.68 12.9,11.09 15.01,13.18 2.35,2.38 5.63,6.52 10.08,12.4 15.42,20.44 43.57,60.79 69.7,96.06 13.05,17.62 25.6,33.96 35.68,45.77 5.03,5.9 9.47,10.68 12.91,13.83 1.7,1.57 3.18,2.73 4.2,3.38 l 1.09,0.59 0.08,0.03 -0.36,1.62 v -1.66 l 0.36,0.04 -0.36,1.62 v -1.66 3.14 l -2.08,-2.3 2.08,-0.84 v 3.14 l -2.08,-2.3 1.5,1.66 -2.25,-0.56 0.75,-1.1 1.5,1.66 -2.25,-0.56 c 0.46,-1.81 0.78,-4.92 0.77,-8.86 0.03,-15.54 -4.53,-43.62 -13.01,-73.12 -8.44,-29.52 -20.85,-60.68 -36.07,-82.89 -17.63,-25.78 -38.72,-54.34 -55.38,-76.44 -8.33,-11.05 -15.55,-20.49 -20.69,-27.16 -5.15,-6.67 -8.19,-10.56 -8.2,-10.57 -1.04,-1.33 -1.34,-3.1 -0.79,-4.7 0.54,-1.59 1.86,-2.81 3.5,-3.23 0.03,0 11.39,-2.89 28.66,-7.39 25.9,-6.77 65.01,-17.17 98.62,-26.88 16.8,-4.86 32.23,-9.55 43.87,-13.5 5.82,-1.97 10.71,-3.76 14.27,-5.27 1.78,-0.74 3.23,-1.42 4.25,-1.97 l 1.17,-0.68 0.27,-0.2 h 0.01 c 0.22,-0.2 1.03,-1.22 1.98,-2.67 3.68,-5.55 10.09,-17.55 17.43,-32.35 11.06,-22.23 24.44,-51 35.32,-75.65 5.44,-12.32 10.25,-23.62 13.84,-32.53 3.58,-8.82 5.97,-15.63 6.34,-17.7 1.1,-5.56 1.66,-11.2 1.66,-16.65 0.02,-10.82 -2.24,-20.85 -6.42,-27.96 -4.27,-7.12 -9.88,-11.32 -18.01,-12.09 l -0.49,-0.02 c -2.02,-0.05 -6.87,0.96 -12.94,2.92 -21.51,6.84 -59.94,24.44 -92.69,40.24 -16.39,7.91 -31.41,15.38 -42.33,20.87 -10.92,5.5 -17.71,8.99 -17.73,9 -0.91,0.47 -1.97,0.65 -2.98,0.51 l -117.15,-16.35 c -1.25,-0.17 -2.39,-0.81 -3.18,-1.79 -0.01,0 -1.29,-1.57 -3.69,-4.42 -8.4,-9.95 -30.28,-35.2 -56.18,-59.93 -25.82,-24.74 -55.99,-48.91 -79.5,-56.65 -28.49,-9.5 -48.11,-14.91 -60.56,-17.94 -6.22,-1.51 -10.65,-2.43 -13.49,-2.97 -1.43,-0.26 -2.45,-0.44 -3.11,-0.54 l -0.71,-0.11 -0.18,-0.02 c -2.53,-0.32 -4.41,-2.48 -4.38,-5.03 l 2.65,-195.57 -165.69,28.93 -0.86,-4.92 4.92,-0.9 -4.92,0.9 -0.86,-4.93 171.63,-29.97 c 1.46,-0.26 2.97,0.16 4.1,1.12 1.13,0.96 1.78,2.39 1.76,3.87 l -2.73,201.6 -5,-0.06 0.62,-4.96 c 0.45,0.05 22.53,2.86 79.97,22.01 15.22,5.09 31.53,15.42 47.76,27.99 48.54,37.7 96.06,96.05 96.2,96.18 l -3.88,3.16 0.69,-4.95 117.15,16.35 -0.69,4.95 -2.29,-4.45 c 0.03,-0.01 35.75,-18.42 74.69,-36.87 19.47,-9.22 39.74,-18.45 56.81,-25.4 8.54,-3.49 16.28,-6.4 22.8,-8.48 6.56,-2.06 11.69,-3.35 15.97,-3.39 l 1.36,0.05 c 11.57,0.96 20.46,7.79 25.77,17.01 5.38,9.23 7.78,20.85 7.79,33.01 0,6.13 -0.62,12.4 -1.85,18.59 -0.58,2.82 -1.94,6.75 -4.02,12.24 -7.24,18.98 -22.98,54.6 -38.17,86.83 -7.59,16.11 -15.04,31.35 -21.21,43.22 -3.09,5.93 -5.86,11.03 -8.21,15 -2.4,4.03 -4.11,6.75 -6.04,8.74 -1.57,1.51 -3.16,2.31 -5.32,3.4 -7.92,3.81 -23.34,8.93 -42.58,14.78 -57.56,17.44 -147.79,40.33 -147.83,40.34 l -1.23,-4.85 3.94,-3.08 c 0.03,0.04 49.09,62.72 84.64,114.68 16.19,23.69 28.76,55.57 37.44,85.79 8.65,30.26 13.37,58.64 13.39,75.87 -0.01,4.44 -0.29,8.15 -1.07,11.28 -0.31,1.26 -0.93,2.71 -2.24,3.9 -1.3,1.21 -3.17,1.78 -4.63,1.74 -3.01,-0.1 -4.85,-1.3 -6.95,-2.66 -3.8,-2.64 -8.11,-6.89 -13.24,-12.55 -17.82,-19.71 -44.73,-56.52 -68.94,-90.14 -12.08,-16.8 -23.47,-32.77 -32.59,-45.3 -4.57,-6.27 -8.57,-11.68 -11.79,-15.87 -3.2,-4.18 -5.73,-7.23 -6.94,-8.43 -1.69,-1.7 -8.23,-7.4 -17.91,-15.6 -34.03,-28.86 -108.67,-90.63 -177.77,-148.74 -34.55,-29.07 -67.72,-57.22 -93.77,-79.92 -13.03,-11.35 -24.28,-21.34 -33.04,-29.41 -8.79,-8.11 -15.02,-14.17 -18.36,-18.16 -2.19,-2.66 -4.12,-6.14 -6.17,-10.57 -7.56,-16.5 -16.25,-46.47 -25.32,-82.66 -27.13,-108.39 -56.75,-271.36 -56.76,-271.41 -0.24,-1.31 0.05,-2.66 0.82,-3.75 0.76,-1.1 1.92,-1.84 3.24,-2.07 l 0.86,4.93"
         style="fill:#17282f;fill-opacity:1;fill-rule:nonzero;stroke:none"
         id="path100" />
      <path
         d="m 1611.13,2200.04 c 0.03,0 9.93,-1.33 24.98,-3.45 22.57,-3.18 56.66,-8.13 85.96,-13 14.65,-2.44 28.11,-4.86 38.27,-7.01 5.08,-1.08 9.33,-2.09 12.43,-2.97 1.54,-0.44 2.8,-0.86 3.65,-1.19 l 0.95,-0.41 0.17,-0.09 0.56,0.91 -0.67,-0.83 0.11,-0.08 0.56,0.91 -0.67,-0.83 c 0.09,-0.06 0.94,-0.89 1.97,-2.1 4.01,-4.63 11.76,-15.03 20.9,-27.76 13.75,-19.14 30.83,-43.76 44.45,-63.57 6.81,-9.9 12.77,-18.61 17.02,-24.84 4.25,-6.23 6.78,-9.98 6.79,-9.99 1.55,-2.28 4.66,-2.88 6.94,-1.33 2.29,1.55 2.89,4.66 1.34,6.95 -0.01,0.01 -20.63,30.41 -42.47,61.81 -10.93,15.7 -22.15,31.65 -31.29,44.19 -4.56,6.27 -8.6,11.69 -11.84,15.84 -1.63,2.07 -3.05,3.83 -4.27,5.24 -1.24,1.42 -2.17,2.45 -3.29,3.37 -1.65,1.24 -3.05,1.72 -5,2.43 -7.04,2.39 -20.49,5.15 -37.31,8.17 -50.25,8.99 -128.87,19.54 -128.91,19.54 -2.73,0.37 -5.25,-1.55 -5.62,-4.29 -0.36,-2.73 1.56,-5.25 4.29,-5.62"
         style="fill:#17282f;fill-opacity:1;fill-rule:nonzero;stroke:none"
         id="path102" />
      <path
         d="m 1621.54,2127.67 c 0.03,0 9.85,-2.25 24.82,-5.79 22.45,-5.31 56.42,-13.5 85.8,-21.26 14.69,-3.88 28.24,-7.65 38.57,-10.88 5.17,-1.61 9.53,-3.09 12.77,-4.35 1.62,-0.63 2.96,-1.2 3.93,-1.67 0.96,-0.46 1.56,-0.88 1.56,-0.88 2.41,-1.99 8.58,-8.36 15.95,-16.37 11.13,-12.08 25.44,-28.23 36.95,-41.34 11.51,-13.11 20.21,-23.16 20.23,-23.19 1.81,-2.09 4.96,-2.32 7.05,-0.51 2.09,1.81 2.32,4.96 0.51,7.05 -0.01,0.01 -15.53,17.96 -32.53,37.14 -8.5,9.6 -17.36,19.49 -24.86,27.63 -7.54,8.17 -13.49,14.41 -16.9,17.27 -1.48,1.19 -2.99,1.93 -4.99,2.84 -7.34,3.24 -21.04,7.43 -37.95,12.13 -50.59,14.04 -128.64,31.92 -128.68,31.93 -2.69,0.62 -5.37,-1.06 -5.99,-3.76 -0.61,-2.69 1.07,-5.37 3.76,-5.99"
         style="fill:#17282f;fill-opacity:1;fill-rule:nonzero;stroke:none"
         id="path104" />
      <path
         d="m 1869.2,743.082 c 0,0 -213.99,39.949 -222.55,42.797 -8.56,2.851 -159.77,48.5 -179.75,57.07 -19.97,8.551 -262.49,51.352 -273.9,34.242 -11.42,-17.121 -22.83,-116.992 -25.68,-125.55 -2.86,-8.559 -25.68,-48.512 -19.97,-71.332 5.7,-22.817 0,-62.758 0,-62.758 0,0 -2.86,-134.102 31.38,-136.961 34.24,-2.86 65.63,125.539 65.63,125.539 0,0 48.5,-28.527 148.36,-34.238 99.86,-5.7 196.87,42.8 196.87,42.8 l 265.34,-62.769 14.27,191.16"
         style="fill:#ffffff;fill-opacity:1;fill-rule:nonzero;stroke:none"
         id="path106" />
      <path
         d="m 1869.2,743.082 0.92,4.918 c -0.03,0.012 -13.37,2.5 -33.57,6.281 -30.29,5.688 -75.92,14.278 -114.78,21.711 -19.43,3.719 -37.16,7.149 -50.43,9.778 -6.63,1.32 -12.15,2.429 -16.18,3.281 -2.02,0.429 -3.66,0.789 -4.88,1.058 -1.18,0.27 -2.05,0.5 -2.05,0.512 -4.51,1.5 -44.29,13.57 -85.69,26.43 -20.68,6.41 -41.71,13.008 -58.79,18.531 -17.04,5.488 -30.35,10.008 -34.88,11.957 -2.79,1.18 -7.27,2.383 -13.84,3.973 -22.78,5.429 -68.72,14.058 -116.01,21.379 -47.31,7.3 -95.7,13.281 -123.77,13.3 -6.31,0 -11.61,-0.3 -15.88,-1.019 -2.14,-0.371 -4.02,-0.84 -5.76,-1.563 -1.71,-0.738 -3.43,-1.699 -4.77,-3.648 v 0 c -1.9,-2.902 -3.36,-6.59 -4.86,-11.199 -5.13,-16.012 -9.82,-43.02 -13.66,-67.25 -1.9,-12.09 -3.58,-23.442 -4.93,-32.211 -0.67,-4.379 -1.27,-8.11 -1.76,-10.942 -0.48,-2.777 -0.94,-4.867 -1.05,-5.14 v 0 c -0.42,-1.309 -2.06,-4.867 -4.13,-9.309 -3.13,-6.738 -7.33,-15.879 -10.79,-25.648 -3.45,-9.793 -6.2,-20.18 -6.23,-29.84 0.01,-3.192 0.32,-6.32 1.06,-9.32 1.75,-6.922 2.4,-16.141 2.39,-25.2 0,-9.082 -0.62,-18.031 -1.24,-24.691 -0.32,-3.32 -0.63,-6.082 -0.86,-7.992 -0.23,-1.918 -0.38,-2.957 -0.38,-2.969 l -0.05,-0.598 c 0,-0.031 -0.06,-2.8 -0.06,-7.531 0,-14.23 0.51,-46.141 4.77,-75.152 2.14,-14.508 5.17,-28.289 9.78,-39.047 2.33,-5.383 5.04,-10.043 8.5,-13.672 3.43,-3.621 7.87,-6.23 12.98,-6.641 l 1.54,-0.058 c 5.84,0.012 11.09,2.679 15.7,6.57 8.07,6.859 15.01,17.809 21.41,30.5 19.01,38 32.18,92.149 32.24,92.32 l -4.85,1.188 -2.54,-4.309 c 0.58,-0.34 49.89,-29.168 150.62,-34.922 5.64,-0.316 11.27,-0.468 16.88,-0.468 95.24,0.062 182.15,43.652 182.51,43.781 l -2.24,4.48 -1.15,-4.871 265.34,-62.761 c 1.43,-0.34 2.93,-0.039 4.11,0.832 1.18,0.859 1.92,2.199 2.03,3.66 l 14.27,191.16 c 0.19,2.539 -1.56,4.82 -4.07,5.289 l -0.92,-4.918 -4.98,0.379 -13.84,-185.32 -259.64,61.41 c -1.14,0.269 -2.33,0.129 -3.38,-0.391 l -0.94,-0.461 c -9.49,-4.617 -90.64,-42.328 -177.1,-42.269 -5.43,0 -10.87,0.14 -16.31,0.449 -49.51,2.832 -86.17,11.312 -110.4,19.031 -12.11,3.871 -21.11,7.539 -27.05,10.231 -2.97,1.339 -5.17,2.441 -6.62,3.191 l -1.59,0.848 -0.46,0.261 c -1.37,0.809 -3.02,0.911 -4.48,0.301 -1.46,-0.621 -2.53,-1.883 -2.91,-3.422 0,-0.011 -0.47,-1.91 -1.36,-5.308 -3.13,-11.903 -11.49,-41.801 -22.62,-68.461 -5.55,-13.309 -11.83,-25.821 -18.26,-34.672 -3.2,-4.418 -6.44,-7.91 -9.45,-10.149 -3.02,-2.25 -5.65,-3.191 -7.95,-3.179 l -0.71,0.031 c -2.23,0.199 -4.28,1.207 -6.58,3.578 -4.01,4.11 -7.82,12.36 -10.65,22.692 -8.66,31.089 -9.66,79.988 -9.63,98.269 0,4.649 0.06,7.309 0.05,7.32 l -4.99,0.11 4.95,-0.711 c 0.01,0.129 2.58,18.019 2.58,37.062 -0.01,9.528 -0.62,19.328 -2.68,27.618 -0.51,2.039 -0.77,4.359 -0.77,6.902 -0.04,10.289 4.3,23.859 9.12,35.539 2.4,5.859 4.9,11.281 6.97,15.738 2.08,4.512 3.69,7.86 4.54,10.36 h 0.01 c 0.57,1.812 0.99,4.191 1.63,7.89 2.16,12.711 5.7,38.481 9.96,62.973 2.13,12.226 4.43,24.129 6.8,33.789 1.17,4.82 2.37,9.09 3.54,12.5 1.15,3.398 2.34,5.988 3.16,7.199 v 0 l -1.45,0.969 1.23,-1.238 0.22,0.269 -1.45,0.969 1.23,-1.238 -0.35,0.339 0.29,-0.39 0.06,0.051 -0.35,0.339 0.29,-0.39 c 0.1,0.16 2.22,1.031 5.45,1.422 3.26,0.449 7.67,0.679 12.92,0.679 30.66,0.02 89.45,-7.722 142.27,-16.371 26.44,-4.328 51.45,-8.879 70.85,-12.781 9.7,-1.949 17.99,-3.75 24.34,-5.258 6.29,-1.492 10.84,-2.812 12.22,-3.429 5.46,-2.332 18.54,-6.731 35.74,-12.293 25.73,-8.309 60.24,-19.008 89.14,-27.911 28.86,-8.878 52.26,-16.019 55.26,-17.019 1.05,-0.328 2.29,-0.609 4.42,-1.09 30.82,-6.789 218.74,-41.859 218.79,-41.867 l 0.92,4.91 -4.98,0.379 4.98,-0.379"
         style="fill:#17282f;fill-opacity:1;fill-rule:nonzero;stroke:none"
         id="path108" />
      <path
         d="m 1129.09,1783.29 287.24,-52.48 -11.05,-179.52 c 0,0 63.53,-30.38 82.86,-207.15 19.33,-176.76 74.57,-587.3 60.76,-617.679 -13.81,-30.379 -99.43,-162.961 -298.28,-171.242 -198.87,-8.289 -306.581,174.011 -325.909,232 -19.34,58 82.859,438.161 88.379,471.301 5.53,33.15 33.14,259.62 58,298.28 24.86,38.68 55.24,63.53 55.24,63.53 l 2.76,162.96"
         style="fill:#6ccb94;fill-opacity:1;fill-rule:nonzero;stroke:none"
         id="path110" />
      <path
         d="m 1129.09,1783.29 -0.9,-4.92 282.88,-51.68 -10.78,-175.1 c -0.13,-2.03 1,-3.93 2.83,-4.81 l 0.85,1.76 -0.88,-1.75 0.03,-0.01 0.85,1.76 -0.88,-1.75 c 0.17,-0.1 15.32,-7.65 32.95,-36.78 17.62,-29.14 37.67,-79.95 47.13,-166.42 8.62,-78.81 24.36,-203.94 37.94,-321.16 13.58,-117.16 25,-226.68 24.98,-273.27 0,-5.668 -0.17,-10.398 -0.5,-13.969 -0.31,-3.543 -0.92,-6.062 -1.24,-6.66 -6.49,-14.351 -31.04,-54.699 -78.3,-92.051 -47.3,-37.421 -117.31,-72.148 -215.64,-76.261 -4.34,-0.18 -8.63,-0.27 -12.88,-0.27 -93.65,0.012 -165.83,43.09 -217.26,93.442 -51.372,50.269 -81.723,108.011 -90.817,135.418 v 0 c -1.379,4.05 -2.195,11.101 -2.176,20.183 -0.015,24.137 5.297,62.656 13.399,106.938 12.144,66.472 30.519,146.16 46.324,212.04 7.902,32.95 15.17,62.44 20.69,85.14 5.54,22.75 9.3,38.46 10.33,44.59 2.8,16.83 11.06,81.56 21.76,147.09 5.34,32.74 11.28,65.63 17.41,92.65 3.07,13.51 6.18,25.54 9.27,35.3 3.06,9.74 6.18,17.26 8.84,21.36 12.19,18.97 25.79,34.62 36.32,45.49 5.27,5.44 9.77,9.68 12.93,12.55 1.59,1.43 2.84,2.53 3.68,3.25 l 1.27,1.07 c 1.13,0.93 1.8,2.32 1.83,3.79 l 2.76,162.95 -5,0.09 -0.9,-4.92 0.9,4.92 -5,0.08 -2.76,-162.96 5,-0.08 -3.17,3.87 c -0.23,-0.2 -30.93,-25.3 -56.28,-64.69 -3.55,-5.57 -6.73,-13.58 -9.96,-23.76 -11.19,-35.47 -22.09,-97.15 -30.91,-153.86 -8.8,-56.63 -15.47,-108.29 -17.85,-122.54 -0.57,-3.45 -2.47,-11.82 -5.29,-23.61 -9.878,-41.39 -31.261,-126.14 -50.167,-211.41 -18.902,-85.361 -35.383,-170.9 -35.426,-215.338 v 0 c 0.02,-9.66 0.731,-17.402 2.688,-23.351 v 0 c 9.808,-29.309 40.613,-87.7 93.305,-139.391 52.63,-51.609 127.41,-96.309 224.26,-96.301 4.39,0 8.82,0.09 13.3,0.281 100.52,4.168 172.75,39.86 221.43,78.399 48.71,38.601 73.88,79.73 81.2,95.762 1.18,2.711 1.67,5.769 2.08,9.859 0.38,4.059 0.55,9.031 0.55,14.91 -0.01,47.832 -11.46,157.07 -25.05,274.42 -13.59,117.28 -29.32,242.43 -37.93,321.1 -9.73,88.94 -30.61,141.47 -49.39,171.94 -18.77,30.48 -35.47,38.8 -36.28,39.18 l -2.16,-4.51 4.99,-0.31 11.05,179.52 c 0.16,2.53 -1.6,4.77 -4.09,5.23 l -287.24,52.48 c -1.44,0.26 -2.94,-0.13 -4.07,-1.05 -1.13,-0.93 -1.81,-2.32 -1.83,-3.79 l 5,-0.08"
         style="fill:#17282f;fill-opacity:1;fill-rule:nonzero;stroke:none"
         id="path112" />
      <path
         d="m 1307.01,1571.47 c 16.48,-1.94 32.86,-3.09 48.56,-3.09 2.76,0 5,2.24 5,5 0,2.76 -2.24,5 -5,5 -15.22,0 -31.22,1.11 -47.39,3.02 -2.74,0.32 -5.22,-1.64 -5.55,-4.38 -0.32,-2.74 1.64,-5.23 4.38,-5.55"
         style="fill:#17282f;fill-opacity:1;fill-rule:nonzero;stroke:none"
         id="path114" />
      <path
         d="m 1124.63,1615.63 c 0.13,-0.04 51.58,-18.67 114.75,-32.53 2.7,-0.59 5.37,1.12 5.96,3.82 0.59,2.69 -1.12,5.36 -3.81,5.95 -31.23,6.85 -59.64,14.9 -80.22,21.23 -10.3,3.17 -18.63,5.91 -24.38,7.85 -5.76,1.94 -8.89,3.08 -8.9,3.08 -2.6,0.94 -5.46,-0.4 -6.4,-3 -0.94,-2.6 0.4,-5.46 3,-6.4"
         style="fill:#17282f;fill-opacity:1;fill-rule:nonzero;stroke:none"
         id="path116" />
      <path
         d="M 2708.03,1693.19 2679.5,957.07 c 0,0 -31.38,-2.851 -42.79,-17.121 -11.42,-14.269 -19.98,-31.39 -19.98,-31.39 0,0 -288.17,-11.399 -425.12,-51.348 -136.95,-39.949 -228.25,-88.449 -228.25,-88.449 l -125.55,2.847 -25.67,-330.968 168.34,-5.7 c 0,0 82.74,-48.511 459.36,-82.742 376.62,-34.238 550.66,-42.801 590.6,2.852 39.94,45.648 57.06,116.98 62.78,154.07 5.7,37.09 74.17,265.348 74.17,596.319 0,330.96 -310.99,810.3 -379.47,918.72 -68.47,108.42 -139.8,99.86 -188.31,88.45"
         style="fill:#6ccb94;fill-opacity:1;fill-rule:nonzero;stroke:none"
         id="path118" />
      <path
         d="m 2703.03,1693.38 -28.52,-736.118 4.99,-0.192 -0.45,4.981 c -0.18,-0.02 -8.25,-0.75 -17.97,-3.36 -9.69,-2.691 -21.19,-6.941 -28.28,-15.621 -11.84,-14.82 -20.45,-32.109 -20.54,-32.269 l 4.47,-2.242 -0.2,5 c -0.05,0 -72.15,-2.86 -161.44,-10.707 -89.32,-7.883 -195.69,-20.68 -264.88,-40.84 -137.42,-40.09 -228.99,-88.731 -229.2,-88.84 l 2.35,-4.41 0.11,5 -125.54,2.847 c -2.66,0.063 -4.9,-1.968 -5.1,-4.609 l -25.68,-330.969 c -0.1,-1.351 0.36,-2.711 1.26,-3.722 0.9,-1.008 2.2,-1.618 3.56,-1.661 l 168.34,-5.707 0.17,5 -2.53,-4.312 c 1.21,-0.649 84.44,-49.109 461.43,-83.41 195.04,-17.727 335.78,-28.59 432.03,-28.59 44.84,0 80.03,2.34 106.74,7.551 26.68,5.23 45.14,13.199 56.05,25.57 41.08,47.109 58.1,119.012 63.96,156.609 1.32,8.723 6.7,30.153 13.93,61.93 21.7,95.543 60.31,286.41 60.3,535.151 -0.06,167 -78.14,369.93 -164.57,545.03 -86.45,175.04 -181.44,322.17 -215.67,376.36 -24.54,38.86 -49.68,63.23 -74.31,77.84 -24.63,14.63 -48.68,19.38 -70.5,19.36 -18.02,0 -34.55,-3.19 -48.87,-6.56 -2.69,-0.63 -4.36,-3.32 -3.73,-6.01 0.64,-2.69 3.33,-4.35 6.02,-3.72 14.02,3.3 29.74,6.29 46.58,6.29 20.4,-0.01 42.4,-4.33 65.4,-17.96 22.98,-13.64 47.03,-36.71 70.95,-74.58 34.25,-54.23 129,-200.98 215.16,-375.45 86.19,-174.41 163.61,-376.64 163.54,-540.6 0,-165.139 -17.08,-304.659 -34.87,-407.51 -8.9,-51.43 -17.97,-93.688 -25.18,-125.418 -7.22,-31.801 -12.54,-52.801 -14.07,-62.633 -5.56,-36.578 -22.78,-107.34 -61.59,-151.539 -8.35,-9.641 -24.74,-17.379 -50.44,-22.348 -25.66,-5.012 -60.35,-7.371 -104.83,-7.363 -95.53,-0.008 -236.17,10.82 -431.12,28.543 -188.13,17.109 -302.75,37.769 -370.19,54.098 -33.72,8.16 -55.65,15.242 -69.07,20.242 -6.71,2.5 -11.29,4.48 -14.16,5.808 -1.43,0.672 -2.44,1.172 -3.06,1.5 l -0.67,0.36 -0.14,0.07 -2.36,0.691 -163.11,5.52 24.9,321.039 120.81,-2.738 2.46,0.578 c 0.01,0 1.38,0.73 4.11,2.121 19.15,9.73 103.77,51.121 223.2,85.949 67.76,19.781 173.96,32.66 262.96,40.469 44.51,3.922 84.77,6.59 113.88,8.281 14.56,0.852 26.34,1.449 34.47,1.84 8.13,0.391 12.6,0.57 12.61,0.57 1.82,0.071 3.46,1.129 4.27,2.762 0,0 0.5,0.988 1.45,2.77 2.86,5.328 9.73,17.449 17.96,27.73 4.32,5.59 14.23,9.898 23.07,12.199 4.41,1.188 8.53,1.961 11.52,2.43 1.49,0.238 2.7,0.391 3.53,0.488 l 1.23,0.141 c 2.49,0.23 4.44,2.281 4.54,4.781 L 2713.03,1693 c 0.1,2.76 -2.05,5.08 -4.81,5.19 -2.76,0.1 -5.08,-2.05 -5.19,-4.81"
         style="fill:#17282f;fill-opacity:1;fill-rule:nonzero;stroke:none"
         id="path120" />
      <path
         d="m 2853.19,1012.64 -154.91,-44.921 150.11,139.761 c 2.02,1.88 2.13,5.05 0.25,7.07 -1.88,2.02 -5.04,2.13 -7.06,0.25 L 2676.1,960.73 c -1.69,-1.582 -2.08,-4.121 -0.94,-6.128 1.13,-2.012 3.52,-2.981 5.74,-2.332 l 175.07,50.77 c 2.66,0.77 4.18,3.54 3.41,6.19 -0.76,2.65 -3.54,4.18 -6.19,3.41"
         style="fill:#17282f;fill-opacity:1;fill-rule:nonzero;stroke:none"
         id="path122" />
      <path
         d="m 2963.42,1044.61 -55.37,-16.05 c -2.65,-0.77 -4.18,-3.54 -3.41,-6.19 0.77,-2.66 3.55,-4.18 6.2,-3.41 l 55.37,16.05 c 2.65,0.77 4.18,3.54 3.41,6.19 -0.77,2.66 -3.54,4.18 -6.2,3.41"
         style="fill:#17282f;fill-opacity:1;fill-rule:nonzero;stroke:none"
         id="path124" />
      <path
         d="m 2616.34,903.582 c 0.03,0 11.36,-0.891 29.6,-2.672 27.35,-2.66 70.14,-7.34 112.96,-14 42.79,-6.648 85.73,-15.359 112.82,-25.808 2.58,-0.993 5.47,0.3 6.46,2.867 1,2.582 -0.29,5.472 -2.87,6.472 -38.01,14.579 -102.25,25.207 -157.36,32.391 -55.06,7.137 -100.78,10.707 -100.83,10.719 -2.75,0.211 -5.16,-1.852 -5.37,-4.602 -0.22,-2.75 1.84,-5.16 4.59,-5.367"
         style="fill:#17282f;fill-opacity:1;fill-rule:nonzero;stroke:none"
         id="path126" />
      <path
         d="m 2896.48,742.539 c 8.45,-8.82 16.64,-18.207 24.45,-28.219 1.7,-2.168 4.84,-2.558 7.02,-0.859 2.18,1.699 2.57,4.84 0.87,7.019 -8.03,10.282 -16.44,19.93 -25.12,28.981 -1.91,2 -5.08,2.059 -7.07,0.148 -1.99,-1.91 -2.06,-5.07 -0.15,-7.07"
         style="fill:#17282f;fill-opacity:1;fill-rule:nonzero;stroke:none"
         id="path128" />
      <path
         d="m 2689.75,863.762 0.96,-0.242 c 9.92,-2.528 94.26,-25.641 171.32,-89.098 2.13,-1.762 5.28,-1.453 7.04,0.68 1.75,2.128 1.45,5.277 -0.68,7.039 -84.2,69.261 -175.91,91.218 -176.31,91.339 -2.68,0.649 -5.38,-1.011 -6.03,-3.691 -0.64,-2.687 1.01,-5.391 3.7,-6.027"
         style="fill:#17282f;fill-opacity:1;fill-rule:nonzero;stroke:none"
         id="path130" />
      <path
         d="m 1955.5,737.32 2.86,-276.757 c 0.03,-2.762 2.29,-4.973 5.05,-4.954 2.76,0.032 4.97,2.289 4.95,5.063 l -2.86,276.75 c -0.03,2.758 -2.29,4.98 -5.05,4.949 -2.76,-0.031 -4.98,-2.289 -4.95,-5.051"
         style="fill:#17282f;fill-opacity:1;fill-rule:nonzero;stroke:none"
         id="path132" />
      <path
         d="m 1823.55,524.09 h 119.83 c 2.76,0 5,2.242 5,5 0,2.762 -2.24,5 -5,5 h -119.83 c -2.76,0 -5,-2.238 -5,-5 0,-2.758 2.24,-5 5,-5"
         style="fill:#17282f;fill-opacity:1;fill-rule:nonzero;stroke:none"
         id="path134" />
      <path
         d="m 1852.38,686.742 48.5,2.848 c 2.75,0.16 4.86,2.531 4.69,5.281 -0.16,2.758 -2.52,4.859 -5.28,4.699 l -48.5,-2.851 c -2.76,-0.16 -4.86,-2.528 -4.7,-5.289 0.16,-2.75 2.53,-4.86 5.29,-4.688"
         style="fill:#17282f;fill-opacity:1;fill-rule:nonzero;stroke:none"
         id="path136" />
    </g>
  </g>
</svg>
